<mxfile host="app.diagrams.net" modified="2023-09-18T10:17:45.280Z" agent="Mozilla/5.0 (Windows NT 10.0; Win64; x64; rv:109.0) Gecko/20100101 Firefox/117.0" etag="c32hgD70DTLdr2bVtD3K" version="21.7.5" type="device">
  <diagram name="Page-1" id="KMmnkO2Ysz7c5i8QPpm3">
    <mxGraphModel dx="1450" dy="166" grid="1" gridSize="1" guides="0" tooltips="1" connect="1" arrows="1" fold="1" page="0" pageScale="1" pageWidth="827" pageHeight="1169" math="0" shadow="0">
      <root>
        <mxCell id="0" />
        <mxCell id="1" parent="0" />
        <mxCell id="gN4vE8bEkTlw2jWnqAIC-14" value="" style="rounded=1;whiteSpace=wrap;html=1;fillColor=#f5f5f5;fontColor=#333333;strokeColor=#666666;" parent="1" vertex="1">
          <mxGeometry x="-23" y="533" width="821" height="351" as="geometry" />
        </mxCell>
        <mxCell id="hdwB_MQwIhiL4xS-3u5l-9" style="edgeStyle=orthogonalEdgeStyle;rounded=0;orthogonalLoop=1;jettySize=auto;html=1;exitX=1;exitY=0.5;exitDx=0;exitDy=0;" parent="1" source="hdwB_MQwIhiL4xS-3u5l-1" target="hdwB_MQwIhiL4xS-3u5l-3" edge="1">
          <mxGeometry relative="1" as="geometry" />
        </mxCell>
        <mxCell id="hdwB_MQwIhiL4xS-3u5l-1" value="Forward Model" style="rounded=1;whiteSpace=wrap;html=1;fillColor=#fff2cc;strokeColor=#d6b656;" parent="1" vertex="1">
          <mxGeometry x="272" y="681" width="120" height="60" as="geometry" />
        </mxCell>
        <mxCell id="hdwB_MQwIhiL4xS-3u5l-10" style="edgeStyle=orthogonalEdgeStyle;rounded=0;orthogonalLoop=1;jettySize=auto;html=1;entryX=0.5;entryY=0;entryDx=0;entryDy=0;exitX=0.5;exitY=0;exitDx=0;exitDy=0;" parent="1" source="hdwB_MQwIhiL4xS-3u5l-2" target="hdwB_MQwIhiL4xS-3u5l-6" edge="1">
          <mxGeometry relative="1" as="geometry">
            <mxPoint x="462" y="651" as="targetPoint" />
            <Array as="points">
              <mxPoint x="565" y="566" />
              <mxPoint x="332" y="566" />
            </Array>
          </mxGeometry>
        </mxCell>
        <mxCell id="hdwB_MQwIhiL4xS-3u5l-2" value="Optimiser" style="rounded=1;whiteSpace=wrap;html=1;fillColor=#e1d5e7;strokeColor=#9673a6;" parent="1" vertex="1">
          <mxGeometry x="505" y="586" width="120" height="60" as="geometry" />
        </mxCell>
        <mxCell id="hdwB_MQwIhiL4xS-3u5l-8" style="edgeStyle=orthogonalEdgeStyle;rounded=0;orthogonalLoop=1;jettySize=auto;html=1;exitX=0.583;exitY=0;exitDx=0;exitDy=0;entryX=0.5;entryY=1;entryDx=0;entryDy=0;exitPerimeter=0;" parent="1" source="hdwB_MQwIhiL4xS-3u5l-3" target="hdwB_MQwIhiL4xS-3u5l-2" edge="1">
          <mxGeometry relative="1" as="geometry" />
        </mxCell>
        <mxCell id="hdwB_MQwIhiL4xS-3u5l-3" value="Cost Function" style="rounded=1;whiteSpace=wrap;html=1;fillColor=#e1d5e7;strokeColor=#9673a6;" parent="1" vertex="1">
          <mxGeometry x="505" y="681" width="120" height="60" as="geometry" />
        </mxCell>
        <mxCell id="hdwB_MQwIhiL4xS-3u5l-7" style="edgeStyle=orthogonalEdgeStyle;rounded=0;orthogonalLoop=1;jettySize=auto;html=1;" parent="1" source="hdwB_MQwIhiL4xS-3u5l-6" target="hdwB_MQwIhiL4xS-3u5l-1" edge="1">
          <mxGeometry relative="1" as="geometry" />
        </mxCell>
        <mxCell id="hdwB_MQwIhiL4xS-3u5l-6" value="Parameter Values" style="rounded=1;whiteSpace=wrap;html=1;fillColor=#f8cecc;strokeColor=#b85450;" parent="1" vertex="1">
          <mxGeometry x="272" y="589" width="120" height="60" as="geometry" />
        </mxCell>
        <mxCell id="hdwB_MQwIhiL4xS-3u5l-38" style="edgeStyle=orthogonalEdgeStyle;rounded=0;orthogonalLoop=1;jettySize=auto;html=1;exitX=1;exitY=0.5;exitDx=0;exitDy=0;" parent="1" source="hdwB_MQwIhiL4xS-3u5l-11" target="hdwB_MQwIhiL4xS-3u5l-6" edge="1">
          <mxGeometry relative="1" as="geometry" />
        </mxCell>
        <mxCell id="hdwB_MQwIhiL4xS-3u5l-11" value="Non-optimised Parameters" style="rounded=1;whiteSpace=wrap;html=1;fillColor=#dae8fc;strokeColor=#6c8ebf;" parent="1" vertex="1">
          <mxGeometry x="111" y="594" width="100" height="50" as="geometry" />
        </mxCell>
        <mxCell id="hdwB_MQwIhiL4xS-3u5l-91" value="" style="edgeStyle=orthogonalEdgeStyle;rounded=0;orthogonalLoop=1;jettySize=auto;html=1;" parent="1" source="hdwB_MQwIhiL4xS-3u5l-13" target="hdwB_MQwIhiL4xS-3u5l-1" edge="1">
          <mxGeometry relative="1" as="geometry" />
        </mxCell>
        <mxCell id="hdwB_MQwIhiL4xS-3u5l-92" style="edgeStyle=orthogonalEdgeStyle;rounded=0;orthogonalLoop=1;jettySize=auto;html=1;entryX=0.5;entryY=1;entryDx=0;entryDy=0;exitX=1;exitY=0.5;exitDx=0;exitDy=0;dashed=1;" parent="1" source="hdwB_MQwIhiL4xS-3u5l-13" target="hdwB_MQwIhiL4xS-3u5l-3" edge="1">
          <mxGeometry relative="1" as="geometry">
            <Array as="points">
              <mxPoint x="236" y="711" />
              <mxPoint x="236" y="779" />
              <mxPoint x="565" y="779" />
            </Array>
          </mxGeometry>
        </mxCell>
        <mxCell id="hdwB_MQwIhiL4xS-3u5l-13" value="Data" style="rounded=1;whiteSpace=wrap;html=1;fillColor=#dae8fc;strokeColor=#6c8ebf;flipH=1;" parent="1" vertex="1">
          <mxGeometry x="111" y="686" width="100" height="50" as="geometry" />
        </mxCell>
        <mxCell id="hdwB_MQwIhiL4xS-3u5l-20" value="" style="shape=image;verticalLabelPosition=bottom;labelBackgroundColor=default;verticalAlign=top;aspect=fixed;imageAspect=0;image=data:image/png,iVBORw0KGgoAAAANSUhEUgAAACIAAABCEAYAAABiI9jbAAAKqGlDQ1BJQ0MgUHJvZmlsZQAASImVlwdQU+kWgP9700NCS4h0Qm/SWwApIbTQpYOohCRAKCEGgogdWVyBtSAighVdEFFwVYosNkSxLQKKXRdkEVHWxYINlXeBIbj75r0378ycOd899/znP+ef+8+cCwBZniMSpcHyAKQLs8ShPh706JhYOm4YQEANEAAJQBxupogZEhIAEJm1f5f3d5BoRG6ZTeX69/f/VRR4/EwuAFAIwgm8TG46wqcQfcEVibMAQO1H/LrLs0RT3IEwVYwUiPC9KU6a4dEpTphmNJiOCQ9lIUwFAE/icMRJAJDoiJ+ezU1C8pDcEbYU8gRChEUIu6anZ/AQPo6wERKD+EhT+RkJ3+VJ+lvOBGlODidJyjO9TAveU5ApSuOs+D+P439Leppkdg8DREnJYt9QxCoiZ3YvNcNfysKEoOBZFvCm46c5WeIbMcvcTFbsLPM4nv7StWlBAbOcKPBmS/NkscNnmZ/pFTbL4oxQ6V6JYhZzljniuX0lqRFSfzKfLc2fmxweNcvZgsigWc5MDfOfi2FJ/WJJqLR+vtDHY25fb2nv6Znf9StgS9dmJYf7SnvnzNXPFzLncmZGS2vj8T295mIipPGiLA/pXqK0EGk8P81H6s/MDpOuzUI+yLm1IdIzTOH4hcwyYIEMkIaoGNBBAPLkCUAWPydrqhFWhmiFWJCUnEVnIjeMT2cLuebz6daW1jYATN3Xmc/hLW36HkK0a3O+vIMAuLhOTk62zfn8hwA4OQYA8fGczwg5I9leAK6UciXi7Bnf9F3CACKQA1SgAjSBLjACZsAa2ANn4A68gB8IBuEgBiwBXJAM0pHKl4NVYD0oAEVgK9gBKsA+cBAcBsfACdAM2sAFcBlcB92gDzwE/WAIvARj4D2YgCAIB5EhCqQCaUH6kClkDTEgV8gLCoBCoRgoHkqChJAEWgVtgIqgEqgCOgDVQr9Ap6EL0FWoB7oPDUAj0BvoM4yCSTAV1oANYAuYATNhfzgcXgwnwcvgXDgf3gyXw1XwUbgJvgBfh/vgfvglPI4CKBkUDaWNMkMxUCxUMCoWlYgSo9agClFlqCpUPaoV1Ym6hepHjaI+obFoCpqONkM7o33REWguehl6DboYXYE+jG5Cd6BvoQfQY+hvGDJGHWOKccKwMdGYJMxyTAGmDFONacRcwvRhhjDvsVgsDWuIdcD6YmOwKdiV2GLsHmwD9jy2BzuIHcfhcCo4U5wLLhjHwWXhCnC7cEdx53C9uCHcR7wMXgtvjffGx+KF+Dx8Gf4I/iy+Fz+MnyDIE/QJToRgAo+wgrCFcIjQSrhJGCJMEBWIhkQXYjgxhbieWE6sJ14iPiK+lZGR0ZFxlFkoI5BZJ1Muc1zmisyAzCeSIsmExCLFkSSkzaQa0nnSfdJbMplsQHYnx5KzyJvJteSL5Cfkj7IUWXNZtixPdq1spWyTbK/sKzmCnL4cU26JXK5cmdxJuZtyo/IEeQN5ljxHfo18pfxp+bvy4woUBSuFYIV0hWKFIwpXFZ4r4hQNFL0UeYr5igcVLyoOUlAUXQqLwqVsoByiXKIMUbFUQyqbmkItoh6jdlHHlBSVbJUilXKUKpXOKPXTUDQDGpuWRttCO0G7Q/s8T2Mecx5/3qZ59fN6531QVlN2V+YrFyo3KPcpf1ahq3ippKpsU2lWeayKVjVRXai6XHWv6iXVUTWqmrMaV61Q7YTaA3VY3UQ9VH2l+kH1G+rjGpoaPhoijV0aFzVGNWma7popmqWaZzVHtCharloCrVKtc1ov6Ep0Jj2NXk7voI9pq2v7aku0D2h3aU/oGOpE6OTpNOg81iXqMnQTdUt123XH9LT0AvVW6dXpPdAn6DP0k/V36nfqfzAwNIgy2GjQbPDcUNmQbZhrWGf4yIhs5Ga0zKjK6LYx1phhnGq8x7jbBDaxM0k2qTS5aQqb2psKTPeY9szHzHecL5xfNf+uGcmMaZZtVmc2YE4zDzDPM282f2WhZxFrsc2i0+KbpZ1lmuUhy4dWilZ+VnlWrVZvrE2sudaV1rdtyDbeNmttWmxe25ra8m332t6zo9gF2m20a7f7au9gL7avtx9x0HOId9jtcJdBZYQwihlXHDGOHo5rHdscPznZO2U5nXD6y9nMOdX5iPPzBYYL+AsOLRh00XHhuBxw6Xelu8a77nftd9N247hVuT1113XnuVe7DzONmSnMo8xXHpYeYo9Gjw8sJ9Zq1nlPlKePZ6Fnl5eiV4RXhdcTbx3vJO867zEfO5+VPud9Mb7+vtt877I12Fx2LXvMz8FvtV+HP8k/zL/C/2mASYA4oDUQDvQL3B74KEg/SBjUHAyC2cHbgx+HGIYsC/l1IXZhyMLKhc9CrUJXhXaGUcKWhh0Jex/uEb4l/GGEUYQkoj1SLjIusjbyQ5RnVElUf7RF9Oro6zGqMYKYllhcbGRsdez4Iq9FOxYNxdnFFcTdWWy4OGfx1SWqS9KWnFkqt5Sz9GQ8Jj4q/kj8F04wp4oznsBO2J0wxmVxd3Jf8tx5pbwRvgu/hD+c6JJYkvg8ySVpe9JIsltyWfKogCWoELxO8U3Zl/IhNTi1JnUyLSqtIR2fHp9+WqgoTBV2ZGhm5GT0iExFBaL+ZU7LdiwbE/uLqzOhzMWZLVlUZDC6ITGS/CAZyHbNrsz+uDxy+ckchRxhzo0VJis2rRjO9c79eSV6JXdl+yrtVetXDaxmrj6wBlqTsKZ9re7a/LVD63zWHV5PXJ+6/rc8y7ySvHcboja05mvkr8sf/MHnh7oC2QJxwd2Nzhv3/Yj+UfBj1yabTbs2fSvkFV4rsiwqK/pSzC2+9pPVT+U/TW5O3Ny1xX7L3q3YrcKtd7a5bTtcolCSWzK4PXB7Uym9tLD03Y6lO66W2Zbt20ncKdnZXx5Q3rJLb9fWXV8qkiv6Kj0qG3ar7960+8Me3p7eve576/dp7Cva93m/YP+9Az4HmqoMqsoOYg9mH3x2KPJQ58+Mn2urVauLqr/WCGv6D4ce7qh1qK09on5kSx1cJ6kbORp3tPuY57GWerP6Aw20hqLj4Ljk+Itf4n+5c8L/RPtJxsn6U/qndjdSGguboKYVTWPNyc39LTEtPaf9Tre3Orc2/mr+a02bdlvlGaUzW84Sz+afnTyXe278vOj86IWkC4PtS9sfXoy+eLtjYUfXJf9LVy57X77Yyew8d8XlSttVp6unrzGuNV+3v950w+5G4292vzV22Xc13XS42dLt2N3as6DnbK9b74Vbnrcu32bfvt4X1NdzJ+LOvbtxd/vv8e49v592//WD7AcTD9c9wjwqfCz/uOyJ+pOq341/b+i37z8z4Dlw42nY04eD3MGXf2T+8WUo/xn5Wdmw1nDtc+vnbSPeI90vFr0Yeil6OTFa8KfCn7tfGb069Zf7XzfGoseGXotfT74pfqvytuad7bv28ZDxJ+/T3098KPyo8vHwJ8anzs9Rn4cnln/BfSn/avy19Zv/t0eT6ZOTIo6YMz0KoBCFExMBeFMDADkGAEo3Mj8smpmnpwWa+QeYJvCfeGbmnhZ7AOoRMzUWsc4DcBxRA0TJiE6NROHuALaxkers7Ds9p08JFvlj2W87Rb20nHXgHzIzw39X9z8tmMo6vfxv9l8BhAf7uiw5BAAABdxlWElmTU0AKgAAAAgABgEGAAMAAAABAAIAAAESAAMAAAABAAEAAAEaAAUAAAABAAAAVgEbAAUAAAABAAAAXgEoAAMAAAABAAIAAIdpAAQAAAABAAAAZgAAAAAAAACQAAAAAQAAAJAAAAABAAOShgAHAAAFTAAAAJCgAgAEAAAAAQAAACKgAwAEAAAAAQAAAEIAAAAAQVNDSUkAAABBQUFFM25qYWJWTk5iQnRGRkg2ejQ3Wkoyc1NicEQ5cCtyY2xEcVNVbHFRTk5LVDh4R21hTnJSeGY5YU9uY1N1CkdhL0g5amJyWGJNN205YTFJczBCRllUZ3dLblFBNUJFQ0lxQUFpb1ZRaW9JMFFDcVVBUkpCRWdJVU9IUUMrTEEKQmFFS2lWbmJLZ1YxUnF0OTc4MjhlZC83NXB0VXdkQWQxdG01aENUc1c3WjhSVjBzTUVsdFI3Zk0wUUN4dFp3dQp2SENBV1lWWXdFcWRwQnB6bWdDZGZUVXArMFBxSVZxazZXQjEwemMxdFdIYnNoaEhGK1d0SzFlMTMzMVB4N1o3CnQ5KzNZK2Y5RCt4OXVHL2c4VVBIam8rTm55QTBjekpmWUc0a1lMcUdzVmpmNEpkYkE5R1F1bk9DRnAweDhhOFcKR1Fsb0JuR2NDNDFOemF2WHJGM1hzcDVMSEhNZlg4YVg4eFc4aHRmeXVnc2JObTdhdkVYWmVsY2JYOGxYOFFidQo1NDI4bFcvZ20vaG1yc1JTeEtHR2J0S0laaG1XSGM1YmFScGhPak5vckdCVGtrOFpOSkVuV1ZQUDZCcGhvdDF3Cm1qQXEya29SYlNKclc2NlozdWNsamptV2EyczBURSt6TnFpT3hjNHUvNjdkM1pHUWV2eEFmenlrbGplcUJhTFIKd1U1RlRKQVJyMTk0Y0UvUFEyT1ZOa3lTcDdHS1NaMW9OV0dtcHpjV1VvK1UrNVY5Qy81SEhuMXNWQkRnTUZzMwpzMXcrS2c0STlwZDVIbllaRVhqVjhzcHNjSitYVjNFVzkvc0hEeHdjdXVVTE1FRW1ySlRMcU1PYitIcmVuSlFYCjRtbExjL1BVWkdVRTQxMmRCWllvRVp2cG1rR242dUt1UXdYMkNaS2w0OEwwc0RxSlVwbTFLYVZkUk5KS3hyTEYKWnpLbEhMMDlvMFR5amxQTXA4VE9QR0U1NS85clh2Qk9hK011eS9Ra1NycFpFRWhOclZJbzR4b0tzeFJXTEZBbApyZHVDRjZNb0RLTFp1c0NxYURsaUU0MEpkZFo1d2prY09qbzl6RmRQSCtGcmVNdElTQjBVQUpmVWNNUS9FbzJOCkNsL1Z6MUJCVEdiUUlGbEgrQ0hSV0Z0ZlIrVUtaWm12NWV0R2hpMlRhSlpnT3A2b25qQVQ3eFZ1OGduQjVJQ3UKZWNJZ2RuRW02UVZUV2xKdXVvM2dkSVh6bVhUdkhlTnRmZjJWV2d0WmYwNzNOTTUwZ1NCNGRlNlh0MzIvWHVFYgp4WkVUaGlnN0lJUTNNOUhycWNyYzNUM1lwWWdKdk42NzJ5Y1BEdkV0M2kxRzR6bkNTc1Vwa1RONUtpazMzeExGCnZ5Qm5KNU85VUFPTjBBb0IyQWE3WUE4TXdXRTRCaXFjZ2lsNENwNkRjL0F5dkFGdndsdndEcndMNzhNbHVBd2YKd2tkd0ZUNkhMK0VhZkFYejhEVXN3Qko4QzkvRGRiZ0J2OEVmY0JQVm9nYWtvTzJvRysxRlFSUkNFUlJGbytnRQowcEdOenFBcGRCWTlnNTVINTlCTDZEeDZCYjJIUGtBZm96azBqMzVBUDZLZjBYWHBzblJGK2tUNlZQcE1tcE8rCmtPYWw3NlNmcEJ2Uzc5S2YwbC9TVGVsdjdNTzFXTWJOdUFXMzR3NjhBL2ZqL1hnTWF6aUhDN2lJUzVqanAvR3oKK0FYOElqNlBwL0VzZmcyL2ppL2lTL2hhaFdBSlZSL21hZmpQd1BQL0FManprOHM9WVa4nQAAAAlwSFlzAAAWJQAAFiUBSVIk8AAACNtpVFh0WE1MOmNvbS5hZG9iZS54bXAAAAAAADx4OnhtcG1ldGEgeG1sbnM6eD0iYWRvYmU6bnM6bWV0YS8iIHg6eG1wdGs9IlhNUCBDb3JlIDYuMC4wIj4KICAgPHJkZjpSREYgeG1sbnM6cmRmPSJodHRwOi8vd3d3LnczLm9yZy8xOTk5LzAyLzIyLXJkZi1zeW50YXgtbnMjIj4KICAgICAgPHJkZjpEZXNjcmlwdGlvbiByZGY6YWJvdXQ9IiIKICAgICAgICAgICAgeG1sbnM6dGlmZj0iaHR0cDovL25zLmFkb2JlLmNvbS90aWZmLzEuMC8iCiAgICAgICAgICAgIHhtbG5zOmV4aWY9Imh0dHA6Ly9ucy5hZG9iZS5jb20vZXhpZi8xLjAvIj4KICAgICAgICAgPHRpZmY6Q29tcHJlc3Npb24+MTwvdGlmZjpDb21wcmVzc2lvbj4KICAgICAgICAgPHRpZmY6UmVzb2x1dGlvblVuaXQ+MjwvdGlmZjpSZXNvbHV0aW9uVW5pdD4KICAgICAgICAgPHRpZmY6WFJlc29sdXRpb24+MTQ0PC90aWZmOlhSZXNvbHV0aW9uPgogICAgICAgICA8dGlmZjpZUmVzb2x1dGlvbj4xNDQ8L3RpZmY6WVJlc29sdXRpb24+CiAgICAgICAgIDx0aWZmOlBob3RvbWV0cmljSW50ZXJwcmV0YXRpb24+MjwvdGlmZjpQaG90b21ldHJpY0ludGVycHJldGF0aW9uPgogICAgICAgICA8dGlmZjpPcmllbnRhdGlvbj4xPC90aWZmOk9yaWVudGF0aW9uPgogICAgICAgICA8ZXhpZjpQaXhlbFhEaW1lbnNpb24+MzQ8L2V4aWY6UGl4ZWxYRGltZW5zaW9uPgogICAgICAgICA8ZXhpZjpVc2VyQ29tbWVudD5BQUFFM25qYWJWTk5iQnRGRkg2ejQ3Wkoyc1NicEQ5cCtyY2xEcVNVbHFRTk5LVDh4R21hTnJSeGY5YU9uY1N1JiN4QTtHYS9IOWpiclhiTTdtOWExSXMwQkZZVGd3S25RQTVCRUNJcUFBaW9WUWlvSTBRQ3FVQVJKQkVnSVVPSFFDK0xBJiN4QTtCYUVLaVZuYktnVjFScXQ5NzgyOGVkLzc1cHRVd2RBZDF0bTVoQ1RzVzdaOFJWMHNNRWx0UjdmTTBRQ3h0Wnd1JiN4QTt2SENBV1lWWXdFcWRwQnB6bWdDZGZUVXArMFBxSVZxazZXQjEwemMxdFdIYnNoaEhGK1d0SzFlMTMzMVB4N1o3JiN4QTt0OSszWStmOUQreDl1Ry9nOFVQSGpvK05ueUEwY3pKZllHNGtZTHFHc1ZqZjRKZGJBOUdRdW5PQ0ZwMHg4YThXJiN4QTtHUWxvQm5HY0M0MU56YXZYckYzWHNwNUxISE1mWDhhWDh4VzhodGZ5dWdzYk5tN2F2RVhaZWxjYlg4bFg4UWJ1JiN4QTs1NDI4bFcvZ20vaG1yc1JTeEtHR2J0S0laaG1XSGM1YmFScGhPak5vckdCVGtrOFpOSkVuV1ZQUDZCcGhvdDF3JiN4QTttakFxMmtvUmJTSnJXNjZaM3VjbGpqbVdhMnMwVEUrek5xaU94YzR1LzY3ZDNaR1FldnhBZnp5a2xqZXFCYUxSJiN4QTt3VTVGVEpBUnIxOTRjRS9QUTJPVk5reVNwN0dLU1oxb05XR21wemNXVW8rVSs1VjlDLzVISG4xc1ZCRGdNRnMzJiN4QTtzMXcrS2c0STlwZDVIbllaRVhqVjhzcHNjSitYVjNFVzkvc0hEeHdjdXVVTE1FRW1ySlRMcU1PYitIcmVuSlFYJiN4QTs0bWxMYy9QVVpHVUU0MTJkQlpZb0VadnBta0duNnVLdVF3WDJDWktsNDhMMHNEcUpVcG0xS2FWZFJOSkt4ckxGJiN4QTtaektsSEwwOW8wVHlqbFBNcDhUT1BHRTU1LzlyWHZCT2ErTXV5L1FrU3JwWkVFaE5yVklvNHhvS3N4UldMRkFsJiN4QTtyZHVDRjZNb0RLTFp1c0NxYURsaUU0MEpkZFo1d2prY09qbzl6RmRQSCtGcmVNdElTQjBVQUpmVWNNUS9FbzJOJiN4QTtDbC9WejFCQlRHYlFJRmxIK0NIUldGdGZSK1VLWlptdjVldEdoaTJUYUpaZ09wNm9uakFUN3hWdThnbkI1SUN1JiN4QTtlY0lnZG5FbTZRVlRXbEp1dW8zZ2RJWHptWFR2SGVOdGZmMlZXZ3RaZjA3M05NNTBnU0I0ZGU2WHQzMi9YdUViJiN4QTt4WkVUaGlnN0lJUTNNOUhycWNyYzNUM1lwWWdKdk42NzJ5Y1BEdkV0M2kxRzR6bkNTc1Vwa1RONUtpazMzeExGJiN4QTt2eUJuSjVPOVVBT04wQW9CMkFhN1lBOE13V0U0QmlxY2dpbDRDcDZEYy9BeXZBRnZ3bHZ3RHJ3TDc4TWx1QXdmJiN4QTt3a2R3RlQ2SEwrRWFmQVh6OERVc3dCSjhDOS9EZGJnQnY4RWZjQlBWb2dha29PMm9HKzFGUVJSQ0VSUkZvK2dFJiN4QTswcEdOenFBcGRCWTlnNTVINTlCTDZEeDZCYjJIUGtBZm96azBqMzVBUDZLZjBYWHBzblJGK2tUNlZQcE1tcE8rJiN4QTtrT2FsNzZTZnBCdlM3OUtmMGwvU1RlbHY3TU8xV01iTnVBVzM0dzY4QS9mai9YZ01hemlIQzdpSVM1ampwL0d6JiN4QTsrQVg4SWo2UHAvRXNmZzIvamkvaVMvaGFoV0FKVlIvbWFmalB3UFAvQUxqems4cz08L2V4aWY6VXNlckNvbW1lbnQ+CiAgICAgICAgIDxleGlmOlBpeGVsWURpbWVuc2lvbj42NjwvZXhpZjpQaXhlbFlEaW1lbnNpb24+CiAgICAgIDwvcmRmOkRlc2NyaXB0aW9uPgogICA8L3JkZjpSREY+CjwveDp4bXBtZXRhPgrXRJA9AAAG6ElEQVR4Ae1be4iUVRQfXcWyWrcwXWqNUSnXlHYrayWS/YzCJQq3IAqCGOsfs8Dt8UdFNJMV9ICiLIqEhpKelj3UUhNnkArLKO1FEeyMFr32kZb20pyoc36Dc5bjPfebb2Z2t50/5nzn3HPPOff33Xu++/i+WGzkV4JAXQk36Jiz51JI9UcT7e0ddCFWJ6ALAvLze4FoT47o7Fai/5v/8wJq6m8MREHQHxmYmc3DHJJ2BmKfAEACAv47BuaU4QbMPAZirxEIAAL6LQMzPT7Ee8w5nCx/dQDxTJoa+laGKICQdCcDEx9qwLQxEHsUIA6y/JYUAYD/On4aPpkmiQQEfDcDM6UJNQcpPYuB2K0A8SfLr0zYGnBHivQAhKRfMzAnDDZgzuDH5M8coAwcAM0PbEBIrUUJkuxXgP6S/TY2yppV5lsZiD4FiF0sj2pe0dFJDdRy0ufs7/iJVQYC7n5QgNjO8kp15TP5Rmj+12YQYZXpzV3kEENkIwdyTH11ApkaJz9f8Q3AjHdBQPKa/eOpMnZsbUI4jofIsJ/Z1gbeEa8jCIwgMIKAC4GQO2ZYWzTPIAdt5xKFub4+l+MhXj6Zp77pNDVE28DBvKOXn/8vsn5DQ20BmBYn/0t5foTFYwtP5MzRXdhJqlhzoMGSYnEm5eA/zpCdak+dzw/Ir7bf8keByme5Npqwp4kKaNjfbOCeJBnCxgyG0NNpkkNf0i9yVF6tiRo2kGQckr+eew5Fd8g/9hHkfgVWq66pL3qUdCj5y7nnHeI60kvccelX468tAjK6NI4VK4mXS44ld5J8Q7ZUX3JHSIHCz1+oFEQkbu/wM7Rtq9C/iO+YRPBVHgJCXWVvS1GRtCP5dRnVRCQFL3Dc0q/kkRsx5IvOP+AAUQH7Cni6FBUdF68JO7An6WoO2GEudPH3Oaoq/Up+Dcc7wJFUfMQz4HoeY1hmS3uSvz85IIRIBM38tJD+NP7GYu6Ae5FDIH70PlzZ6MJLSc+aQz7cYbPrqxV45o5sVvEABD/SupBSD+INXA92NIr5wFF8Vov6UVFr7sBTc7TSIWJowK0pv9CwFYj5Cexo9CnPoegXTSxmzR1vuG78LwVyjQZaA5FbhRoQkM8LrJb99Hxzxw0DcofwF3bm+EmODKHBGu1mvVGjhOOI2MXcQM2/lJ/eGpFjmMGiSDrS+GVJ1KwMteaOfr4xau4IG97d3EANACk/mR+HYf256llzB+ZJLnve5VikyYZLfmvG27RXBd/c0eXKHTHtsaOEhe38mXFFQYhXvy4EEbORzTuKcXkCcskVxZqmizXrTWqhlYIWW9X+POntiHpCuImHgBwaksfpuy3c8FrW3GFfpBp7yJgxFHRbYAt+XdamF1ZrBifpxrjNQtbcM4yAtMwmx9YZ93uVzh1zbUBAK5PFlYsaAWn2nMi8v93luLzyoN1Wvy9Pep9G3UMmN9gC6OEAdjK11fLXCgJbnS1Z0kOOc9cy9pBJE9ym/tXYlbfphdXyzR0Zc89AREZADkDfQXsc5eUWd0S136EGYgQkt1O1UFJwsISLjhk3jmzdtNRmszdPep9Vqod0swNXOJNcCiHLlz9BFafEbQb8c4fNblHrWE6qrlev/ypQlYkRvdy2pIvsISlaqXrwVGxRRBcPJW0BDty8tQWA44C72I91J04CFdXbjc6oT2wiFXyuIQMBj55ycafT5H8KOIzekiF92PGlP+WofqU2otTWnNZKRTjl1wLHC7XvcEMf4DuPs+G3Wa71BOx9avalfFVaDbk6Bbizz3EgeFddBmrlcaZ8VYLi104UNXvXcc4J3/qI9zinxymUOdyDZvHy/FSWNzHtJ7XYN3m62Mxrn7WbiN+3l+jjDPTiBPGu/2lTSSOXd2kO0XJ89qH1CMi38dArv5nGiVn5jvws4KOBk+K2ei9xD7Nph9DCeyDYzcZh+MvchfEeSAjTpior2Q96gEZxKF+xN5OSKYpXCwByJM85nvsSLjSa+LGOxzb8aXRZ0mUxZDkObg4UbIAgwNtTIR0q1VYYewbmQRMaFEOhxZxDFnSShTpPQ776mvkgoJJrEkS1//1ccNkiutizW9MsU/6s8c6gZ4CiIWHdHzmeamJTGnY1enUirCfPeq94ArIxQw6w9vB0F8PU+nmj33uTvh7K1MdiTLszeDPoYW5A2LELIGBH8wc5bhTqldlMe/VWnlkiEFB8q4YNGrvFUk0AiLNV2NcovtMdz0Oq1FoVONwBLLZkoG/yELF+Wo7cgP0M14wTTze8sIN4qtD0w7vAq05YnUpgsHp9lwF6kMf2ch5K61nuWgXD7mbWx3e9h4+uhqXo4o9xQ107ZWigRpGDsJzHO+g1bKLi+h+iOdURNKIdJQAAAABJRU5ErkJggg==;" parent="1" vertex="1">
          <mxGeometry x="462" y="716" width="6.7" height="13" as="geometry" />
        </mxCell>
        <mxCell id="hdwB_MQwIhiL4xS-3u5l-23" value="" style="shape=image;verticalLabelPosition=bottom;labelBackgroundColor=default;verticalAlign=top;aspect=fixed;imageAspect=0;image=data:image/png,iVBORw0KGgoAAAANSUhEUgAAACIAAABGEAYAAAD5sprNAAAKqGlDQ1BJQ0MgUHJvZmlsZQAASImVlwdQU+kWgP9700NCS4h0Qm/SWwApIbTQpYOohCRAKCEGgogdWVyBtSAighVdEFFwVYosNkSxLQKKXRdkEVHWxYINlXeBIbj75r0378ycOd899/znP+ef+8+cCwBZniMSpcHyAKQLs8ShPh706JhYOm4YQEANEAAJQBxupogZEhIAEJm1f5f3d5BoRG6ZTeX69/f/VRR4/EwuAFAIwgm8TG46wqcQfcEVibMAQO1H/LrLs0RT3IEwVYwUiPC9KU6a4dEpTphmNJiOCQ9lIUwFAE/icMRJAJDoiJ+ezU1C8pDcEbYU8gRChEUIu6anZ/AQPo6wERKD+EhT+RkJ3+VJ+lvOBGlODidJyjO9TAveU5ApSuOs+D+P439Leppkdg8DREnJYt9QxCoiZ3YvNcNfysKEoOBZFvCm46c5WeIbMcvcTFbsLPM4nv7StWlBAbOcKPBmS/NkscNnmZ/pFTbL4oxQ6V6JYhZzljniuX0lqRFSfzKfLc2fmxweNcvZgsigWc5MDfOfi2FJ/WJJqLR+vtDHY25fb2nv6Znf9StgS9dmJYf7SnvnzNXPFzLncmZGS2vj8T295mIipPGiLA/pXqK0EGk8P81H6s/MDpOuzUI+yLm1IdIzTOH4hcwyYIEMkIaoGNBBAPLkCUAWPydrqhFWhmiFWJCUnEVnIjeMT2cLuebz6daW1jYATN3Xmc/hLW36HkK0a3O+vIMAuLhOTk62zfn8hwA4OQYA8fGczwg5I9leAK6UciXi7Bnf9F3CACKQA1SgAjSBLjACZsAa2ANn4A68gB8IBuEgBiwBXJAM0pHKl4NVYD0oAEVgK9gBKsA+cBAcBsfACdAM2sAFcBlcB92gDzwE/WAIvARj4D2YgCAIB5EhCqQCaUH6kClkDTEgV8gLCoBCoRgoHkqChJAEWgVtgIqgEqgCOgDVQr9Ap6EL0FWoB7oPDUAj0BvoM4yCSTAV1oANYAuYATNhfzgcXgwnwcvgXDgf3gyXw1XwUbgJvgBfh/vgfvglPI4CKBkUDaWNMkMxUCxUMCoWlYgSo9agClFlqCpUPaoV1Ym6hepHjaI+obFoCpqONkM7o33REWguehl6DboYXYE+jG5Cd6BvoQfQY+hvGDJGHWOKccKwMdGYJMxyTAGmDFONacRcwvRhhjDvsVgsDWuIdcD6YmOwKdiV2GLsHmwD9jy2BzuIHcfhcCo4U5wLLhjHwWXhCnC7cEdx53C9uCHcR7wMXgtvjffGx+KF+Dx8Gf4I/iy+Fz+MnyDIE/QJToRgAo+wgrCFcIjQSrhJGCJMEBWIhkQXYjgxhbieWE6sJ14iPiK+lZGR0ZFxlFkoI5BZJ1Muc1zmisyAzCeSIsmExCLFkSSkzaQa0nnSfdJbMplsQHYnx5KzyJvJteSL5Cfkj7IUWXNZtixPdq1spWyTbK/sKzmCnL4cU26JXK5cmdxJuZtyo/IEeQN5ljxHfo18pfxp+bvy4woUBSuFYIV0hWKFIwpXFZ4r4hQNFL0UeYr5igcVLyoOUlAUXQqLwqVsoByiXKIMUbFUQyqbmkItoh6jdlHHlBSVbJUilXKUKpXOKPXTUDQDGpuWRttCO0G7Q/s8T2Mecx5/3qZ59fN6531QVlN2V+YrFyo3KPcpf1ahq3ippKpsU2lWeayKVjVRXai6XHWv6iXVUTWqmrMaV61Q7YTaA3VY3UQ9VH2l+kH1G+rjGpoaPhoijV0aFzVGNWma7popmqWaZzVHtCharloCrVKtc1ov6Ep0Jj2NXk7voI9pq2v7aku0D2h3aU/oGOpE6OTpNOg81iXqMnQTdUt123XH9LT0AvVW6dXpPdAn6DP0k/V36nfqfzAwNIgy2GjQbPDcUNmQbZhrWGf4yIhs5Ga0zKjK6LYx1phhnGq8x7jbBDaxM0k2qTS5aQqb2psKTPeY9szHzHecL5xfNf+uGcmMaZZtVmc2YE4zDzDPM282f2WhZxFrsc2i0+KbpZ1lmuUhy4dWilZ+VnlWrVZvrE2sudaV1rdtyDbeNmttWmxe25ra8m332t6zo9gF2m20a7f7au9gL7avtx9x0HOId9jtcJdBZYQwihlXHDGOHo5rHdscPznZO2U5nXD6y9nMOdX5iPPzBYYL+AsOLRh00XHhuBxw6Xelu8a77nftd9N247hVuT1113XnuVe7DzONmSnMo8xXHpYeYo9Gjw8sJ9Zq1nlPlKePZ6Fnl5eiV4RXhdcTbx3vJO867zEfO5+VPud9Mb7+vtt877I12Fx2LXvMz8FvtV+HP8k/zL/C/2mASYA4oDUQDvQL3B74KEg/SBjUHAyC2cHbgx+HGIYsC/l1IXZhyMLKhc9CrUJXhXaGUcKWhh0Jex/uEb4l/GGEUYQkoj1SLjIusjbyQ5RnVElUf7RF9Oro6zGqMYKYllhcbGRsdez4Iq9FOxYNxdnFFcTdWWy4OGfx1SWqS9KWnFkqt5Sz9GQ8Jj4q/kj8F04wp4oznsBO2J0wxmVxd3Jf8tx5pbwRvgu/hD+c6JJYkvg8ySVpe9JIsltyWfKogCWoELxO8U3Zl/IhNTi1JnUyLSqtIR2fHp9+WqgoTBV2ZGhm5GT0iExFBaL+ZU7LdiwbE/uLqzOhzMWZLVlUZDC6ITGS/CAZyHbNrsz+uDxy+ckchRxhzo0VJis2rRjO9c79eSV6JXdl+yrtVetXDaxmrj6wBlqTsKZ9re7a/LVD63zWHV5PXJ+6/rc8y7ySvHcboja05mvkr8sf/MHnh7oC2QJxwd2Nzhv3/Yj+UfBj1yabTbs2fSvkFV4rsiwqK/pSzC2+9pPVT+U/TW5O3Ny1xX7L3q3YrcKtd7a5bTtcolCSWzK4PXB7Uym9tLD03Y6lO66W2Zbt20ncKdnZXx5Q3rJLb9fWXV8qkiv6Kj0qG3ar7960+8Me3p7eve576/dp7Cva93m/YP+9Az4HmqoMqsoOYg9mH3x2KPJQ58+Mn2urVauLqr/WCGv6D4ce7qh1qK09on5kSx1cJ6kbORp3tPuY57GWerP6Aw20hqLj4Ljk+Itf4n+5c8L/RPtJxsn6U/qndjdSGguboKYVTWPNyc39LTEtPaf9Tre3Orc2/mr+a02bdlvlGaUzW84Sz+afnTyXe278vOj86IWkC4PtS9sfXoy+eLtjYUfXJf9LVy57X77Yyew8d8XlSttVp6unrzGuNV+3v950w+5G4292vzV22Xc13XS42dLt2N3as6DnbK9b74Vbnrcu32bfvt4X1NdzJ+LOvbtxd/vv8e49v592//WD7AcTD9c9wjwqfCz/uOyJ+pOq341/b+i37z8z4Dlw42nY04eD3MGXf2T+8WUo/xn5Wdmw1nDtc+vnbSPeI90vFr0Yeil6OTFa8KfCn7tfGb069Zf7XzfGoseGXotfT74pfqvytuad7bv28ZDxJ+/T3098KPyo8vHwJ8anzs9Rn4cnln/BfSn/avy19Zv/t0eT6ZOTIo6YMz0KoBCFExMBeFMDADkGAEo3Mj8smpmnpwWa+QeYJvCfeGbmnhZ7AOoRMzUWsc4DcBxRA0TJiE6NROHuALaxkers7Ds9p08JFvlj2W87Rb20nHXgHzIzw39X9z8tmMo6vfxv9l8BhAf7uiw5BAAABeBlWElmTU0AKgAAAAgABgEGAAMAAAABAAIAAAESAAMAAAABAAEAAAEaAAUAAAABAAAAVgEbAAUAAAABAAAAXgEoAAMAAAABAAIAAIdpAAQAAAABAAAAZgAAAAAAAACQAAAAAQAAAJAAAAABAAOShgAHAAAFUAAAAJCgAgAEAAAAAQAAACKgAwAEAAAAAQAAAEYAAAAAQVNDSUkAAABBQUFFNDNqYWJWTmJiQnRGRkwyems3Wkoyc1NicEk4MGZXMkpBeW1seFdrRERTNlBPRTNUaGpadTA3VVRKN0ZyCnh1dXh2ZlY2MSt5TzA3cFdwUGxBQlNINDRLdlFEeUNKRUJRaFhpb1ZJQUZDTklBUUN1QkVnSVFBVlh6MEIvR0IKa0JDcWtKaTFyVkpRWjdUYWUrL01uWHZ1bVRPSnZLRTd6T2RiUmhLdVc3RnlWV1BFTzAxdFI3Zk1DUyt4dFl3dQp2SkNYV2ZtSTEwcWNvaHB6V2dHZGV6RXVlNExxRVZxa3lVQnQwemYxRFNIYnNoaEhiOGpiVjYvcHV2Mk83aDEzCjdyeHIxKzY3NzlsL2YvL2d3MGRHVDB4T25TUTBkU3FYWjRXdzF5d1l4bEpUczBmdThJNEgxZDFaV25RbXhiOVcKWk15ckdjUnhMcmEwdHExZHQzNUQrMFl1Y2N6citBcStrcS9pOWJ5Qk4xN2N0SG5MMW0zSzl0czYrV3EraGpkegpEMi9oSFh3VDM4SzNjaVdTSUE0MWRKT0dOY3V3N0ZET1N0SXcwNWxCSTNtYmtsekNvTEVjU1p0NlN0Y0lFKzJHCmtvUlIwVmFDYU5tMGJSWE01QUUzY2RLeENyWkdRL1FNNjRUYVdQTDFlUGJzN1EwSDFST0hCcUpCdGJKUnpST04KRHZrVU1VRkd2S2w4Nzc2Kyt5YXJiWmdrUnlOVmt6cmp0WVM1UG44a3FCNnI5Q3ZYbFQwUFBQalFoQ0RBWWJadQpwcmw4WEJ3UUdLandQRkpnUk9CVkt5dnpnUU51WHRWWk91Z1pPblI0K0lZdndBU1lzQklGUmgzZXlqZnl0cmhjCmppWXRyWkNqSnFzZ21Pcng1Vm1zUkd5bWF3YWRhWXdXSENxd1owbWFUZ25UeGVyRVNoWFdacFF1RVVrcUtjc1cKbjhtVVN2VG1qQkxKT1U0eGx4QTdjNFJsblArdnVjRmJyVTBWV0tvdlZ0TE52RUJxYXRWQ3FZS2hNRXRoeFR4Vgprcm90ZURHS3dpQ2FyUXVzaXBZaE50R1lVR2VqSzV5andlT3pJM3p0N0RHK2pyZVBCZFVoQVhCWkRZVTlZK09SCkNlR3IrbGtxaUVrTkdTVHRDRDhvR3V2czc2NWVvU3p6OVh6RDJJaGxFczBTVEVkanRSUG1vbjdoeGg4UlRBN3EKbWlzTVloZm40bTR3b2NYbDFwc0lUbFk1bjB2NmJ4bnY3QitvMWlxblBSbmQxVGpUQllMQWxZVmZsSUUvUnZsbQpjV1RXRUdVSGhmRG1zbjVYVmViZTNxRWVSVXpnVGU3ZFBucDRtRzl6YnpFYXpSQldpcklNWldSR0pFNmZqc3R0Ck41VHhMOUw1NmJnZjZxRUZPc0FMTzJBUDdJTmhPQXFqb01KcG1JSEg0Q2s0RDgvREsvQXF2QWF2dzV2d05seUMKeS9BdXZBOVg0RlA0SEw2QUwyRVJ2b1l5TE1PMzhEMWNoV3Z3Sy93TzExRURha1lLMm9sNjBYNFVRRUVVUnVObwpBcDFFT3JMUldUU0R6cUVuME5Qb1BIb09YVUF2b0xmUU8raER0SUFXMFEvb1IvUXp1aXBkbGo2UVBwSStsajZSCkZxVFBwRVhwTytrbjZacjBtL1NuOUpkMFhmb2IxK0VHTE9NMjNJNjdjRGZlaFFmd1FUeUpOWnpCZVZ6RUpjengKNC9oSi9BeCtGbC9BczNnZXY0UmZ4cGZ3ZS9pcktzc1NxcjNPTS9DZmdaZitBWHNVbFRRPcxmgcUAAAAJcEhZcwAAFiUAABYlAUlSJPAAAAjfaVRYdFhNTDpjb20uYWRvYmUueG1wAAAAAAA8eDp4bXBtZXRhIHhtbG5zOng9ImFkb2JlOm5zOm1ldGEvIiB4OnhtcHRrPSJYTVAgQ29yZSA2LjAuMCI+CiAgIDxyZGY6UkRGIHhtbG5zOnJkZj0iaHR0cDovL3d3dy53My5vcmcvMTk5OS8wMi8yMi1yZGYtc3ludGF4LW5zIyI+CiAgICAgIDxyZGY6RGVzY3JpcHRpb24gcmRmOmFib3V0PSIiCiAgICAgICAgICAgIHhtbG5zOnRpZmY9Imh0dHA6Ly9ucy5hZG9iZS5jb20vdGlmZi8xLjAvIgogICAgICAgICAgICB4bWxuczpleGlmPSJodHRwOi8vbnMuYWRvYmUuY29tL2V4aWYvMS4wLyI+CiAgICAgICAgIDx0aWZmOkNvbXByZXNzaW9uPjE8L3RpZmY6Q29tcHJlc3Npb24+CiAgICAgICAgIDx0aWZmOlJlc29sdXRpb25Vbml0PjI8L3RpZmY6UmVzb2x1dGlvblVuaXQ+CiAgICAgICAgIDx0aWZmOlhSZXNvbHV0aW9uPjE0NDwvdGlmZjpYUmVzb2x1dGlvbj4KICAgICAgICAgPHRpZmY6WVJlc29sdXRpb24+MTQ0PC90aWZmOllSZXNvbHV0aW9uPgogICAgICAgICA8dGlmZjpQaG90b21ldHJpY0ludGVycHJldGF0aW9uPjI8L3RpZmY6UGhvdG9tZXRyaWNJbnRlcnByZXRhdGlvbj4KICAgICAgICAgPHRpZmY6T3JpZW50YXRpb24+MTwvdGlmZjpPcmllbnRhdGlvbj4KICAgICAgICAgPGV4aWY6UGl4ZWxYRGltZW5zaW9uPjM0PC9leGlmOlBpeGVsWERpbWVuc2lvbj4KICAgICAgICAgPGV4aWY6VXNlckNvbW1lbnQ+QUFBRTQzamFiVk5iYkJ0RkZMMnprN1pKMnNTYnBJODBmVzJKQXltbHhXa0REUzZQT0UzVGhqWnUwN1VUSjdGciYjeEE7eHV1eHZmVjYxK3lPMDdwV3BQbEFCU0g0NEt2UUR5Q0pFQlFoWGlvVklBRkNOSUFRQ3VCRWdJUUFWWHowQi9HQiYjeEE7a0JDcWtKaTFyVkpRWjdUYWUrL01uWHZ1bVRPSnZLRTd6T2RiUmhLdVc3RnlWV1BFTzAxdFI3Zk1DUyt4dFl3dSYjeEE7dkpDWFdmbUkxMHFjb2hweldnR2RlekV1ZTRMcUVWcWt5VUJ0MHpmMURTSGJzaGhIYjhqYlY2L3B1djJPN2gxMyYjeEE7N3J4cjErNjc3OWwvZi8vZ3cwZEdUMHhPblNRMGRTcVhaNFd3MXl3WXhsSlRzMGZ1OEk0SDFkMVpXblFteGI5VyYjeEE7Wk15ckdjUnhMcmEwdHExZHQzNUQrMFl1Y2N6citBcStrcS9pOWJ5Qk4xN2N0SG5MMW0zSzl0czYrV3EraGpkeiYjeEE7RDIvaEhYd1QzOEszY2lXU0lBNDFkSk9HTmN1dzdGRE9TdEl3MDVsQkkzbWJrbHpDb0xFY1NadDZTdGNJRSsyRyYjeEE7a29SUjBWYUNhTm0wYlJYTTVBRTNjZEt4Q3JaR1EvUU02NFRhV1BMMWVQYnM3UTBIMVJPSEJxSkJ0YkpSelJPTiYjeEE7RHZrVU1VRkd2S2w4Nzc2Kyt5YXJiWmdrUnlOVmt6cmp0WVM1UG44a3FCNnI5Q3ZYbFQwUFBQalFoQ0RBWWJadSYjeEE7cHJsOFhCd1FHS2p3UEZKZ1JPQlZLeXZ6Z1FOdVh0VlpPdWdaT25SNCtJWXZ3QVNZc0JJRlJoM2V5amZ5dHJoYyYjeEE7amlZdHJaQ2pKcXNnbU9yeDVWbXNSR3ltYXdhZGFZd1dIQ3F3WjBtYVRnblR4ZXJFU2hYV1pwUXVFVWtxS2NzVyYjeEE7bjhtVVN2VG1qQkxKT1U0eGx4QTdjNFJsblArdnVjRmJyVTBWV0tvdlZ0TE52RUJxYXRWQ3FZS2hNRXRoeFR4ViYjeEE7a3JvdGVER0t3aUNhclF1c2lwWWhOdEdZVUdlaks1eWp3ZU96STN6dDdERytqcmVQQmRVaEFYQlpEWVU5WStPUiYjeEE7Q2VHcitsa3FpRWtOR1NUdENEOG9HdXZzNzY1ZW9Teno5WHpEMklobEVzMFNURWRqdFJQbW9uN2h4aDhSVEE3cSYjeEE7bWlzTVloZm40bTR3b2NYbDFwc0lUbFk1bjB2NmJ4bnY3QitvMWlxblBSbmQxVGpUQllMQWxZVmZsSUUvUnZsbSYjeEE7Y1dUV0VHVUhoZkRtc241WFZlYmUzcUVlUlV6Z1RlN2RQbnA0bUc5emJ6RWF6UkJXaXJJTVpXUkdKRTZmanN0dCYjeEE7TjVUeEw5TDU2YmdmNnFFRk9zQUxPMkFQN0lOaE9BcWpvTUpwbUlISDRDazREOC9ESy9BcXZBYXZ3NXZ3Tmx5QyYjeEE7eS9BdXZBOVg0RlA0SEw2QUwyRVJ2b1l5TE1PMzhEMWNoV3Z3Sy93TzExRURha1lLMm9sNjBYNFVRRUVVUnVObyYjeEE7QXAxRU9yTFJXVFNEenFFbjBOUG9QSG9PWFVBdm9MZlFPK2hEdElBVzBRL29SL1F6dWlwZGxqNlFQcEkrbGo2UiYjeEE7RnFUUHBFWHBPK2tuNlpyMG0vU245SmQwWGZvYjErRUdMT00yM0k2N2NEZmVoUWZ3UVR5Sk5aekJlVnpFSmN6eCYjeEE7NC9oSi9BeCtGbC9BczNnZXY0UmZ4cGZ3ZS9pcktzc1NxcjNPTS9DZmdaZitBWHNVbFRRPTwvZXhpZjpVc2VyQ29tbWVudD4KICAgICAgICAgPGV4aWY6UGl4ZWxZRGltZW5zaW9uPjcwPC9leGlmOlBpeGVsWURpbWVuc2lvbj4KICAgICAgPC9yZGY6RGVzY3JpcHRpb24+CiAgIDwvcmRmOlJERj4KPC94OnhtcG1ldGE+CvXptlIAAAcPSURBVHgB7VxbbBRVGC53DBVrAa1Q0sEbEgldAdMqUkaEKDHBPqgh8sCq8fLgpYpGjYldEq0vmoC8GKMu3kLlwag1ojZmFxu1GtRW0YBgd9EqGFppsVZpa1fN/38lPTtnzjmzM3up7cP+c/7zX785c25zpkVFBfG31qYw/0wRPZYgujhE9H/zu9qmVPsZiJRAf2VgFl00xiFZxUD8IQAgAoLyLwzMhWMNmJUMRJ8mEAAEtJOBOc8q8BZzeTUl8LsCiJejJLc7RhRAiPQwA2NZJFcwv1UMRK8EiGHmPxwZndKkSVR+LkpUBATlDgZmfvlo/bwrXcpA9EiAOMn8jWG90B+LkByAEOlBBmZuvgGzlIfJ4xygGDgAutLWA0KUujlMnEEJ0PvZb1mZqJnlcoiB6JYA8SPz/ZpXXFNLCcr6pG/Z35zZWQYC7o5KgGhjflBNeRnfCJn/d2KIMMv0gTpyiEfkAw7k9JnZCWSBRX4O8A3AjPdqm/g5+8WoMmVKbkIo5UdkzM9scwPvuNdxBMYRGEdARGCCyMjP8tSpFNf8uUSHOczkYbrAcM7ssUMwLD7I85aveL6CRR4SB8U2wScst55nqAWLyMSJFPo9DMBvPHFCwl7pG1GyO21agUAziydI7/OdlSWOtc+T9ZRYjU30Yt4Ze40Tl+m/yvV5C0s5L787EhSiLBFMsc9XbAliXwRrIpm928J5BglaxHcKIL6MUeBnlpglgJYjAwSr6Zw/QsXFlNhnnKgsYOyDnGuZASFK4/WEzA/2S0S9wMsYJrGqlQUIfq1Po4PKX2M08NSdHWxlx0hYRnf6HODT9RSPzB/e40zI1vxrBe+V/p1yDww7WfN83uN8NOLuF0DJd+Z4HkBmvP9On066L+wkqjLbsIXkfu707tNJs7/HiZvOW22n84ijilymJ/C3PESMhZZQIRS7k8TY/pRQ4VNxUNNOVaVMMENAlvMjsjkiczCav/UlKvf1jeb7VTpN01C5pSloKtYSIw08mzKKYfUMw/mFaTyRiF48eE+Tbt9jC8HL6CvsdJNOnGcjxO3VfMadbOjwzqnQkSoqmqEnpi/VrNky0GKy9VZetTZCPN8n9HN1lcSuOQyr6KcMnKtRHyuRqCouHJ/I2HWTYcu4sy5jl1oGMOwPpkhcBci+TFvIkpCeIwQywIGZLtK0sncQwmgH/yoa5xubbkqzUw1fl67qxmmJU+3xgDtRxBBSbBNADrQriSuRKgDBjtaNYVHRvdz0lnu937WXrDKzeEwqrgCkpoY051lSC44VTW86sgNjXmaZmfbcQjZsMnN0IEnyPzA10zaXxn7LEttMt5N369O1JC0EL6OvN3TUHE93ESSnajlZ5xNW2q4+b5OJSgBZey0pzLJkis785iz3HSts5zhk3H6u+GafTGKyc8VV0tWgszy4t95LVzcYjkrQN6W6SwfY/SJOV0ND4IhUAki1LQrqldd71NOznrlUa1xlQ3hk0HcstVWKhVnf2q6KW2ghlctIgTfAVNoj9fffR5dt0s5qRNSXi4Z6MmPaklv3Grq/q44UVFNf1A+lSH5mls6KIZ29MbM49ReZwiNTbdiZtscpsBMnEGqwtKSE7IdsMz+N2qOfAMhiQ0cfxc0Cy1Qa383ozjuG2eGuRl3PAiBzdPVYrkXZSRkaVIivMxzO98TJ4JGjCsOyapwxRx+hon6/V5HFhRdLRxIkoYoL9beHZRYVfByghSEV7eLAFGZ9qzbdqcN+DF6y6wfCj8zsUn2V/yS/TprJZyp90x1mFl7ZQfLdXWZ6I9L4XEPVMlCPd7cjBgK6wPkP2Vl1xAOKV6gXGG4YnQqfW0ip4UzsUJY60zUrKdSzrVMhu13t2kG1B/e7SbnVMSAn3WQc6n5KOjADYN2ySc9oisUatunJK6VwZgtNT0XxIZDSsEeBBRYpYiasiuftmEdHMrWzyqhG5Rj1FZbMkj/8Z6J68aDPwHcx/nj/1wo6LzhA4jIa1JdIOKeq+71u4J276owWAELgvt0RNvREPV3Aj4x2JEhuRrHfEQj2PuZnURYI+H5/xIdHEF86wY+MrrGFwIMqPhIhy7JAwF/oeZx3jvx1zT7jRZZzthIAF2evkLiMrrb9cW6zHZkf8A/xI4Llvz/eDawkOAAEJNLNvJFkYHKUKDplfKsv2kcZi7lMz6+Ocu6loBr2Pox5sVpUhFejqvOkvSmyXxny5sd3LZwx/4sDwx0DxWpSd7TB5vXzUQoVdkQKfzih5HtimRp8vN49AZzYmSxsVsMvHo09MXc7OIO2rhaaeUqRKL4/Ee8oytj03cYtAP/OQvafYaDXnqDEva9OcwQcmvx2Tlj3pA4SB8XE727ulAF4jtJycOvxzDf6mI0byOaiCqKYYPWwq2SSLt7jXe/d71J5YIAF8o78Axuajf6pP+ghAAAAAElFTkSuQmCC;" parent="1" vertex="1">
          <mxGeometry x="315" y="658" width="7" height="14.42" as="geometry" />
        </mxCell>
        <mxCell id="hdwB_MQwIhiL4xS-3u5l-30" value="Physics-based" style="rounded=1;whiteSpace=wrap;html=1;strokeColor=#585858;" parent="1" vertex="1">
          <mxGeometry x="185" y="829" width="90" height="40" as="geometry" />
        </mxCell>
        <mxCell id="hdwB_MQwIhiL4xS-3u5l-31" value="Empirical" style="rounded=1;whiteSpace=wrap;html=1;strokeColor=#585858;" parent="1" vertex="1">
          <mxGeometry x="385" y="829" width="90" height="40" as="geometry" />
        </mxCell>
        <mxCell id="hdwB_MQwIhiL4xS-3u5l-32" value="Data-driven" style="rounded=1;whiteSpace=wrap;html=1;strokeColor=#585858;" parent="1" vertex="1">
          <mxGeometry x="285" y="829" width="90" height="40" as="geometry" />
        </mxCell>
        <mxCell id="hdwB_MQwIhiL4xS-3u5l-34" value="" style="endArrow=none;html=1;rounded=0;exitX=0;exitY=0;exitDx=0;exitDy=0;strokeColor=#585858;" parent="1" source="hdwB_MQwIhiL4xS-3u5l-30" edge="1">
          <mxGeometry width="50" height="50" relative="1" as="geometry">
            <mxPoint x="212" y="801" as="sourcePoint" />
            <mxPoint x="271" y="738" as="targetPoint" />
          </mxGeometry>
        </mxCell>
        <mxCell id="hdwB_MQwIhiL4xS-3u5l-35" value="" style="endArrow=none;html=1;rounded=0;exitX=1;exitY=0;exitDx=0;exitDy=0;strokeColor=#585858;" parent="1" source="hdwB_MQwIhiL4xS-3u5l-31" edge="1">
          <mxGeometry width="50" height="50" relative="1" as="geometry">
            <mxPoint x="482" y="849.62" as="sourcePoint" />
            <mxPoint x="393" y="736" as="targetPoint" />
          </mxGeometry>
        </mxCell>
        <mxCell id="hdwB_MQwIhiL4xS-3u5l-43" value="" style="shape=image;verticalLabelPosition=bottom;labelBackgroundColor=default;verticalAlign=top;aspect=fixed;imageAspect=0;image=data:image/png,iVBORw0KGgoAAAANSUhEUgAAACYAAAAiEAYAAABjPHf7AAAKqGlDQ1BJQ0MgUHJvZmlsZQAASImVlwdQU+kWgP9700NCS4h0Qm/SWwApIbTQpYOohCRAKCEGgogdWVyBtSAighVdEFFwVYosNkSxLQKKXRdkEVHWxYINlXeBIbj75r0378ycOd899/znP+ef+8+cCwBZniMSpcHyAKQLs8ShPh706JhYOm4YQEANEAAJQBxupogZEhIAEJm1f5f3d5BoRG6ZTeX69/f/VRR4/EwuAFAIwgm8TG46wqcQfcEVibMAQO1H/LrLs0RT3IEwVYwUiPC9KU6a4dEpTphmNJiOCQ9lIUwFAE/icMRJAJDoiJ+ezU1C8pDcEbYU8gRChEUIu6anZ/AQPo6wERKD+EhT+RkJ3+VJ+lvOBGlODidJyjO9TAveU5ApSuOs+D+P439Leppkdg8DREnJYt9QxCoiZ3YvNcNfysKEoOBZFvCm46c5WeIbMcvcTFbsLPM4nv7StWlBAbOcKPBmS/NkscNnmZ/pFTbL4oxQ6V6JYhZzljniuX0lqRFSfzKfLc2fmxweNcvZgsigWc5MDfOfi2FJ/WJJqLR+vtDHY25fb2nv6Znf9StgS9dmJYf7SnvnzNXPFzLncmZGS2vj8T295mIipPGiLA/pXqK0EGk8P81H6s/MDpOuzUI+yLm1IdIzTOH4hcwyYIEMkIaoGNBBAPLkCUAWPydrqhFWhmiFWJCUnEVnIjeMT2cLuebz6daW1jYATN3Xmc/hLW36HkK0a3O+vIMAuLhOTk62zfn8hwA4OQYA8fGczwg5I9leAK6UciXi7Bnf9F3CACKQA1SgAjSBLjACZsAa2ANn4A68gB8IBuEgBiwBXJAM0pHKl4NVYD0oAEVgK9gBKsA+cBAcBsfACdAM2sAFcBlcB92gDzwE/WAIvARj4D2YgCAIB5EhCqQCaUH6kClkDTEgV8gLCoBCoRgoHkqChJAEWgVtgIqgEqgCOgDVQr9Ap6EL0FWoB7oPDUAj0BvoM4yCSTAV1oANYAuYATNhfzgcXgwnwcvgXDgf3gyXw1XwUbgJvgBfh/vgfvglPI4CKBkUDaWNMkMxUCxUMCoWlYgSo9agClFlqCpUPaoV1Ym6hepHjaI+obFoCpqONkM7o33REWguehl6DboYXYE+jG5Cd6BvoQfQY+hvGDJGHWOKccKwMdGYJMxyTAGmDFONacRcwvRhhjDvsVgsDWuIdcD6YmOwKdiV2GLsHmwD9jy2BzuIHcfhcCo4U5wLLhjHwWXhCnC7cEdx53C9uCHcR7wMXgtvjffGx+KF+Dx8Gf4I/iy+Fz+MnyDIE/QJToRgAo+wgrCFcIjQSrhJGCJMEBWIhkQXYjgxhbieWE6sJ14iPiK+lZGR0ZFxlFkoI5BZJ1Muc1zmisyAzCeSIsmExCLFkSSkzaQa0nnSfdJbMplsQHYnx5KzyJvJteSL5Cfkj7IUWXNZtixPdq1spWyTbK/sKzmCnL4cU26JXK5cmdxJuZtyo/IEeQN5ljxHfo18pfxp+bvy4woUBSuFYIV0hWKFIwpXFZ4r4hQNFL0UeYr5igcVLyoOUlAUXQqLwqVsoByiXKIMUbFUQyqbmkItoh6jdlHHlBSVbJUilXKUKpXOKPXTUDQDGpuWRttCO0G7Q/s8T2Mecx5/3qZ59fN6531QVlN2V+YrFyo3KPcpf1ahq3ippKpsU2lWeayKVjVRXai6XHWv6iXVUTWqmrMaV61Q7YTaA3VY3UQ9VH2l+kH1G+rjGpoaPhoijV0aFzVGNWma7popmqWaZzVHtCharloCrVKtc1ov6Ep0Jj2NXk7voI9pq2v7aku0D2h3aU/oGOpE6OTpNOg81iXqMnQTdUt123XH9LT0AvVW6dXpPdAn6DP0k/V36nfqfzAwNIgy2GjQbPDcUNmQbZhrWGf4yIhs5Ga0zKjK6LYx1phhnGq8x7jbBDaxM0k2qTS5aQqb2psKTPeY9szHzHecL5xfNf+uGcmMaZZtVmc2YE4zDzDPM282f2WhZxFrsc2i0+KbpZ1lmuUhy4dWilZ+VnlWrVZvrE2sudaV1rdtyDbeNmttWmxe25ra8m332t6zo9gF2m20a7f7au9gL7avtx9x0HOId9jtcJdBZYQwihlXHDGOHo5rHdscPznZO2U5nXD6y9nMOdX5iPPzBYYL+AsOLRh00XHhuBxw6Xelu8a77nftd9N247hVuT1113XnuVe7DzONmSnMo8xXHpYeYo9Gjw8sJ9Zq1nlPlKePZ6Fnl5eiV4RXhdcTbx3vJO867zEfO5+VPud9Mb7+vtt877I12Fx2LXvMz8FvtV+HP8k/zL/C/2mASYA4oDUQDvQL3B74KEg/SBjUHAyC2cHbgx+HGIYsC/l1IXZhyMLKhc9CrUJXhXaGUcKWhh0Jex/uEb4l/GGEUYQkoj1SLjIusjbyQ5RnVElUf7RF9Oro6zGqMYKYllhcbGRsdez4Iq9FOxYNxdnFFcTdWWy4OGfx1SWqS9KWnFkqt5Sz9GQ8Jj4q/kj8F04wp4oznsBO2J0wxmVxd3Jf8tx5pbwRvgu/hD+c6JJYkvg8ySVpe9JIsltyWfKogCWoELxO8U3Zl/IhNTi1JnUyLSqtIR2fHp9+WqgoTBV2ZGhm5GT0iExFBaL+ZU7LdiwbE/uLqzOhzMWZLVlUZDC6ITGS/CAZyHbNrsz+uDxy+ckchRxhzo0VJis2rRjO9c79eSV6JXdl+yrtVetXDaxmrj6wBlqTsKZ9re7a/LVD63zWHV5PXJ+6/rc8y7ySvHcboja05mvkr8sf/MHnh7oC2QJxwd2Nzhv3/Yj+UfBj1yabTbs2fSvkFV4rsiwqK/pSzC2+9pPVT+U/TW5O3Ny1xX7L3q3YrcKtd7a5bTtcolCSWzK4PXB7Uym9tLD03Y6lO66W2Zbt20ncKdnZXx5Q3rJLb9fWXV8qkiv6Kj0qG3ar7960+8Me3p7eve576/dp7Cva93m/YP+9Az4HmqoMqsoOYg9mH3x2KPJQ58+Mn2urVauLqr/WCGv6D4ce7qh1qK09on5kSx1cJ6kbORp3tPuY57GWerP6Aw20hqLj4Ljk+Itf4n+5c8L/RPtJxsn6U/qndjdSGguboKYVTWPNyc39LTEtPaf9Tre3Orc2/mr+a02bdlvlGaUzW84Sz+afnTyXe278vOj86IWkC4PtS9sfXoy+eLtjYUfXJf9LVy57X77Yyew8d8XlSttVp6unrzGuNV+3v950w+5G4292vzV22Xc13XS42dLt2N3as6DnbK9b74Vbnrcu32bfvt4X1NdzJ+LOvbtxd/vv8e49v592//WD7AcTD9c9wjwqfCz/uOyJ+pOq341/b+i37z8z4Dlw42nY04eD3MGXf2T+8WUo/xn5Wdmw1nDtc+vnbSPeI90vFr0Yeil6OTFa8KfCn7tfGb069Zf7XzfGoseGXotfT74pfqvytuad7bv28ZDxJ+/T3098KPyo8vHwJ8anzs9Rn4cnln/BfSn/avy19Zv/t0eT6ZOTIo6YMz0KoBCFExMBeFMDADkGAEo3Mj8smpmnpwWa+QeYJvCfeGbmnhZ7AOoRMzUWsc4DcBxRA0TJiE6NROHuALaxkers7Ds9p08JFvlj2W87Rb20nHXgHzIzw39X9z8tmMo6vfxv9l8BhAf7uiw5BAAABdRlWElmTU0AKgAAAAgABgEGAAMAAAABAAIAAAESAAMAAAABAAEAAAEaAAUAAAABAAAAVgEbAAUAAAABAAAAXgEoAAMAAAABAAIAAIdpAAQAAAABAAAAZgAAAAAAAACQAAAAAQAAAJAAAAABAAOShgAHAAAFRAAAAJCgAgAEAAAAAQAAACagAwAEAAAAAQAAACIAAAAAQVNDSUkAAABBQUFFMkhqYWJWTmRiQlJWRkQ1MzdnSnRvZDFweTA4cGY0UGRhaEhCTFZTcGl6L2RVZ29WdWxCbXQ5MytMT3ZkCjJidmJvYk16Njh5ZHdySnBjaDhNR0tNUFBxRThxRzFqdE1iVW55Z3hKbXFNQlluUlJ0dEdUWXdhbm5neFB2aGkKRERIeHp1NEcwVEEza3pubjNIUHUrYzUzdjBubERkMWh3ZUFLa3JCdjFlbzFOZkhBSkxVZDNUS0hBOFRXeG5YaApSUVBNeXNjRFZ1b00xWmpUQU9qQ2EwblpIMUdQMFFKTmh5dEozMVZWUjIzTFloeTlJKzljdTY3MTN2dmFkdDIvCis0RTlleDk4Nk9DalhUMVBIaHM0TlRKNm10RE1tVnlldWJHQTZSckdjbTJkWDI0T0RFWFV2Uk8wNEl5SWI2WEoKWUVBemlPUE0xVGMwcnQrd2NWUFRaaTV4ekgxOEZWL04xL0FxWHMxcjVyWnMzYlo5aDdMem5oYStscS9qZGR6UAo2M2t6MzhLMzhlMWNpYWVJUXczZHBESE5NaXc3bXJQU05NWjBadEI0M3FZa2x6Sm9Ja2V5cHA3Uk5jTEV1TkUwCllWU01sU0xhUk5hMlhETjl5Q3NjY1N6WDFtaVVubU10VUhtV2crMytmZnM3WWhIMTFKSHVzWWhhU2xUelJLTzkKUVVVc2tCR3ZYWHI0UU9jakkrVXhUSktqOGJKSm5hRkt3VXhuS0I1UlQ1VG1sWDFML3NjZWYySllFT0F3V3plegpYRDRwRGdoM2wzanVkeGtSZU5YU3ptejRrRmRYZHBZUCszdVBITzI3N1Fzd1lTYXNsTXVvd3h2NFp0NllsSmZHCjBwYm01cWpKU2doRzI0TjVsaWdTbSttYVFhZHF4bHlIQ3V3VEpFdEhoZWxoZFJMRkVtdFRTcXVJcEpXTVpZdlgKWkVvcGVtZEZrZVFjcDVCTGljd2NZZVBPLy9lODROMzJSbDJXNlV3VWRUTXZrSnBhdVZIR05SUm1LYXlRcDBwYQp0d1V2UmtFWVJMTjFnVlhSeG9sTk5DYlVXZU1KNTNqazVIUS9Yejk5Z20vZ1RZTVJ0VmNBWEZHak1mL2dVSHhZCitLcCtuZ3BpTXIwR3lUckNqNGpCV3JyYXlsY295M3dqM3pUWWI1bEVzd1RUWTRuS0NUTmpJZUVtbnhKTTl1aWEKSnd4aUYyYVNYakNsSmVXR093aE9sem1mU1lmdUdtL3A2aTczV3NyNngzVlA0MHdYQ01JTDEzekJiK1puK1ZaeAo1SVFoMnZZSTRjMU1oRHhWbWZzN2V0c1ZzWURYZW5mNzlORSt2c083eFFGWFpFK2VUY3FOdCtYd0w3elp5V1FJCnFxQWVtaUVBdTJBZkhJQStPQTREb01KWm1JSm40SG00QksvQW0vQVd2QTN6OEM2OER4L0FGZmdJUG9ZRnVBYlgKNFN2NEdoYmhXMWlDRmZnZWZvUWJjQk4rZ3ovZ0ZxcEdkVWhCdTFFSE9vakNLSUppYUFnTm85TklSelk2ajZiUQpCZlFzZWdGZFFpK2p5K2hWOUI3NkVIMktycUpGOUJQNkdmMktia2hYcEUra3o2VFBwUytrcTlLWDBxTDBnL1NMCmRGUDZYZnBUK2t1NkpmMk5mYmdheTdnUk4rRlczSWIzNEc1OEdJOWdEWS9qUEM3Z0l1YjRJbjRPdjRoZndwZngKTko3RnIrTTM4QnlleHd0bGFpVlUrU1hQd1g4ZWZQMGYzWnVRT0E9PRrZ8zAAAAAJcEhZcwAAFiUAABYlAUlSJPAAAAjTaVRYdFhNTDpjb20uYWRvYmUueG1wAAAAAAA8eDp4bXBtZXRhIHhtbG5zOng9ImFkb2JlOm5zOm1ldGEvIiB4OnhtcHRrPSJYTVAgQ29yZSA2LjAuMCI+CiAgIDxyZGY6UkRGIHhtbG5zOnJkZj0iaHR0cDovL3d3dy53My5vcmcvMTk5OS8wMi8yMi1yZGYtc3ludGF4LW5zIyI+CiAgICAgIDxyZGY6RGVzY3JpcHRpb24gcmRmOmFib3V0PSIiCiAgICAgICAgICAgIHhtbG5zOnRpZmY9Imh0dHA6Ly9ucy5hZG9iZS5jb20vdGlmZi8xLjAvIgogICAgICAgICAgICB4bWxuczpleGlmPSJodHRwOi8vbnMuYWRvYmUuY29tL2V4aWYvMS4wLyI+CiAgICAgICAgIDx0aWZmOkNvbXByZXNzaW9uPjE8L3RpZmY6Q29tcHJlc3Npb24+CiAgICAgICAgIDx0aWZmOlJlc29sdXRpb25Vbml0PjI8L3RpZmY6UmVzb2x1dGlvblVuaXQ+CiAgICAgICAgIDx0aWZmOlhSZXNvbHV0aW9uPjE0NDwvdGlmZjpYUmVzb2x1dGlvbj4KICAgICAgICAgPHRpZmY6WVJlc29sdXRpb24+MTQ0PC90aWZmOllSZXNvbHV0aW9uPgogICAgICAgICA8dGlmZjpQaG90b21ldHJpY0ludGVycHJldGF0aW9uPjI8L3RpZmY6UGhvdG9tZXRyaWNJbnRlcnByZXRhdGlvbj4KICAgICAgICAgPHRpZmY6T3JpZW50YXRpb24+MTwvdGlmZjpPcmllbnRhdGlvbj4KICAgICAgICAgPGV4aWY6UGl4ZWxYRGltZW5zaW9uPjM4PC9leGlmOlBpeGVsWERpbWVuc2lvbj4KICAgICAgICAgPGV4aWY6VXNlckNvbW1lbnQ+QUFBRTJIamFiVk5kYkJSVkZENTM3Z0p0b2QxcHkwOHBmNFBkYWhIQkxWU3Bpei9kVWdvVnVsQm10OTMrTE92ZCYjeEE7MmJ2Ym9iTXo2OHlkd3JKcGNoOE1HS01QUHFFOHFHMWp0TWJVbnlneEptcU1CWW5SUnR0R1RZd2Fubmd4UHZoaSYjeEE7RERIeHp1NEcwVEEza3pubjNIUHUrYzUzdjBubERkMWh3ZUFLa3JCdjFlbzFOZkhBSkxVZDNUS0hBOFRXeG5YaCYjeEE7UlFQTXlzY0RWdW9NMVpqVEFPakNhMG5aSDFHUDBRSk5oeXRKMzFWVlIyM0xZaHk5SSs5Y3U2NzEzdnZhZHQyLyYjeEE7KzRFOWV4OTg2T0NqWFQxUEhoczROVEo2bXRETW1WeWV1YkdBNlJyR2NtMmRYMjRPREVYVXZSTzA0SXlJYjZYSiYjeEE7WUVBemlPUE0xVGMwcnQrd2NWUFRaaTV4ekgxOEZWL04xL0FxWHMxcjVyWnMzYlo5aDdMem5oYStscS9qZGR6UCYjeEE7NjNrejM4SzM4ZTFjaWFlSVF3M2RwREhOTWl3N21yUFNOTVowWnRCNDNxWWtsekpvSWtleXBwN1JOY0xFdU5FMCYjeEE7WVZTTWxTTGFSTmEyWEROOXlDc2NjU3pYMW1pVW5tTXRVSG1XZyszK2ZmczdZaEgxMUpIdXNZaGFTbFR6UktPOSYjeEE7UVVVc2tCR3ZYWHI0UU9jakkrVXhUSktqOGJKSm5hRkt3VXhuS0I1UlQ1VG1sWDFML3NjZWYySllFT0F3V3pleiYjeEE7WEQ0cERnaDNsM2p1ZHhrUmVOWFN6bXo0a0ZkWGRwWVArM3VQSE8yNzdRc3dZU2FzbE11b3d4djRadDZZbEpmRyYjeEE7MHBibTVxakpTZ2hHMjRONWxpZ1NtK21hUWFkcXhseUhDdXdUSkV0SGhlbGhkUkxGRW10VFNxdUlwSldNWll2WCYjeEE7WkVvcGVtZEZrZVFjcDVCTGljd2NZZVBPLy9lODROMzJSbDJXNlV3VWRUTXZrSnBhdVZIR05SUm1LYXlRcDBwYSYjeEE7dHdVdlJrRVlSTE4xZ1ZYUnhvbE5OQ2JVV2VNSjUzams1SFEvWHo5OWdtL2dUWU1SdFZjQVhGR2pNZi9nVUh4WSYjeEE7K0twK25ncGlNcjBHeVRyQ2o0akJXcnJheWxjb3kzd2ozelRZYjVsRXN3VFRZNG5LQ1ROakllRW1ueEpNOXVpYSYjeEE7Snd4aUYyYVNYakNsSmVXR093aE9sem1mU1lmdUdtL3A2aTczV3NyNngzVlA0MHdYQ01JTDEzekJiK1puK1ZaeCYjeEE7NUlRaDJ2WUk0YzFNaER4Vm1mczdldHNWc1lEWGVuZjc5TkUrdnNPN3hRRlhaRStlVGNxTnQrWHdMN3paeVdRSSYjeEE7cXFBZW1pRUF1MkFmSElBK09BNERvTUpabUlKbjRIbTRCSy9BbS9BV3ZBM3o4QzY4RHgvQUZmZ0lQb1lGdUFiWCYjeEE7NFN2NEdoYmhXMWlDRmZnZWZvUWJjQk4rZ3ovZ0ZxcEdkVWhCdTFFSE9vakNLSUppYUFnTm85TklSelk2ajZiUSYjeEE7QmZRc2VnRmRRaStqeStoVjlCNzZFSDJLcnFKRjlCUDZHZjJLYmtoWHBFK2t6NlRQcFMra3E5S1gwcUwwZy9TTCYjeEE7ZEZQNlhmcFQra3U2SmYyTmZiZ2F5N2dSTitGVzNJYjM0RzU4R0k5Z0RZL2pQQzdnSXViNEluNE92NGhmd3BmeCYjeEE7Tko3RnIrTTM4QnlleHd0bGFpVlUrU1hQd1g4ZWZQMGYzWnVRT0E9PTwvZXhpZjpVc2VyQ29tbWVudD4KICAgICAgICAgPGV4aWY6UGl4ZWxZRGltZW5zaW9uPjM0PC9leGlmOlBpeGVsWURpbWVuc2lvbj4KICAgICAgPC9yZGY6RGVzY3JpcHRpb24+CiAgIDwvcmRmOlJERj4KPC94OnhtcG1ldGE+CgggJJIAAAUgSURBVGgF1VpNbFRVFJ5a/jFaE7QgCE8U6cZYwR9ACK8JSIMkYFwYwqa6cWldmYBmJsGfGDW60gSMU6ML2CjEGiVRZiRBoCYYF/4BcYo2VZT6hzYihafxOx/1ncztPffNG42zeGfOOd/5zrl37r3vvvumtdDQp7UV4R2LIW9fCSnmwshIQ/T//+D22WhDuQw5mkAmDnm6Bv9uwbe1Qf+vrtd3IPPDvZBbS5C3LYPM7bp+E6h+cnQMO+ycx/9RBTxXzsqtNBPRCumQXx31jYmdOBNpPdDaGNbfVaLzom8vwt8hv9ykSdBfK0OyI7X8tAb/5MmQzb6+V5m4HtZXLGWs5Jp5CPw5SSf6RfQNMuJc9ByRLMQl7/XwuPitdi4hrvza/qBMVTf/JfVdO1+F/TLlvv9uGPr3KIdSpyndpXZtdHnysXd1h/EMHA7DFzhydM/vkSFtpXukBKTm0fpbgbzW/MTtKNvq4M1ryhRGGuWANIANO5MgcK5MUSNNYa/iIZ+Wr0uDrLyhuBM1ROi8Wq9KvWb+5XIX0UQvBTaI2wZ9k9C81J8qmksMAnINZh6ffMxch6xh9z1Qv56+V+rbXdZ7ZBGf6gIo+5GPlSEntWtNGFH1/TB84VQNAfwlOJQDaQoc2uRxSe7nps8IzWDDvywzw5Wfds6Eada7FNOTgPLREj02uSAC7kICSR6XfEEaZGMPR9XUAHDVUamEc/8dwZ7mPuvqwEWejxiuwrT9jrwfRaTd/OF0PpdeKmXssKmy6GTdeX9m/EW/ElxLS8ZCPWE9PQC4Okjb18QewrzdSzvDCnymmHcFab6+sq2eswlwM5q0hqar+of2pHSA/uVc+i1Nmoos6WQN31z5aT9QYcS/LI8ZCzwuuGaVF0VgZof4ZOaH7ILjWdLXsBtlKi6SQn343X0+RGP+OA6L318Nw4+jM3bYRtmgjhNN/G3X3on9jXrj1TaGUYEd+cCGzw31rqwBvqH/RZOnIhtk3Xe9I3UzLlwGjjBuO5bFtlTVqg2XFTU/QiTXMB/P/oZHemCH3bwUJc30VSb+A6HPaEZewlbH/GaTlcDzrt5e8HI3wAFjy/YXanMPoL6pSP+8wCcGcyEC3Fm21fNbAhyP0H15FnXU510ZB46wOW2+VPD/OAg5NGTDZ0Wtim2RA1XgxsZs+O7u+rjjnwd2WPvl9Ym0dVgbctavmg3CxZGN+GDVhiPqTnV0fmwQnlPfBnbYWTJ65LAk8MAyu+PAJ4ZDxnM3HlHHcbq08X1bYId9eTJN5NLOuRwN2rnobn0ujOiocbHfsB68lyr6/qx3V96VuKi75IcVlTEn9XnjIs+6RmphifulbsbzxW/mg06e2ZOIxFryDfisnN5wb+lBw3Uen85jJ1+3zY+A4Btw8vIvEb54r//ZIiAkdknuY7yECsDzMh7w6ZNc/mfDlZf2Ic8IY559amQxvuG/DrBdc+Qu9b0UxARa/pEg4i7jsyff9uipQV6+e+DD/9NF8NPvkks6WXlaPiQbUx33pnRgGp2DxsK/83Qcp+hBKYQHiU9Ig98W+/kERekG8HhoYZQumi8vjkq8jqM+XEPc40VIvg+ln5Lt4FF3OluO2rURyPgnFFfDWZhP8q3SthJ4Z+rbFswXr1fIhvqNMkw+fu3n1O10jMSLiQot41/z/HZdBLZ1myCX3wTZLnb+Z+ObQdg/oZRty75+2H84DRl6vVX2aZvXIfKGGJL3oK8HoR+W/dmLO6CP8vwHap3rnw9NrtZXWLL+AAAAAElFTkSuQmCC;" parent="1" vertex="1">
          <mxGeometry x="234" y="696" width="7.85" height="7.02" as="geometry" />
        </mxCell>
        <mxCell id="hdwB_MQwIhiL4xS-3u5l-81" value="" style="shape=image;verticalLabelPosition=bottom;labelBackgroundColor=default;verticalAlign=top;aspect=fixed;imageAspect=0;image=data:image/png,iVBORw0KGgoAAAANSUhEUgAAAQYAAABKEAYAAAAJSCbcAAAKqGlDQ1BJQ0MgUHJvZmlsZQAASImVlwdQU+kWgP9700NCS4h0Qm/SWwApIbTQpYOohCRAKCEGgogdWVyBtSAighVdEFFwVYosNkSxLQKKXRdkEVHWxYINlXeBIbj75r0378ycOd899/znP+ef+8+cCwBZniMSpcHyAKQLs8ShPh706JhYOm4YQEANEAAJQBxupogZEhIAEJm1f5f3d5BoRG6ZTeX69/f/VRR4/EwuAFAIwgm8TG46wqcQfcEVibMAQO1H/LrLs0RT3IEwVYwUiPC9KU6a4dEpTphmNJiOCQ9lIUwFAE/icMRJAJDoiJ+ezU1C8pDcEbYU8gRChEUIu6anZ/AQPo6wERKD+EhT+RkJ3+VJ+lvOBGlODidJyjO9TAveU5ApSuOs+D+P439Leppkdg8DREnJYt9QxCoiZ3YvNcNfysKEoOBZFvCm46c5WeIbMcvcTFbsLPM4nv7StWlBAbOcKPBmS/NkscNnmZ/pFTbL4oxQ6V6JYhZzljniuX0lqRFSfzKfLc2fmxweNcvZgsigWc5MDfOfi2FJ/WJJqLR+vtDHY25fb2nv6Znf9StgS9dmJYf7SnvnzNXPFzLncmZGS2vj8T295mIipPGiLA/pXqK0EGk8P81H6s/MDpOuzUI+yLm1IdIzTOH4hcwyYIEMkIaoGNBBAPLkCUAWPydrqhFWhmiFWJCUnEVnIjeMT2cLuebz6daW1jYATN3Xmc/hLW36HkK0a3O+vIMAuLhOTk62zfn8hwA4OQYA8fGczwg5I9leAK6UciXi7Bnf9F3CACKQA1SgAjSBLjACZsAa2ANn4A68gB8IBuEgBiwBXJAM0pHKl4NVYD0oAEVgK9gBKsA+cBAcBsfACdAM2sAFcBlcB92gDzwE/WAIvARj4D2YgCAIB5EhCqQCaUH6kClkDTEgV8gLCoBCoRgoHkqChJAEWgVtgIqgEqgCOgDVQr9Ap6EL0FWoB7oPDUAj0BvoM4yCSTAV1oANYAuYATNhfzgcXgwnwcvgXDgf3gyXw1XwUbgJvgBfh/vgfvglPI4CKBkUDaWNMkMxUCxUMCoWlYgSo9agClFlqCpUPaoV1Ym6hepHjaI+obFoCpqONkM7o33REWguehl6DboYXYE+jG5Cd6BvoQfQY+hvGDJGHWOKccKwMdGYJMxyTAGmDFONacRcwvRhhjDvsVgsDWuIdcD6YmOwKdiV2GLsHmwD9jy2BzuIHcfhcCo4U5wLLhjHwWXhCnC7cEdx53C9uCHcR7wMXgtvjffGx+KF+Dx8Gf4I/iy+Fz+MnyDIE/QJToRgAo+wgrCFcIjQSrhJGCJMEBWIhkQXYjgxhbieWE6sJ14iPiK+lZGR0ZFxlFkoI5BZJ1Muc1zmisyAzCeSIsmExCLFkSSkzaQa0nnSfdJbMplsQHYnx5KzyJvJteSL5Cfkj7IUWXNZtixPdq1spWyTbK/sKzmCnL4cU26JXK5cmdxJuZtyo/IEeQN5ljxHfo18pfxp+bvy4woUBSuFYIV0hWKFIwpXFZ4r4hQNFL0UeYr5igcVLyoOUlAUXQqLwqVsoByiXKIMUbFUQyqbmkItoh6jdlHHlBSVbJUilXKUKpXOKPXTUDQDGpuWRttCO0G7Q/s8T2Mecx5/3qZ59fN6531QVlN2V+YrFyo3KPcpf1ahq3ippKpsU2lWeayKVjVRXai6XHWv6iXVUTWqmrMaV61Q7YTaA3VY3UQ9VH2l+kH1G+rjGpoaPhoijV0aFzVGNWma7popmqWaZzVHtCharloCrVKtc1ov6Ep0Jj2NXk7voI9pq2v7aku0D2h3aU/oGOpE6OTpNOg81iXqMnQTdUt123XH9LT0AvVW6dXpPdAn6DP0k/V36nfqfzAwNIgy2GjQbPDcUNmQbZhrWGf4yIhs5Ga0zKjK6LYx1phhnGq8x7jbBDaxM0k2qTS5aQqb2psKTPeY9szHzHecL5xfNf+uGcmMaZZtVmc2YE4zDzDPM282f2WhZxFrsc2i0+KbpZ1lmuUhy4dWilZ+VnlWrVZvrE2sudaV1rdtyDbeNmttWmxe25ra8m332t6zo9gF2m20a7f7au9gL7avtx9x0HOId9jtcJdBZYQwihlXHDGOHo5rHdscPznZO2U5nXD6y9nMOdX5iPPzBYYL+AsOLRh00XHhuBxw6Xelu8a77nftd9N247hVuT1113XnuVe7DzONmSnMo8xXHpYeYo9Gjw8sJ9Zq1nlPlKePZ6Fnl5eiV4RXhdcTbx3vJO867zEfO5+VPud9Mb7+vtt877I12Fx2LXvMz8FvtV+HP8k/zL/C/2mASYA4oDUQDvQL3B74KEg/SBjUHAyC2cHbgx+HGIYsC/l1IXZhyMLKhc9CrUJXhXaGUcKWhh0Jex/uEb4l/GGEUYQkoj1SLjIusjbyQ5RnVElUf7RF9Oro6zGqMYKYllhcbGRsdez4Iq9FOxYNxdnFFcTdWWy4OGfx1SWqS9KWnFkqt5Sz9GQ8Jj4q/kj8F04wp4oznsBO2J0wxmVxd3Jf8tx5pbwRvgu/hD+c6JJYkvg8ySVpe9JIsltyWfKogCWoELxO8U3Zl/IhNTi1JnUyLSqtIR2fHp9+WqgoTBV2ZGhm5GT0iExFBaL+ZU7LdiwbE/uLqzOhzMWZLVlUZDC6ITGS/CAZyHbNrsz+uDxy+ckchRxhzo0VJis2rRjO9c79eSV6JXdl+yrtVetXDaxmrj6wBlqTsKZ9re7a/LVD63zWHV5PXJ+6/rc8y7ySvHcboja05mvkr8sf/MHnh7oC2QJxwd2Nzhv3/Yj+UfBj1yabTbs2fSvkFV4rsiwqK/pSzC2+9pPVT+U/TW5O3Ny1xX7L3q3YrcKtd7a5bTtcolCSWzK4PXB7Uym9tLD03Y6lO66W2Zbt20ncKdnZXx5Q3rJLb9fWXV8qkiv6Kj0qG3ar7960+8Me3p7eve576/dp7Cva93m/YP+9Az4HmqoMqsoOYg9mH3x2KPJQ58+Mn2urVauLqr/WCGv6D4ce7qh1qK09on5kSx1cJ6kbORp3tPuY57GWerP6Aw20hqLj4Ljk+Itf4n+5c8L/RPtJxsn6U/qndjdSGguboKYVTWPNyc39LTEtPaf9Tre3Orc2/mr+a02bdlvlGaUzW84Sz+afnTyXe278vOj86IWkC4PtS9sfXoy+eLtjYUfXJf9LVy57X77Yyew8d8XlSttVp6unrzGuNV+3v950w+5G4292vzV22Xc13XS42dLt2N3as6DnbK9b74Vbnrcu32bfvt4X1NdzJ+LOvbtxd/vv8e49v592//WD7AcTD9c9wjwqfCz/uOyJ+pOq341/b+i37z8z4Dlw42nY04eD3MGXf2T+8WUo/xn5Wdmw1nDtc+vnbSPeI90vFr0Yeil6OTFa8KfCn7tfGb069Zf7XzfGoseGXotfT74pfqvytuad7bv28ZDxJ+/T3098KPyo8vHwJ8anzs9Rn4cnln/BfSn/avy19Zv/t0eT6ZOTIo6YMz0KoBCFExMBeFMDADkGAEo3Mj8smpmnpwWa+QeYJvCfeGbmnhZ7AOoRMzUWsc4DcBxRA0TJiE6NROHuALaxkers7Ds9p08JFvlj2W87Rb20nHXgHzIzw39X9z8tmMo6vfxv9l8BhAf7uiw5BAAABehlWElmTU0AKgAAAAgABgEGAAMAAAABAAIAAAESAAMAAAABAAEAAAEaAAUAAAABAAAAVgEbAAUAAAABAAAAXgEoAAMAAAABAAIAAIdpAAQAAAABAAAAZgAAAAAAAACQAAAAAQAAAJAAAAABAAOShgAHAAAFWAAAAJCgAgAEAAAAAQAAAQagAwAEAAAAAQAAAEoAAAAAQVNDSUkAAABBQUFFNjNqYWJWTmRiQlJWRkQ1M2JpbHRvZDFweTA4cGY0UGRhaXNXMjFLbEZuKzZwUlFxZFBtWjNYYmI3ckxlCm5iMjdPK3pzekRwenQ3QnNtOXdIZzhiSUEwOG9EMnJiR01VWS82TEVHSDlDQkRScUdtMGJJU0ZxZU9MRitPQ0wKTWNURU83c2JSTVBjVE9hY2MrODU1enZmL1NhV05YU0hkWFl1SXdsWHJLaGNXUlB5VGxIYjBTMXozRXRzTGFVTApMK0JsVmpia3RXTEhxY2FjQmtDblg0L0tIcjk2Z09acDNGYys5R05WZGNDMkxNYlJlL0syVmF0YjczK2dyZjNCCjdROTE3SGo0a2QyUDl3OCtmZURJMFluSlk0UW1qbWV5TEJmMG1qbkRXS3F0ODhqTjNqRy91aU5OODg2RStKYWIKakhvMWd6ak9oZnFHeGpWcjE2MXYyc0Fsam5rRlg4RXIrVXBleGF0NXpZV05telp2MmFwc3U2K0ZyK0tyZVIzMwo4SHJlekRmeXpYd0xWMEl4NGxCRE4ybFFzd3pMRG1Tc09BMHluUmswbExVcHljUU1Hc21RcEtrbmRJMHdNVzRnClRoZ1ZZOFdJbGs3YVZzNk03M0VUSnh3cloyczBRRSt5RmlnL1M1MWRudTZkUFVHL2VuVGZRTml2RmcrcVdhTFIKb1U1RkxKQVJyMTE4ZEZmdll4T2xNVXlTb2FHU1NaMnhjc0pjYjEvSXJ4NHF6aXRYTEhxZWVQS3BjVUdBdzJ6ZApUSEw1c0NqZ0d5anlQSkpqUk9CVml6dnp2ajF1WHNsWjJ1c1oycmQvK0k0dndQaVlzR0k1UmgzZXdEZnd4cWk4CkdJNWJXaTVEVFZaRU1OblZtV1dSQXJHWnJobDBwaWFjYzZqQW5pWkpPaWxNRjZzVEtSUlptMUZhUlNTdUpDeGIKdkNaVGl0RzdNd29rNHpqNVRFeWN6QkNXY3Y2LzV3YnZ0VGVaWTRuZVNFRTNzd0twcVpVYUpYS0d3aXlGNWJOVQppZXUyNE1YSUM0Tm90aTZ3S2xxSzJFUmpRcDAxcm5BTytnL1BqdkExczRmNFd0NDA2bGVIQk1CbE5SRDBqSTZGCnhvV3Y2cWVvSUNZeFpKQ2tJM3kvR0t5bHY2MTBoYkxNMS9IMW95T1dTVFJMTUIyT2xDdk1oZnVFRzMxR01EbW8KYTY0d2lKMmZpN3JCbUJhVkcrNGlPRjdpZkM3ZWQ4OTRTLzlBcWRkaTBwUFNYWTB6WFNEd1hiNWEyUjYvL2gzZgpKRXFtRGRGMlVBaHZMdDNucXNyYzJUUFVwWWdGdk5hOTIyZjNEL090cFZ0c21KNVd3aW5DQ3ZrWnBVUEpUMDlICnUwV0JxUk5SdWZHT1F2NUZQRDhWN1lNcXFJZG04RUk3ZE1NdUdJYURjQVJVT0FFejhCeThCT2ZnVlhnTDNvWjMKNEYxNEh6NkVqK0FpZkFLZndtVzRDdC9BdC9BOUxNQVBzQWpMOEJOY2g1dHdDMzZEUCtBMnFrWjFTRUhiVVEvYQpqWHpJajRKb0RJMmpZMGhITmpxRlp0QnA5QUk2Zzg2aFY5QjU5QnI2QUgyTXZrQlgwQUs2Z1g1R3Y2S2Iwa1hwCmMrbEw2WkwwbFhSRitscGFrSzVKdjBpM3BOK2xQNlcvcE52UzM3Z0NWMk1aTitJbTNJcmJjQWNld0h2eEJOWncKQ21keEhoY3d4OC9qRi9GWi9ESStqMmZ4UEg0RHY0ay93NWZ3dFJMYkVpci9wU2ZoUHcrKzhROGt4WmEwZJJWPgAAAAlwSFlzAAAWJQAAFiUBSVIk8AAACOhpVFh0WE1MOmNvbS5hZG9iZS54bXAAAAAAADx4OnhtcG1ldGEgeG1sbnM6eD0iYWRvYmU6bnM6bWV0YS8iIHg6eG1wdGs9IlhNUCBDb3JlIDYuMC4wIj4KICAgPHJkZjpSREYgeG1sbnM6cmRmPSJodHRwOi8vd3d3LnczLm9yZy8xOTk5LzAyLzIyLXJkZi1zeW50YXgtbnMjIj4KICAgICAgPHJkZjpEZXNjcmlwdGlvbiByZGY6YWJvdXQ9IiIKICAgICAgICAgICAgeG1sbnM6dGlmZj0iaHR0cDovL25zLmFkb2JlLmNvbS90aWZmLzEuMC8iCiAgICAgICAgICAgIHhtbG5zOmV4aWY9Imh0dHA6Ly9ucy5hZG9iZS5jb20vZXhpZi8xLjAvIj4KICAgICAgICAgPHRpZmY6Q29tcHJlc3Npb24+MTwvdGlmZjpDb21wcmVzc2lvbj4KICAgICAgICAgPHRpZmY6UmVzb2x1dGlvblVuaXQ+MjwvdGlmZjpSZXNvbHV0aW9uVW5pdD4KICAgICAgICAgPHRpZmY6WFJlc29sdXRpb24+MTQ0PC90aWZmOlhSZXNvbHV0aW9uPgogICAgICAgICA8dGlmZjpZUmVzb2x1dGlvbj4xNDQ8L3RpZmY6WVJlc29sdXRpb24+CiAgICAgICAgIDx0aWZmOlBob3RvbWV0cmljSW50ZXJwcmV0YXRpb24+MjwvdGlmZjpQaG90b21ldHJpY0ludGVycHJldGF0aW9uPgogICAgICAgICA8dGlmZjpPcmllbnRhdGlvbj4xPC90aWZmOk9yaWVudGF0aW9uPgogICAgICAgICA8ZXhpZjpQaXhlbFhEaW1lbnNpb24+MjYyPC9leGlmOlBpeGVsWERpbWVuc2lvbj4KICAgICAgICAgPGV4aWY6VXNlckNvbW1lbnQ+QUFBRTYzamFiVk5kYkJSVkZENTNiaWx0b2QxcHkwOHBmNFBkYWlzVzIxS2xGbis2cFJRcWRQbVozWGJiN3JMZSYjeEE7bmIyN08renN6RHB6dDdCc205d0hnOGJJQTA4b0QycmJHTVVZLzZMRUdIOUNCRFJxR20wYklTRnFlT0xGK09DTCYjeEE7TWNURU83c2JSTVBjVE9hY2MrODU1enZmL1NhV05YU0hkWFl1SXdsWHJLaGNXUlB5VGxIYjBTMXozRXRzTGFVTCYjeEE7TCtCbFZqYmt0V0xIcWNhY0JrQ25YNC9LSHI5NmdPWnAzRmMrOUdOVmRjQzJMTWJSZS9LMlZhdGI3MytncmYzQiYjeEE7N1E5MTdIajRrZDJQOXc4K2ZlREkwWW5KWTRRbWptZXlMQmYwbWpuRFdLcXQ4OGpOM2pHL3VpTk44ODZFK0phYiYjeEE7akhvMWd6ak9oZnFHeGpWcjE2MXYyc0Fsam5rRlg4RXIrVXBleGF0NXpZV05telp2MmFwc3U2K0ZyK0tyZVIzMyYjeEE7OEhyZXpEZnl6WHdMVjBJeDRsQkROMmxRc3d6TERtU3NPQTB5blJrMGxMVXB5Y1FNR3NtUXBLa25kSTB3TVc0ZyYjeEE7VGhnVlk4V0lsazdhVnM2TTczRVRKeHdyWjJzMFFFK3lGaWcvUzUxZG51NmRQVUcvZW5UZlFOaXZGZytxV2FMUiYjeEE7b1U1RkxKQVJyMTE4ZEZmdll4T2xNVXlTb2FHU1NaMnhjc0pjYjEvSXJ4NHF6aXRYTEhxZWVQS3BjVUdBdzJ6ZCYjeEE7VEhMNXNDamdHeWp5UEpKalJPQlZpenZ6dmoxdVhzbFoydXNaMnJkLytJNHZ3UGlZc0dJNVJoM2V3RGZ3eHFpOCYjeEE7R0k1YldpNURUVlpFTU5uVm1XV1JBckdacmhsMHBpYWNjNmpBbmlaSk9pbE1GNnNUS1JSWm0xRmFSU1N1SkN4YiYjeEE7dkNaVGl0RzdNd29rNHpqNVRFeWN6QkNXY3Y2LzV3YnZ0VGVaWTRuZVNFRTNzd0twcVpVYUpYS0d3aXlGNWJOVSYjeEE7aWV1MjRNWElDNE5vdGk2d0tscUsyRVJqUXAwMXJuQU8rZy9QanZBMXM0ZjRXdDQwNmxlSEJNQmxOUkQwakk2RiYjeEE7eG9XdjZxZW9JQ1l4WkpDa0kzeS9HS3lsdjYxMGhiTE0xL0gxb3lPV1NUUkxNQjJPbEN2TWhmdUVHMzFHTURtbyYjeEE7YTY0d2lKMmZpN3JCbUJhVkcrNGlPRjdpZkM3ZWQ4OTRTLzlBcWRkaTBwUFNYWTB6WFNEd1hiNWEyUjYvL2gzZiYjeEE7SkVxbURkRjJVQWh2THQzbnFzcmMyVFBVcFlnRnZOYTkyMmYzRC9PdHBWdHNtSjVXd2luQ0N2a1pwVVBKVDA5SCYjeEE7dTBXQnFSTlJ1ZkdPUXY1RlBEOFY3WU1xcUlkbThFSTdkTU11R0lhRGNBUlVPQUV6OEJ5OEJPZmdWWGdMM29aMyYjeEE7NEYxNEh6NkVqK0FpZkFLZndtVzRDdC9BdC9BOUxNQVBzQWpMOEJOY2g1dHdDMzZEUCtBMnFrWjFTRUhiVVEvYSYjeEE7alh6SWo0Sm9ESTJqWTBoSE5qcUZadEJwOUFJNmc4NmhWOUI1OUJyNkFIMk12a0JYMEFLNmdYNUd2NktiMGtYcCYjeEE7YytsTDZaTDBsWFJGK2xwYWtLNUp2MGkzcE4rbFA2Vy9wTnZTMzdnQ1YyTVpOK0ltM0lyYmNBY2V3SHZ4Qk5adyYjeEE7Q21keEhoY3d4OC9qRi9GWi9ESStqMmZ4UEg0RHY0ay93NWZ3dFJMYkVpci9wU2ZoUHcrKzhROGt4WmEwPC9leGlmOlVzZXJDb21tZW50PgogICAgICAgICA8ZXhpZjpQaXhlbFlEaW1lbnNpb24+NzQ8L2V4aWY6UGl4ZWxZRGltZW5zaW9uPgogICAgICA8L3JkZjpEZXNjcmlwdGlvbj4KICAgPC9yZGY6UkRGPgo8L3g6eG1wbWV0YT4Kr2v84wAAEtNJREFUeAHtnXuUFMUVh0eRCIi8RCQq0ijCiiYggkKMoTESiEJ4JD7jYyCJGsk5QHLUcIyykpOIjxxBNHrUsEPU+DyiURDksSOcKI8YwCj4ZBuVKBEJRFAQcEPOvZfd7u3qrp7pma6Z+e0fc7vuvVV1+6upntrq6upUCn8gAAIgAAIgAAIgEEKgGdlbtSI5+jySVVUkN9SR3LePZFKfpseXFBfUCwIgAAKmEjD9um16fKa2a+q2KRRafb1b3lBtRsimx2cGJUQBAiAAAuYQMP26bXp85rSkRHIwHfS0ReGWPbu600mlTI8vKS6oFwRAAARMJWD6ddv0+MxrVx4wdFBE1sFSGIqsNj2+IuNAdSAAAiBgPAHTr9umx2deA/OAwbzAEFEQgdMHkPUkXmsS5AsbCIAACIAACORPAAOG/BkWsYQhNlX20iskl75A8pQ+JPEJAiAAAiAAAoUhgAFDYbjGXOrZNhX4bC3JFiRSHS06WDyHJGYcGAwECIAACIBAzAQwYIgZaLzFDbKpvOd4oNBSUXwniwyLecahB25VKEhBDQIgAAIgkBsBDBhy41bgXGfZVMFcHijwNhmhtX7dIpclPHA4gdOhGeEAAiAAAiAAAoEEMGAIxFNs47d4MeM8HigcpgjgoQwZ5mf9HY6xSL+Ey7E47e8NLQiAAAiAAAiEEcCAIYxQUexn8EDhBV7M2NpTaz2nJ99MB5ePJTn8HJIPZEh6P4+zSCMDhy7Hej2QBgEQAAEQAAEdAhgw6FAqmE9/Higs4IFCG09NX3L6Mh4gTKt2O8iW3VeyfQoPKNxeqVQ3izRLlpE8GgMHAoFPEAABEAABTQIYMGiCitetLz8G+eKjVG5bT/HbOT1sMB08kmFFiJhaTQ7jeACx1+Pf3SKFDBw6d/Y4IAkCIAACIAACvgQwYPDFUihlHx4oLOTHINtZ7po+cCj97VNJ1mZJRv2syVCOEaNJ7vAU0NMixWKe2Tiyo8cBSRAAARAAARBwEcCAwYWj0In5PFDwbrm91qGaB5xF8vU18UQy/xkqx+YByGbHXW4vi9I1T7r1SIEACIAACICAmwAGDG4eBU7dMcNdwcIspc/qTfJfH7rtcaVe5QHIQL7F8bZDJe/iCmbeHFdNKAcEQAAEQKA8CRxSnqdl6lndMZ0iW7ac5D9eJblnT3EirnOonoH9SR7FtyLWv1mc+lELCIAACIBAqRLAgCGRllvBA4ZEKt9f6dYtVLPIpOJAvSAAAiAAAqVCALckSqWlECcIgAAIgAAIJEgAA4YE4aNqEAABEAABECgVAhgwlEpLIU4QAAEQAAEQSJAABgwJwkfVIAACIAACIFAqBLDoMdaWataMiutxIsnj+TXT7/FTCG+9Rfp6eTlErLWjMBAAgWIQQD8vBmXUYR4BDBjyapOjOlP2abeQvDBNsiWJJp+fOqRanCV51SSS27aRLPbn8RbVOGIUyZbtSL7wDMm1a0jiEwQqmQD6eSW3Ps69CYFl/Bpk+c9X5POsb5KhyArT4juXf2C38UyB8PLK3SH21cy32Fszn2NTA+5QxLeL9SfzDEmRmxvVgYARBNDP82sG067b3rMxPT5vvMmnsYYhUhsMscn9ad7iuS3n/orl76vpoHs3kq14BufPGUp7P/vYpHlpFcnmzb0ehUlnaqjcwxTFH8r6wcMUDlCDQBkTQD8v48bFqeVBAAMGLXhd+HXQT/GMgPygbnMo+7m85fINvMXye6yX108//mxwNSdZZB9zXrBfvlaZMTiG6wsrb1+YA+wgUEYE0M/LqDFxKgUggAGDFtQHHiK3Nh7va3iAsCDrMXiSLTxpVXLwSJUlHv2giDMGq5bHUy9KAYFSIIB+XgqthBiTI4ABQyD74bxWYajtdnsmQ+lHWbqtTVNVfZrq/DRdLD9tfLrv8Euuwkrczg6r+VZJmD/sIFDKBNDPS7n1EHvxCGDAEMj6pglu8w5OXj3ZrQ9LnT4ozIPsux09v1y9Btl6OZdlyU9uqejlghcIlCYB9PPSbDdEXWwCGDD4Eh84gNT9bbe5JkPpzR+79apUG76H4Z2hUPm/66gs+emrqih/Z0uvnNqQNRd6pcALBMwmgH5udvsgOtMIYMDg2yJjr/JVp+6+1V+v0o4cQ5YWKgeP/u9rPYqYkvawaAVls9H84Q0CpUgA/bwUWw0xJ0cAGze52B/MA6iRtkudWp2l9Nu8Y6Pbqk5deoXa1tiykxNzFzXWxndsa65dkKc+1rwWX90oCQRMI4B+Ti2Cfm7aN9Mdj+woOnQE6b/Hi+JPsyjdiWV7Sqa2snQcOqgTyf+IzplP+nci/o5Rrv9/YsDQwGL/UVUPSkpDiPHJl+RITx7Nj2HKBklhuZ7IkMdOWSQRliGiXXvtgkMFfyUbS0SsB+4gUAoE0M+pldDPzfy2yq2yex+l+HpbenEeyW49Ff7T7iQHearvrhmUnv8sSdl4kFJ+nxgwuKh8xj/Yu1n7JcvZD7rcQhOX/IhcdO/41MwOLTInB6xdyAkbMpU5AfTzMm/gEju99u0o4Nv5B31cmtIHec5DZoAXZcmwie2dWfaz6eAEixUeIeUNs8kgUm5BX3A+6T/Z4snoTZq+RWax4zuUd2bKdefF1+qIsIzYVHID+x0kLeltmDzTV0/Ui0PiO1Xz8c88wypadumIL9ZSlZuY9xf1lIaMxmEnc/uQOc6oKVpTFqQi9POCYD1QaLGv2wcq1jxIOj657i+opYDlOixSrlcXp8neQnMx3BEdyf9B7p9SXph8n/u1asBBpe7/TBrcgUAUB6bHJ2H35h/csIYR+9QpkrMw8jHNL8xW/qLIvd3CRFP8UkePojqFN2S8PL6qp/IO9+5oVvymLmqN6Od6uE2/bicd3+Rq4ui9Li2sJX1c7xi6NE3lqd4d5K1/Df8etGxF+Ro+defMG3LgKIDA+bwoJcDFZXrocVcy9oTu2oWlDlVdbvc0N30cO1IU2IjAZ3z8xeeNlBVwiH5eAY1cwFPsP4AK9/7D+I5D+h/wKwJCbw1oxvhwhhyvm6SXQdZM3Hit1x9rGLxE8kqPSetlX5Elv9xXqwbXE3XtQpYXvQSXWnrWlcsp5iGDSX6TZ4DatCu9czEhYlkLu9mhaJYx3717TYiueDGgnxePdTnWdOFQOivvz+/cDOllxi7ugfj9d1P54yeQ7GWRVH1emSbLVN5OYNcu9kx6akYVsOhNj++kKorUO7WjSl83Uc6sMDLq2oU+/ENamGhQKgiUBwH082jtaPp1O6n4XuZbDqrfB7lFfFqBrssXjKJ2VNXv1Y9h/1QKtySi9QCF9+iLFAaF+rn5CkNMat19F7Y6VOHatTFVjGJAoIwJoJ+XceMW4dRkkW1fO7iy9hbZr+OZgGDv6NaVa6Ll6dlH/DFgEBJ5ybMH6WWXrZ/Xv6nnn6uX9tqFLNUgI8pc60M+EKgEAujnldDKhTvHI3mjBH4IL7SiY61Ql5wcNm6kbLpLj6yuUg0GDEIiJ3kI34Q6w9bLPjer55erV0++NaL7zogsZhZyRY18FUQA/byCGruAp/rhh1T4JkevEvkHU89b30v+QdylGUfDAAcDBn3KPp69TyFlax+bn+rlAi8utAf41arW1WbVNlhAAASIAPo5vglxErhjBpVWryj0U4cMt7Ofwi1ntezT0MHSK2IDz0hga2g9XkqvqgP3dpQuLsOKiPeOXJk1ErbmrRH5Qv4TMwwaVOFS6QTQzyv9GxDv+U+fTuW9zE8Zncn/6DkO6efOI/mlbDVMydg+e/E/uroFvu2Ip/e5DtFDahE4qp2WW+oTh/w2stTLFd3LtvXyLM2Sn0xN6eWCFwhUJgH088ps90KftTz2LbLQ9Un5P7xCjoLlHjYvWyR+uCUhJHKSndrqZXvf0fPL1Svq2oVazCzkihr5KpAA+nkFNnoZnnIH3jL6p2m9k3ssQ36beO0FHqvU46b00t2v5hNlCfEYhg2LVo68bCRaLniDQGUSQD+vzHYvt7OeOJ7O6LCQE5OXL07jDZsa3DHD0MAih6O6A4tBgjPLDnnBXtGt8lzvrzSf193iUB2vY4YhOmzkqFgC6OcV2/RlceLy7pPrq/VO55eTyG9dk8f/MWDQI6jw2uAoDB51J086ruTM+6ikLpZeiVi7oMcJXiDQmAD6eWMaOC4VAvJ2y0fmUMRfCwk8kyGHP/KizKbuGDA0ZRJBs4afegjbAKO3TYV25HtIEarwdb1mIql/lvY1K5VYu6BEAwMIKAmgnyvRwGAgAXltduZeCu5kKzjIGRmyjxsX7Ic1DGF8Quz/2UYO91cHOzZn8+WXBvuprM2akeW3U0jOvFPlGazH2oVgPrCCgB8B9HM/KtCZSmDaTRTZhengCH/Ntx4mjiU/7afmknoJR/DpNFhNj++YYynWT+rc4KUBRH5ZT/YRoxrOLejoeIusS2tJSjlR5b85Lhl5BtUJGwiAgD8B9HN/Liqt6ddt0+NTcVXpb5lCFtXvwx7+/bkirSohTI99GMIIadnlsZPvjib3JXzP6AjLnV1mGp5m+4os2V9hKft0nG6T/myW3jtHz2XJPoLtlFJ/vpQlm3yR1J6wgAAIqAign6vIQJ8kgdt4oHBttX8U8pLBi3km4cWsv5+21vSRlunxeUHLzMBfasjyFY/s5Ac7qtzO+S9PU3nDeYZCt5zxvObBGyfSIAACuRNAPw9mZ/p12/T4gummUn/ggYLqd2BNHZXQzQorSdeOGQZdUpH8ZFX1JTyiu/Fmyt6vD8mTe5PsZZGUt5JtpWTqA4cOljxL8vlFJHfuIHlvDUndz3nP6HrCDwRAQJcA+rkuKfjFSWA6X/8npP1LfSJD+rG878LnYavy/YtRa00faZken5psYSwbeeSoGlmKflVtYepHqSAAAoUnUOr93PTrtunxyTdM1p7N5IGCXN9Fygz2DdWSIz958xTKP59/P87jGW08JZEf16Ln7sszFMdZelU/wTMUet7wAgEQMIEA+rkJrZB8DDJQuGcWxfKLtDumLzh5Aa+d+121255rSp6uGGpTCYN4RhwDhohEBeBjNZRxJY/AnuL0uQdGYhEL1nSfNEHPke9cpDIP6/nDCwRAoIEA+nkDCxwVn4AMFO7jgcLP0+4YNjuUtgeSfCqmW85t2lB5PSyS8rluoxyxNH1qJun4plQTKJkCUkmZGurHryv1YM45eSw/timPZarqF/3UKTlXhYwgULEE0M/jbfqkr9thZ2NafDJQeID/AZXrucj1dXRGlhV2ZrnZR/M/vFKfyNO9v2emgfOeblLxncq3APbWU0QCMEz+ptp7BvmlVV8gbxyyD0TbdvnVh9wgUEkE0M8L09pJXbd1z8aU+A7m5+ZnKQYKsg9P+wJd11u3JmKLa0l6f1cO55mHVApPSQR+t4byiIs3Wgz0bWyM6t84b+Nj26bUT9IkVZ/y3vLzx5LH9m0qT+hBAAS8BNDPvUSQLgYBGSjU/Ilqk8fmvXV3tUizfLXXopc+iN3kd0n2Azqc9W0tOhA/Vh94Wu+z/4oGAwYh4Su/0dVXHaqUjZJCHRUOLVuRQWYWvA3pzXY1DxSw9bOXDNIgEE4A/TycETziIyBb/c9+kMr8cTq47OOsYHuhrG843pK9Wwh67RWebhHx/BdmKcOyZREzsrvcw5p1Dym6W8Hl3FpN9lmZYD9YQQAE1ATQz9VsYImfwCzNgUL8NUcrcV3W648Bg5eIK/23ta5kk8Qu1tyVoYPz+fGWffuauAYqZKAwnVfFXpQOdE89nSH75KnBfrCCAAiEE0A/D2cEj/wJHNmRylDdesi/hnhLaPJ0BNYwBANekvW3r3NI37eK5O7d/n5hWlmcOHsOeY60g3PMz5L9Mt7BSxanBOeCFQRAIIgA+nkQHdjiIrB3L5Uk7wz6WlwFF6icdW8qCjZltagivFRS8cl//gsVq0fnsb4HDxxU8Yte1iZcM5E0YTu5ydMZk6vJX+KR8iBBAATyJyD9Cv08f5aNS0jqut04hqBj0+MLij0ZGxY9BnKX/+BHjSC3Bc+RPNMm+X2WQ9ZTemWW5AqWzS1Kn8iyH0vvWyzJq+GzNkvH108muWp5gw1HIAAC8RJAP4+XJ0orcwKmj7RMiU9uIdxTQ1+InfUk5YITVX7B+f/KMxXn2GX+RcPpgUAJEEA/j6eRTLluq87G9PhUcSenxwxDJPayv8F4fozxxmsp+8jhJLt3JdnNItmK5ccOpTdtJPnGGpILFpGUt1BSCp8gAAJJEkA/T5I+6jaXAA8YZOMfb6B7HK8mmbSp8W3dQjxqMslwQa0gAAKFJ4B+nhtjU6/bcjamxydxmiP5scqPHP+QPvJXF137keNfpSnx+UcHLQiAAAhULoGPHP9zN+W6bXp8/vQM0Mr7ruvqKJh3Wdq2AcHtD8H0+MyghChAAARAwBwCpl+3TY/PnJaUSP4HyiARXCXX284AAAAASUVORK5CYII=;" parent="1" vertex="1">
          <mxGeometry x="518" y="660" width="41.49" height="11.72" as="geometry" />
        </mxCell>
        <mxCell id="hdwB_MQwIhiL4xS-3u5l-86" value="" style="shape=image;verticalLabelPosition=bottom;labelBackgroundColor=default;verticalAlign=top;aspect=fixed;imageAspect=0;image=data:image/png,iVBORw0KGgoAAAANSUhEUgAAAHQAAABAEAYAAACb4Y/fAAAKqGlDQ1BJQ0MgUHJvZmlsZQAASImVlwdQU+kWgP9700NCS4h0Qm/SWwApIbTQpYOohCRAKCEGgogdWVyBtSAighVdEFFwVYosNkSxLQKKXRdkEVHWxYINlXeBIbj75r0378ycOd899/znP+ef+8+cCwBZniMSpcHyAKQLs8ShPh706JhYOm4YQEANEAAJQBxupogZEhIAEJm1f5f3d5BoRG6ZTeX69/f/VRR4/EwuAFAIwgm8TG46wqcQfcEVibMAQO1H/LrLs0RT3IEwVYwUiPC9KU6a4dEpTphmNJiOCQ9lIUwFAE/icMRJAJDoiJ+ezU1C8pDcEbYU8gRChEUIu6anZ/AQPo6wERKD+EhT+RkJ3+VJ+lvOBGlODidJyjO9TAveU5ApSuOs+D+P439Leppkdg8DREnJYt9QxCoiZ3YvNcNfysKEoOBZFvCm46c5WeIbMcvcTFbsLPM4nv7StWlBAbOcKPBmS/NkscNnmZ/pFTbL4oxQ6V6JYhZzljniuX0lqRFSfzKfLc2fmxweNcvZgsigWc5MDfOfi2FJ/WJJqLR+vtDHY25fb2nv6Znf9StgS9dmJYf7SnvnzNXPFzLncmZGS2vj8T295mIipPGiLA/pXqK0EGk8P81H6s/MDpOuzUI+yLm1IdIzTOH4hcwyYIEMkIaoGNBBAPLkCUAWPydrqhFWhmiFWJCUnEVnIjeMT2cLuebz6daW1jYATN3Xmc/hLW36HkK0a3O+vIMAuLhOTk62zfn8hwA4OQYA8fGczwg5I9leAK6UciXi7Bnf9F3CACKQA1SgAjSBLjACZsAa2ANn4A68gB8IBuEgBiwBXJAM0pHKl4NVYD0oAEVgK9gBKsA+cBAcBsfACdAM2sAFcBlcB92gDzwE/WAIvARj4D2YgCAIB5EhCqQCaUH6kClkDTEgV8gLCoBCoRgoHkqChJAEWgVtgIqgEqgCOgDVQr9Ap6EL0FWoB7oPDUAj0BvoM4yCSTAV1oANYAuYATNhfzgcXgwnwcvgXDgf3gyXw1XwUbgJvgBfh/vgfvglPI4CKBkUDaWNMkMxUCxUMCoWlYgSo9agClFlqCpUPaoV1Ym6hepHjaI+obFoCpqONkM7o33REWguehl6DboYXYE+jG5Cd6BvoQfQY+hvGDJGHWOKccKwMdGYJMxyTAGmDFONacRcwvRhhjDvsVgsDWuIdcD6YmOwKdiV2GLsHmwD9jy2BzuIHcfhcCo4U5wLLhjHwWXhCnC7cEdx53C9uCHcR7wMXgtvjffGx+KF+Dx8Gf4I/iy+Fz+MnyDIE/QJToRgAo+wgrCFcIjQSrhJGCJMEBWIhkQXYjgxhbieWE6sJ14iPiK+lZGR0ZFxlFkoI5BZJ1Muc1zmisyAzCeSIsmExCLFkSSkzaQa0nnSfdJbMplsQHYnx5KzyJvJteSL5Cfkj7IUWXNZtixPdq1spWyTbK/sKzmCnL4cU26JXK5cmdxJuZtyo/IEeQN5ljxHfo18pfxp+bvy4woUBSuFYIV0hWKFIwpXFZ4r4hQNFL0UeYr5igcVLyoOUlAUXQqLwqVsoByiXKIMUbFUQyqbmkItoh6jdlHHlBSVbJUilXKUKpXOKPXTUDQDGpuWRttCO0G7Q/s8T2Mecx5/3qZ59fN6531QVlN2V+YrFyo3KPcpf1ahq3ippKpsU2lWeayKVjVRXai6XHWv6iXVUTWqmrMaV61Q7YTaA3VY3UQ9VH2l+kH1G+rjGpoaPhoijV0aFzVGNWma7popmqWaZzVHtCharloCrVKtc1ov6Ep0Jj2NXk7voI9pq2v7aku0D2h3aU/oGOpE6OTpNOg81iXqMnQTdUt123XH9LT0AvVW6dXpPdAn6DP0k/V36nfqfzAwNIgy2GjQbPDcUNmQbZhrWGf4yIhs5Ga0zKjK6LYx1phhnGq8x7jbBDaxM0k2qTS5aQqb2psKTPeY9szHzHecL5xfNf+uGcmMaZZtVmc2YE4zDzDPM282f2WhZxFrsc2i0+KbpZ1lmuUhy4dWilZ+VnlWrVZvrE2sudaV1rdtyDbeNmttWmxe25ra8m332t6zo9gF2m20a7f7au9gL7avtx9x0HOId9jtcJdBZYQwihlXHDGOHo5rHdscPznZO2U5nXD6y9nMOdX5iPPzBYYL+AsOLRh00XHhuBxw6Xelu8a77nftd9N247hVuT1113XnuVe7DzONmSnMo8xXHpYeYo9Gjw8sJ9Zq1nlPlKePZ6Fnl5eiV4RXhdcTbx3vJO867zEfO5+VPud9Mb7+vtt877I12Fx2LXvMz8FvtV+HP8k/zL/C/2mASYA4oDUQDvQL3B74KEg/SBjUHAyC2cHbgx+HGIYsC/l1IXZhyMLKhc9CrUJXhXaGUcKWhh0Jex/uEb4l/GGEUYQkoj1SLjIusjbyQ5RnVElUf7RF9Oro6zGqMYKYllhcbGRsdez4Iq9FOxYNxdnFFcTdWWy4OGfx1SWqS9KWnFkqt5Sz9GQ8Jj4q/kj8F04wp4oznsBO2J0wxmVxd3Jf8tx5pbwRvgu/hD+c6JJYkvg8ySVpe9JIsltyWfKogCWoELxO8U3Zl/IhNTi1JnUyLSqtIR2fHp9+WqgoTBV2ZGhm5GT0iExFBaL+ZU7LdiwbE/uLqzOhzMWZLVlUZDC6ITGS/CAZyHbNrsz+uDxy+ckchRxhzo0VJis2rRjO9c79eSV6JXdl+yrtVetXDaxmrj6wBlqTsKZ9re7a/LVD63zWHV5PXJ+6/rc8y7ySvHcboja05mvkr8sf/MHnh7oC2QJxwd2Nzhv3/Yj+UfBj1yabTbs2fSvkFV4rsiwqK/pSzC2+9pPVT+U/TW5O3Ny1xX7L3q3YrcKtd7a5bTtcolCSWzK4PXB7Uym9tLD03Y6lO66W2Zbt20ncKdnZXx5Q3rJLb9fWXV8qkiv6Kj0qG3ar7960+8Me3p7eve576/dp7Cva93m/YP+9Az4HmqoMqsoOYg9mH3x2KPJQ58+Mn2urVauLqr/WCGv6D4ce7qh1qK09on5kSx1cJ6kbORp3tPuY57GWerP6Aw20hqLj4Ljk+Itf4n+5c8L/RPtJxsn6U/qndjdSGguboKYVTWPNyc39LTEtPaf9Tre3Orc2/mr+a02bdlvlGaUzW84Sz+afnTyXe278vOj86IWkC4PtS9sfXoy+eLtjYUfXJf9LVy57X77Yyew8d8XlSttVp6unrzGuNV+3v950w+5G4292vzV22Xc13XS42dLt2N3as6DnbK9b74Vbnrcu32bfvt4X1NdzJ+LOvbtxd/vv8e49v592//WD7AcTD9c9wjwqfCz/uOyJ+pOq341/b+i37z8z4Dlw42nY04eD3MGXf2T+8WUo/xn5Wdmw1nDtc+vnbSPeI90vFr0Yeil6OTFa8KfCn7tfGb069Zf7XzfGoseGXotfT74pfqvytuad7bv28ZDxJ+/T3098KPyo8vHwJ8anzs9Rn4cnln/BfSn/avy19Zv/t0eT6ZOTIo6YMz0KoBCFExMBeFMDADkGAEo3Mj8smpmnpwWa+QeYJvCfeGbmnhZ7AOoRMzUWsc4DcBxRA0TJiE6NROHuALaxkers7Ds9p08JFvlj2W87Rb20nHXgHzIzw39X9z8tmMo6vfxv9l8BhAf7uiw5BAAABeRlWElmTU0AKgAAAAgABgEGAAMAAAABAAIAAAESAAMAAAABAAEAAAEaAAUAAAABAAAAVgEbAAUAAAABAAAAXgEoAAMAAAABAAIAAIdpAAQAAAABAAAAZgAAAAAAAACQAAAAAQAAAJAAAAABAAOShgAHAAAFVAAAAJCgAgAEAAAAAQAAAHSgAwAEAAAAAQAAAEAAAAAAQVNDSUkAAABBQUFFNjNqYWJWTnJiQlJWRkQ1M2JxRVBhSGZhOGlqbE5kaXRGaERjUXBXNitPaVdzbENoeTJOMnU5dDJ5M3AzCjl1N3VzTE16Njh6ZHdySnBjbjhZTUFaLytBc2hSRzBib3hqakswcU04UkVpb0RHbTBXMGpKa1FOdi9oai9PRWYKWTRpSmR4OUJOTXpOWk00NTk1NXp2dlBkYitJNVEzZVl4N09JSkZ5M1pHbDlVOFE5UlcxSHQ4d3hON0cxdEM2OApvSnRadVlqYmloK25HblBhQUoxK1BTYTdBdW9CV3FBSlgrM1FEdzJOUWR1eUdFZnZ5WnVXTGU5KzhLR2V6VnUyClByeHQreU9QN241aVlPaVpBMGVPams4Y0l6UjVQSnRqK1pEYnpCdkdRbk9MUys1MGh3UHE5Z3d0T09QaVcyc3kKNnRZTTRqaVhXdHZhVjZ4Y3RicGpEWmM0NW5WOENWL0s2M2tEYitSTmw5YXVXNzlobzdMcGdTNitqQy9uTGR6RgpXM2tuWDh2WDh3MWNpY1NKUXczZHBDSE5NaXc3bUxVU05NUjBadEJJenFZa0d6Zm9aSmFrVEQycGE0U0pjWU1KCndxZ1lLMDYwVE1xMjhtWmlUemx4M0xIeXRrYUQ5Q1RyZ3RxejRPbDE3ZGpaRndxb1IvY05SZ05xNWFDYUl4cjEKZXhTeFFFYTh1ZlRZcnY3SHg2dGptQ1JMSTFXVE91RmF3bXkvTnhKUUQxWG1sZXRLcmllZmVucE1FT0F3V3pkVApYRDRzQ3ZnR0t6eVA1QmtSZU5YS3pweHZUem12Nml6c2RmbjM3UisrNndzd1BpYXNlSjVSaDdmeE5idzlKcGVpCkNVdkxaNm5KS2dnbWVqMDVObGtrTnRNMWcwNDNSZk1PRmRnekpFVW5oRm5HNmt3V0s2eE5LOTBpa2xDU2xpMWUKa3ltVjZMMFpSWkoxbkVJMkxrNW1DVXM3Lzk4ckIrKzNONUZueWY3Sm9tN21CRkpUcXpaSzVnMkZXUW9yNUtpUwowRzNCaTFFUUJ0RnNYV0JWdERTeGljYUVPcHZLd2prWU9Ed3p3bGZNSE9JcmVjZG9RUFVMZ0l0cU1PUWFEVWZHCmhLL3FwNmdnSnVrM1NNb1Jma0FNMWpYUVU3MUNXZWFyK09yUkVjc2ttaVdZams3V0tzeEd2Y0tOUFN1WUhOSzEKc2pDSVhaaU5sWU54TFNhMzNVTndvc3I1Yk1KNzMzalh3R0MxVnlubFN1dGxqVE5kSVBCZHZWNS85bUo0QzE4bgpTbVlNMFhaSUNHODI0eTJyeXR6WjUrOVZ4QUxlWEw3YjUvWVA4NDNWVzJ5THNqUmxKQlpsUW9xQ09KMU5pd0pUCkoySnkrMTJGL0l0NGJpcm1oUVpvaFU1d3cyYllBYnRnR0E3Q0VWRGhCRXpEODNBV3pzR3I4QmE4RGUvQXUvQSsKZkFnZndXWDRCRDZGcTNBZHZvRnY0VHVZaCsraEJJdndJL3dFdCtBMi9BWi93QjNVaUZxUWdyYWlQclFiK1ZBQQpoVkFZamFGalNFYzJPb1dtMFduMEFub0puVVBuMFFYMEd2b0FmWXkrUU5mUVBMcUpma2Evb2x2U1plbHo2VXZwCml2U1ZkRTM2V3BxWGJraS9TTGVsMzZVL3BiK2tPOUxmdUE0M1lobTM0dzdjalh2d05qeUk5K0p4ck9FMHp1RUMKTG1LT3orQVg4Y3Y0Rlh3QnorQTUvQVorRTMrR3IrQWJWYllsVlB0TFQ4Si9Ibnp6SDZnbGx6cz11ijupAAAACXBIWXMAABYlAAAWJQFJUiTwAAAI5GlUWHRYTUw6Y29tLmFkb2JlLnhtcAAAAAAAPHg6eG1wbWV0YSB4bWxuczp4PSJhZG9iZTpuczptZXRhLyIgeDp4bXB0az0iWE1QIENvcmUgNi4wLjAiPgogICA8cmRmOlJERiB4bWxuczpyZGY9Imh0dHA6Ly93d3cudzMub3JnLzE5OTkvMDIvMjItcmRmLXN5bnRheC1ucyMiPgogICAgICA8cmRmOkRlc2NyaXB0aW9uIHJkZjphYm91dD0iIgogICAgICAgICAgICB4bWxuczp0aWZmPSJodHRwOi8vbnMuYWRvYmUuY29tL3RpZmYvMS4wLyIKICAgICAgICAgICAgeG1sbnM6ZXhpZj0iaHR0cDovL25zLmFkb2JlLmNvbS9leGlmLzEuMC8iPgogICAgICAgICA8dGlmZjpDb21wcmVzc2lvbj4xPC90aWZmOkNvbXByZXNzaW9uPgogICAgICAgICA8dGlmZjpSZXNvbHV0aW9uVW5pdD4yPC90aWZmOlJlc29sdXRpb25Vbml0PgogICAgICAgICA8dGlmZjpYUmVzb2x1dGlvbj4xNDQ8L3RpZmY6WFJlc29sdXRpb24+CiAgICAgICAgIDx0aWZmOllSZXNvbHV0aW9uPjE0NDwvdGlmZjpZUmVzb2x1dGlvbj4KICAgICAgICAgPHRpZmY6UGhvdG9tZXRyaWNJbnRlcnByZXRhdGlvbj4yPC90aWZmOlBob3RvbWV0cmljSW50ZXJwcmV0YXRpb24+CiAgICAgICAgIDx0aWZmOk9yaWVudGF0aW9uPjE8L3RpZmY6T3JpZW50YXRpb24+CiAgICAgICAgIDxleGlmOlBpeGVsWERpbWVuc2lvbj4xMTY8L2V4aWY6UGl4ZWxYRGltZW5zaW9uPgogICAgICAgICA8ZXhpZjpVc2VyQ29tbWVudD5BQUFFNjNqYWJWTnJiQlJWRkQ1M2JxRVBhSGZhOGlqbE5kaXRGaERjUXBXNitPaVdzbENoeTJOMnU5dDJ5M3AzJiN4QTs5dTd1c0xNejY4emR3ckpwY244WU1BWi8rQXNoUkcwYm94ampLMHFNOFJFaW9ER20wVzBqSmtRTnYvaGovT0VmJiN4QTtZNGlKZHg5Qk5Nek5aTTQ1OTU1enZ2UGRiK0k1UTNlWXg3T0lKRnkzWkdsOVU4UTlSVzFIdDh3eE43RzF0QzY4JiN4QTtvSnRadVlqYmloK25HblBhQUoxK1BTYTdBdW9CV3FBSlgrM1FEdzJOUWR1eUdFZnZ5WnVXTGU5KzhLR2V6VnUyJiN4QTtQcnh0K3lPUDduNWlZT2laQTBlT2prOGNJelI1UEp0aitaRGJ6QnZHUW5PTFMrNTBod1BxOWd3dE9PUGlXMnN5JiN4QTs2dFlNNGppWFd0dmFWNnhjdGJwakRaYzQ1blY4Q1YvSzYza0RiK1JObDlhdVc3OWhvN0xwZ1M2K2pDL25MZHpGJiN4QTtXM2tuWDh2WDh3MWNpY1NKUXczZHBDSE5NaXc3bUxVU05NUjBadEJJenFZa0d6Zm9aSmFrVEQycGE0U0pjWU1KJiN4QTt3cWdZSzA2MFRNcTI4bVppVHpseDNMSHl0a2FEOUNUcmd0cXo0T2wxN2RqWkZ3cW9SL2NOUmdOcTVhQ2FJeHIxJiN4QTtleFN4UUVhOHVmVFlydjdIeDZ0am1DUkxJMVdUT3VGYXdteS9OeEpRRDFYbWxldEtyaWVmZW5wTUVPQXdXemRUJiN4QTtYRDRzQ3ZnR0t6eVA1QmtSZU5YS3pweHZUem12Nml6c2RmbjM3UisrNndzd1BpYXNlSjVSaDdmeE5idzlKcGVpJiN4QTtDVXZMWjZuSktnZ21lajA1Tmxra050TTFnMDQzUmZNT0ZkZ3pKRVVuaEZuRzZrd1dLNnhOSzkwaWtsQ1NsaTFlJiN4QTtreW1WNkwwWlJaSjFuRUkyTGs1bUNVczcvOThyQisrM041Rm55ZjdKb203bUJGSlRxelpLNWcyRldRb3I1S2lTJiN4QTswRzNCaTFFUUJ0RnNYV0JWdERTeGljYUVPcHZLd2prWU9Ed3p3bGZNSE9JcmVjZG9RUFVMZ0l0cU1PUWFEVWZHJiN4QTtoSy9xcDZnZ0p1azNTTW9SZmtBTTFqWFFVNzFDV2VhcitPclJFY3NrbWlXWWprN1dLc3hHdmNLTlBTdVlITksxJiN4QTtzakNJWFppTmxZTnhMU2EzM1VOd29zcjViTUo3MzNqWHdHQzFWeW5sU3V0bGpUTmRJUEJkdlY1LzltSjRDMThuJiN4QTtTbVlNMFhaSUNHODI0eTJyeXR6WjUrOVZ4QUxlWEw3YjUvWVA4NDNWVzJ5THNqUmxKQlpsUW9xQ09KMU5pd0pUJiN4QTtKMkp5KzEyRi9JdDRiaXJtaFFab2hVNXd3MmJZQWJ0Z0dBN0NFVkRoQkV6RDgzQVd6c0dyOEJhOERlL0F1L0ErJiN4QTtmQWdmd1dYNEJENkZxM0Fkdm9GdjRUdVloKytoQkl2d0kvd0V0K0EyL0FaL3dCM1VpRnFRZ3JhaVByUWIrVkFBJiN4QTtoVkFZamFGalNFYzJPb1dtMFduMEFub0puVVBuMFFYMEd2b0FmWXkrUU5mUVBMcUpma2Evb2x2U1plbHo2VXZwJiN4QTtpdlNWZEUzNldwcVhia2kvU0xlbDM2VS9wYitrTzlMZnVBNDNZaG0zNHc3Y2pYdndOanlJOStKeHJPRTB6dUVDJiN4QTtMbUtPeitBWDhjdjRGWHdCeitBNS9BWitFMytHcitBYlZiWWxWUHRMVDhKL0huenpINmdsbHpzPTwvZXhpZjpVc2VyQ29tbWVudD4KICAgICAgICAgPGV4aWY6UGl4ZWxZRGltZW5zaW9uPjY0PC9leGlmOlBpeGVsWURpbWVuc2lvbj4KICAgICAgPC9yZGY6RGVzY3JpcHRpb24+CiAgIDwvcmRmOlJERj4KPC94OnhtcG1ldGE+Cqzwjq0AAAzWSURBVHgB7V17jBXVGb/LG0RZHkYsWEalKGhhFRuwFhioUrURoaVIX+ECKdFYKmhM09p0L23FmqpAS9LGhC61NVBNH5QEq7TsFapFA7goEqiPHYQClgUXBY089rbp9/12s+fOueecmbkPdr/9Y7453/v87n7zOHPmTFXqnPjr0YPSvOQTRFs462Af7eRyzBAiCAgCxUNgwCDyff8ioq/UE23hAkQhgp5g/ousN2168XITz4JAp0OgSxfq8ne4II81UhsFGJX+sY789OzZ6SCVDgsC8REYyGfKZ/nMpyvEo1ywD9VSzIk+0auuJPokF6LO/ncsJ23ZCgKCQEEEhg4l8dtceLrC2svy4VyIOqddu5KkweDvW2mdB+ELAoJACmfM3YZC2lFPYPWvdgMNZ1Zdwb/DceWS1w1X0e7gCPTtSx18iQtPV0DNOdK7zIsHyBEuRF2cuel4/sVaEOgQCOCxyHOGwkQhTU9o9NUUb21dh4BXOiEIxENgORcCClBH1yRcMI/WUt66eO82kryqKl7/xFoQOCcRuGE8pX02R1RXKB+wfAgPGiXV2QcyheMin6trkooofgSBYiLAzyHjhujVizysWkPU5HbpEtL794G4kdvbf9jcvq1rTfF1EuELApWEgKmSLHNd8l1SvMIrbHA0IPkvHimsF1V62tJw3BhLRVETBMqKQMwCvY4vae/L2PVi+W9I78QJO31Xrd6WBkM9S0VREwTOZQS21FP2uLfTUTxG6ef4fNMVm0zGLp83Gl09i74gUA4EIp5BJ/mU7OeYmlL/VYY0jlveI5r86eQXD9NJ2vPPa9+UliDQsRDYaHnmxBl1hGHKXlLomOb2Ip9/yRk0KcjFTyUhMI7vOfGPbqL/5EIuVR9QeKa8DkqBluonkTilRGC945nzzkWlyQ6PeU7nKJ6pQHdJgZbmh5EopUFgdI3dPz4K4xQXiuuk96i9wWgy4ptolg80UeOJnSBQGgQsB4nSt7ulsyVL+u8VeVAIWdU43uM2BbAUKghUMgKGAsWKB7PSbp1Yv85NP672NZPcPBxxUxdtQaBMCBgKdOJEymuI55bf+j+76cfVvt4xPzmDxkVc7EuDgKFAZ89xS2NvQPpvMXWzdtfG+6ajfTfbA7waoJuVaAsCpUZAU6Ddu1MiM323hDZm3fTjao+7jjzwyifW7l5usFYVRUGgjAhoCvSmL1JOAz233DaW+N7zBt8tvw9Z/bVdbnaiLQiUB4Fu4WE/H/Ftj/n3kL+vOI76hmdh5tpONYSn7VnaO3MGHKGCQCUjoCnQ8X60pKdFtIsWzd1qa9bdRiwEgfIhoFzi4t7zWr98KRUz8tadxfQuvgWBpBFQzqBjxlIAXiDBOtq9i0m1oUSDL0trKZ7rmX7rNusuhSp+lucij2a6h/u7eTOpt7SEmgkzIQQ6Pf7fXkRImqbKQX4mR/oXXJDQL2DpZlu9W55xJ+3X1RWOFzSSHAtzW3ZD1CwREPwZKHwqAQVootu5UCxxjq1WXU0ucGAw5Qf5PXzgcU1gik8W8GOi+BSFaxzRD0dgik98E+6Qdzz8lUvcqxkQgsW83Zw16ySpcZNP3myfe+KK86m10bK4psbNLu7C227ROr52peOPj37hlvCZLP0mrzUk9dsoBXqho98tJR50ucXx8c3zDNihw44dY/WDzW52tgcON6+dV7tS8cfrjcuX0W+DZZab5lI7uQJVfvuPc8TAJYOJJr2urZJOaxMLTR/iez1TXpAvSLe6iLQziL/CZvqkBOItjHgpHSm5TmBUqfhfcSWBj98ddF66SD/K+TzIg0Am2sSFUqR08ty6ruSA91Hx0aY8h44MvA/7dB0ZHub+48Xve7kwcSBxdC/qBgQqDf8v+JSwWidFK9BLvfCAagJob6on/VJtV3BhIL6JrmL9UuUncToXArpPmyRfoDxRYdBgN4BfDdz0o2rj+593+HYeMCj004ft9EVLEHBBoHcf0p7ju1jF0eUCHYBhKEtfb5ZocOjGCZTQRZ5dYk+tJr039tjpi5Yg4ILA7FmkXe25WMXR5QL92NHH/sDRIKL6vDl2hjlWW7rCTl+0BAEXBDAo9FCti1WCuldpRqV093rX1iQYPMTVpR4xbSck/KU+xImwBIGYCHgeOdjfSFRXD+Anfw/Kz0GPOD7vO+qo74rTYj5SmZ4r4p5zyWLXCOH6/aqJ/2k+AA3kdh7tR3p4X5afxqRe5Ev/ny0P92/iXsKfYxw+nP2r8T3m55iizXTlEuI/myWqbjEl8/YvkeRTw4gO94j2Z3ogoPZb+5g2EP37P4geayKa9Lbc+GOFjq/OpJ79kP8Ph3p2Pb2c8bye52rbWbVp4T3lvG8XYTDG9F1PHCkuxH9km+9E9gaw35M5cod4OorRtESC/8/JzOl2cXX5PFEXL5OVbK/zb+KrR3BMjXy4lvI6bomrLs7RRvJz9yKi+L+J1+s263Lhj6cSLTHx0eFmy8fjxDZE+Ax69iyxjgVEB3lEdVtW14kj8++7m0x5sEzrpzEg0QMLtSqRBKVaJjRScg5GwzxS3lBPdBS3qZVK7Q5ob1OW6Ot85sc7D5N4xtatPsmxHeDR3kqeQTN+DLW/ORca8Wi58McgZFW89Itv/QL/oKaKHzw42VzwD/WR5RHsRj/Z+Ko3XKJ8mc+of6gjDRMucc+gmMuL/n0jTXHrLX+X72VIH5+2QL6YWIKV/rGcKmnrtz+pJRn86OhkX+8jiqTU+F/uUZajeCxGpbdZXln9IFPYj+pXbeMxDnkJ2eIH1v0Q4GNUK8RFJNbvLQvg16wXKUgMo258pfFOIzkBDiqNW6C6FHHveCJXOL6azwHO96KIB1TMjIIf1T/auETU5R+XX278UUjor46qtxhx+51K8WMWOLJdz3ZIxB8ccUB9n/ZmpcEJp1jGEy+Gh2sVj4s1jN4OihejkOf33yfpoaCQVpsMtyBf40vPdw+3yVz28I+4PlvYaqRXWB5XWm784+Yf3V4p0F0N5CoICrt0fQ1I9YZBJrx/qsrRPhzQ3tTJRJubISkPxaqA5YmeSp20DPxohhQ3Zy0NDGr79hVWGOyRHKOghbWjS8uNf/TMo1oqBQo3piPmrTyIAH1binufJ58miyFeuCWfMFI3zyB5uc5c4dlVPnfD88nmeNzywHgxPyZKNnpn9qYp0J/zXFbdDKMJPoGGxyImCLEY2eOrSBMvXqt2iDeNz5g7+Yyu6kk7HAE8F94ec+0l1ftZywKtUg2lHRMBTYG+uYf8PpIJ988Lz6fW8JkQN/GqNi5l//YcSeanVQ1qH2f2DD5j4kXrcG3h6hDYG5Ak70G3zkD4FY4Aj07qssw8SBI8R5uRbq851af21o1EXwiIjvCITvKJ9iaSt301INbMW4jKJPc8iJwYBwMndVGueAQMBYrRszsWUE8e4w7dmaYdmI/1qc2rdlIjZNsUEPNHK4j+ciVRxKGWbAUBQYAQQIUZ8Dh9mhQWziW6gu9Rvz6b2iOHEcWEA9yyYDT4r+tI/swGoqdOEZWtICAIFELAskBVF7hHXZJRJdIWBAQBWwTwcsRjP25vcdf91G5q0gwStVeXliAgCBQDgQv6kteZ6fa0D/PzZhIVIwnxKQgIAlERkDNoVOTErhMhwFOgjT12vWPE+6+q45bWz2NKgarYSFsQyEPAduHzQV6eaUHGMH57Bko8Fps63Dp3WgoU2FhR0xGyq5WX6Eqm+CZ51Mjdqu0sixUf0U3+i4U/5oC/FyCTcPoZfpoRLs3nqvqY0tr22FEKNB+1EA5eu8JjpBCV/7M+6ekk8fiYKjnE4Abxka9B3Vrs9bNT9ZQzgp2VWQv9KRf+yLA+i71wOjVN/Mu8cDm4uLSdnwGH6NZs+3YqJZMn2yFSU0PN8T7R81iKFQZuYz6zteSJ1STatpMo1nxay3zi5m/V719ihYOb+eWEyX6+TRhnQ5a4m/j580lWepn5OxqYwQRLo8yaTowe1URHjCG6IE20JxHtdn9AIvT/4HFqf9BM9Lerieq25cZflxf4Y2tob9sr4ITTLVniz7uLKB5L9mdc1/2J+BN8orjlHDmyvT61ZNuKwPcztIv3IJOmfQxrucRdk8iUb4b719ph3rF9IdnkXyf/T6MaMbxdbvzDs8rnLl5EPF1/VT6+H6tbMeTB2vwYxDFd1OvsOih/dwN1DBOdTgbUxhkI7yPirZsc49CLKeqvN9oe7UCO1+1YrCWIfyIgFTU+5GdZ3sUjPZzhWuMTO3U+y1/n/jE7j7QwB/EQ/yPmg54OiFHlEe1OJIV+Aoe+LN8VsIKBVAr+hjRTy5aTBu4Zly6jNuasq/bqpTl+P8zMe3y1aoG2XOICCaGCQGwE8IX1UcPJ1agaojhw4tbipR3Ex0oZ+sD/BS3zQy4VFGS9AAAAAElFTkSuQmCC;" parent="1" vertex="1">
          <mxGeometry x="226" y="630" width="24.82" height="13.7" as="geometry" />
        </mxCell>
        <mxCell id="hdwB_MQwIhiL4xS-3u5l-89" value="" style="shape=image;verticalLabelPosition=bottom;labelBackgroundColor=default;verticalAlign=top;aspect=fixed;imageAspect=0;image=data:image/png,iVBORw0KGgoAAAANSUhEUgAAACIAAAAwEAYAAAAkyXQRAAAKqGlDQ1BJQ0MgUHJvZmlsZQAASImVlwdQU+kWgP9700NCS4h0Qm/SWwApIbTQpYOohCRAKCEGgogdWVyBtSAighVdEFFwVYosNkSxLQKKXRdkEVHWxYINlXeBIbj75r0378ycOd899/znP+ef+8+cCwBZniMSpcHyAKQLs8ShPh706JhYOm4YQEANEAAJQBxupogZEhIAEJm1f5f3d5BoRG6ZTeX69/f/VRR4/EwuAFAIwgm8TG46wqcQfcEVibMAQO1H/LrLs0RT3IEwVYwUiPC9KU6a4dEpTphmNJiOCQ9lIUwFAE/icMRJAJDoiJ+ezU1C8pDcEbYU8gRChEUIu6anZ/AQPo6wERKD+EhT+RkJ3+VJ+lvOBGlODidJyjO9TAveU5ApSuOs+D+P439Leppkdg8DREnJYt9QxCoiZ3YvNcNfysKEoOBZFvCm46c5WeIbMcvcTFbsLPM4nv7StWlBAbOcKPBmS/NkscNnmZ/pFTbL4oxQ6V6JYhZzljniuX0lqRFSfzKfLc2fmxweNcvZgsigWc5MDfOfi2FJ/WJJqLR+vtDHY25fb2nv6Znf9StgS9dmJYf7SnvnzNXPFzLncmZGS2vj8T295mIipPGiLA/pXqK0EGk8P81H6s/MDpOuzUI+yLm1IdIzTOH4hcwyYIEMkIaoGNBBAPLkCUAWPydrqhFWhmiFWJCUnEVnIjeMT2cLuebz6daW1jYATN3Xmc/hLW36HkK0a3O+vIMAuLhOTk62zfn8hwA4OQYA8fGczwg5I9leAK6UciXi7Bnf9F3CACKQA1SgAjSBLjACZsAa2ANn4A68gB8IBuEgBiwBXJAM0pHKl4NVYD0oAEVgK9gBKsA+cBAcBsfACdAM2sAFcBlcB92gDzwE/WAIvARj4D2YgCAIB5EhCqQCaUH6kClkDTEgV8gLCoBCoRgoHkqChJAEWgVtgIqgEqgCOgDVQr9Ap6EL0FWoB7oPDUAj0BvoM4yCSTAV1oANYAuYATNhfzgcXgwnwcvgXDgf3gyXw1XwUbgJvgBfh/vgfvglPI4CKBkUDaWNMkMxUCxUMCoWlYgSo9agClFlqCpUPaoV1Ym6hepHjaI+obFoCpqONkM7o33REWguehl6DboYXYE+jG5Cd6BvoQfQY+hvGDJGHWOKccKwMdGYJMxyTAGmDFONacRcwvRhhjDvsVgsDWuIdcD6YmOwKdiV2GLsHmwD9jy2BzuIHcfhcCo4U5wLLhjHwWXhCnC7cEdx53C9uCHcR7wMXgtvjffGx+KF+Dx8Gf4I/iy+Fz+MnyDIE/QJToRgAo+wgrCFcIjQSrhJGCJMEBWIhkQXYjgxhbieWE6sJ14iPiK+lZGR0ZFxlFkoI5BZJ1Muc1zmisyAzCeSIsmExCLFkSSkzaQa0nnSfdJbMplsQHYnx5KzyJvJteSL5Cfkj7IUWXNZtixPdq1spWyTbK/sKzmCnL4cU26JXK5cmdxJuZtyo/IEeQN5ljxHfo18pfxp+bvy4woUBSuFYIV0hWKFIwpXFZ4r4hQNFL0UeYr5igcVLyoOUlAUXQqLwqVsoByiXKIMUbFUQyqbmkItoh6jdlHHlBSVbJUilXKUKpXOKPXTUDQDGpuWRttCO0G7Q/s8T2Mecx5/3qZ59fN6531QVlN2V+YrFyo3KPcpf1ahq3ippKpsU2lWeayKVjVRXai6XHWv6iXVUTWqmrMaV61Q7YTaA3VY3UQ9VH2l+kH1G+rjGpoaPhoijV0aFzVGNWma7popmqWaZzVHtCharloCrVKtc1ov6Ep0Jj2NXk7voI9pq2v7aku0D2h3aU/oGOpE6OTpNOg81iXqMnQTdUt123XH9LT0AvVW6dXpPdAn6DP0k/V36nfqfzAwNIgy2GjQbPDcUNmQbZhrWGf4yIhs5Ga0zKjK6LYx1phhnGq8x7jbBDaxM0k2qTS5aQqb2psKTPeY9szHzHecL5xfNf+uGcmMaZZtVmc2YE4zDzDPM282f2WhZxFrsc2i0+KbpZ1lmuUhy4dWilZ+VnlWrVZvrE2sudaV1rdtyDbeNmttWmxe25ra8m332t6zo9gF2m20a7f7au9gL7avtx9x0HOId9jtcJdBZYQwihlXHDGOHo5rHdscPznZO2U5nXD6y9nMOdX5iPPzBYYL+AsOLRh00XHhuBxw6Xelu8a77nftd9N247hVuT1113XnuVe7DzONmSnMo8xXHpYeYo9Gjw8sJ9Zq1nlPlKePZ6Fnl5eiV4RXhdcTbx3vJO867zEfO5+VPud9Mb7+vtt877I12Fx2LXvMz8FvtV+HP8k/zL/C/2mASYA4oDUQDvQL3B74KEg/SBjUHAyC2cHbgx+HGIYsC/l1IXZhyMLKhc9CrUJXhXaGUcKWhh0Jex/uEb4l/GGEUYQkoj1SLjIusjbyQ5RnVElUf7RF9Oro6zGqMYKYllhcbGRsdez4Iq9FOxYNxdnFFcTdWWy4OGfx1SWqS9KWnFkqt5Sz9GQ8Jj4q/kj8F04wp4oznsBO2J0wxmVxd3Jf8tx5pbwRvgu/hD+c6JJYkvg8ySVpe9JIsltyWfKogCWoELxO8U3Zl/IhNTi1JnUyLSqtIR2fHp9+WqgoTBV2ZGhm5GT0iExFBaL+ZU7LdiwbE/uLqzOhzMWZLVlUZDC6ITGS/CAZyHbNrsz+uDxy+ckchRxhzo0VJis2rRjO9c79eSV6JXdl+yrtVetXDaxmrj6wBlqTsKZ9re7a/LVD63zWHV5PXJ+6/rc8y7ySvHcboja05mvkr8sf/MHnh7oC2QJxwd2Nzhv3/Yj+UfBj1yabTbs2fSvkFV4rsiwqK/pSzC2+9pPVT+U/TW5O3Ny1xX7L3q3YrcKtd7a5bTtcolCSWzK4PXB7Uym9tLD03Y6lO66W2Zbt20ncKdnZXx5Q3rJLb9fWXV8qkiv6Kj0qG3ar7960+8Me3p7eve576/dp7Cva93m/YP+9Az4HmqoMqsoOYg9mH3x2KPJQ58+Mn2urVauLqr/WCGv6D4ce7qh1qK09on5kSx1cJ6kbORp3tPuY57GWerP6Aw20hqLj4Ljk+Itf4n+5c8L/RPtJxsn6U/qndjdSGguboKYVTWPNyc39LTEtPaf9Tre3Orc2/mr+a02bdlvlGaUzW84Sz+afnTyXe278vOj86IWkC4PtS9sfXoy+eLtjYUfXJf9LVy57X77Yyew8d8XlSttVp6unrzGuNV+3v950w+5G4292vzV22Xc13XS42dLt2N3as6DnbK9b74Vbnrcu32bfvt4X1NdzJ+LOvbtxd/vv8e49v592//WD7AcTD9c9wjwqfCz/uOyJ+pOq341/b+i37z8z4Dlw42nY04eD3MGXf2T+8WUo/xn5Wdmw1nDtc+vnbSPeI90vFr0Yeil6OTFa8KfCn7tfGb069Zf7XzfGoseGXotfT74pfqvytuad7bv28ZDxJ+/T3098KPyo8vHwJ8anzs9Rn4cnln/BfSn/avy19Zv/t0eT6ZOTIo6YMz0KoBCFExMBeFMDADkGAEo3Mj8smpmnpwWa+QeYJvCfeGbmnhZ7AOoRMzUWsc4DcBxRA0TJiE6NROHuALaxkers7Ds9p08JFvlj2W87Rb20nHXgHzIzw39X9z8tmMo6vfxv9l8BhAf7uiw5BAAABdRlWElmTU0AKgAAAAgABgEGAAMAAAABAAIAAAESAAMAAAABAAEAAAEaAAUAAAABAAAAVgEbAAUAAAABAAAAXgEoAAMAAAABAAIAAIdpAAQAAAABAAAAZgAAAAAAAACQAAAAAQAAAJAAAAABAAOShgAHAAAFRAAAAJCgAgAEAAAAAQAAACKgAwAEAAAAAQAAADAAAAAAQVNDSUkAAABBQUFFMkhqYWJWTmRiQlJWRkQ1M2JvRzIwTzYwNWFlVXY4RnV0WWpnRnFyVTRrKzNsSVVLWFNpejIyNzNoL1h1CjdOM3QwTm1aZGVadVlXbWEzQWNEeHNpRFR3Z1BhTnNZclRINEV5WEdSSTJ4SURHbTBXMmpKa1lOVDd3WUgzd3gKaHBoNFozZURhSmlieVp4ejdqbjNmT2U3MzZUeWh1NHduMjhaU2JobXhjcFY5Ukh2SkxVZDNUTEh2TVRXeG5YaApoYnpNeWtlOFZ1b1UxWmpURE9qYzYwblpFMVNQMENKTis2dEozOVhXaFd6TFloeTlLMjlmdmFiandZYzZkenk4Cjg1RmR1eDk5YlArVGZRUFBIaGsrRVkyZEpEUnpLcGRuaGJEWExCakdVa09qUjI3empnYlYzUk8wNkVURnQ5cGsKeEtzWnhISG1tNXBiMXE1YnY2RjFJNWM0NWpWOEJWL0pWL0ZhWHNmcjV6ZHQzckoxbTdMOWdYYSttcS9oamR6RAptM2diMzhTMzhLMWNpYVNJUXczZHBHSE5NaXc3bExQU05NeDBadEJJM3FZa2x6Sm9Ja2V5cHA3Uk5jTEV1S0UwCllWU01sU0xhUk5hMkNtYjZnRnNZZGF5Q3JkRVFQY1Bhb2ZvcytibzhlL1oyaDRQcWlVUDk4YUJhVGxUelJLTUIKbnlJV3lJZzNsQjdmMS9ORXRES0dTWEkwVWpHcE0xb3RtTzNwalFUVlkrVjU1WnFTNTZtbm54a1RCRGpNMXMwcwpsNCtMQS96OVpaNkhDb3dJdkdwNVo4NS93SzJyT0VzSFBZRkRod2Z2K2dLTW53a3JWV0RVNGMxOEkyOUp5cVY0CjJ0SUtPV3F5TW9KWWx5L1BFbFBFWnJwbTBPbjZlTUdoQXZzRXlkS1lNRjJzVG1LcXpOcTAwaUVpYVNWajJlSTEKbVZLTzNsc3hSWEtPVTh5bFJHYU9zSEhuLzN0dThINTdzUUxMOUNTbWRETXZrSnBhcFZHbVlDak1VbGd4VDVXMApiZ3RlaktJd2lHYnJBcXVpalJPYmFFeW9zOTRWenRIZzhaa2h2bmJtR0YvSFcwZUNha0FBWEZaRFljL0lhR1JNCitLcCtsZ3BpTWdHRFpCM2hCOFZnN1gyZGxTdVVaYjZlYnhnWnNreWlXWUxwZUtKNndteThWN2pKNXdTVEE3cm0KQ29QWXhkbWtHMHhwU2JuNUhvTFRGYzVuMDczM2piZjM5VmQ2bGJLZWNkM1ZPTk1GQXYvQ0RjLzVDOTRZM3l5TwpuREJFMndFaHZObUpYbGRWNXQ3dVFKY2lGdkFHOTI2ZlB6ekl0N20zT0Z3VTJaT25rM0xMWFRuOEMyOXVNdGtMCnRkQUViZUNGSGJBSDlzRWdISVZoVU9FMFRNTUw4REpjaEN2d0Zyd043OEJWZUE4K2dBL2hHbndNbjhBQzNJQ2IKOERWOEE0dndMWlJnR2I2SEgrRVczSWJmNEErNGcrcFFJMUxRVHRTTjlpTS9DcUl3R2tWajZDVFNrWTNPb21sMApEcjJJTHFDTDZCSzZqRjVENzZPUDBHZm9PbHBFUDZHZjBhL29sblJOK2xUNlhQcEMrbEs2TG4wbExVby9TTDlJCnQ2WGZwVCtsdjZRNzB0KzRCdGRoR2JmZ1Z0eUJPL0V1M0k4UDRpalc4RGpPNHlLZXdoeWZ4eS9oVi9DcitES2UKd1hQNERmd21uc2RYOFVLRldnbFZmOGt6OEo4SDMvd0g4SE9QakE9PS1PM0UAAAAJcEhZcwAAFiUAABYlAUlSJPAAAAjTaVRYdFhNTDpjb20uYWRvYmUueG1wAAAAAAA8eDp4bXBtZXRhIHhtbG5zOng9ImFkb2JlOm5zOm1ldGEvIiB4OnhtcHRrPSJYTVAgQ29yZSA2LjAuMCI+CiAgIDxyZGY6UkRGIHhtbG5zOnJkZj0iaHR0cDovL3d3dy53My5vcmcvMTk5OS8wMi8yMi1yZGYtc3ludGF4LW5zIyI+CiAgICAgIDxyZGY6RGVzY3JpcHRpb24gcmRmOmFib3V0PSIiCiAgICAgICAgICAgIHhtbG5zOnRpZmY9Imh0dHA6Ly9ucy5hZG9iZS5jb20vdGlmZi8xLjAvIgogICAgICAgICAgICB4bWxuczpleGlmPSJodHRwOi8vbnMuYWRvYmUuY29tL2V4aWYvMS4wLyI+CiAgICAgICAgIDx0aWZmOkNvbXByZXNzaW9uPjE8L3RpZmY6Q29tcHJlc3Npb24+CiAgICAgICAgIDx0aWZmOlJlc29sdXRpb25Vbml0PjI8L3RpZmY6UmVzb2x1dGlvblVuaXQ+CiAgICAgICAgIDx0aWZmOlhSZXNvbHV0aW9uPjE0NDwvdGlmZjpYUmVzb2x1dGlvbj4KICAgICAgICAgPHRpZmY6WVJlc29sdXRpb24+MTQ0PC90aWZmOllSZXNvbHV0aW9uPgogICAgICAgICA8dGlmZjpQaG90b21ldHJpY0ludGVycHJldGF0aW9uPjI8L3RpZmY6UGhvdG9tZXRyaWNJbnRlcnByZXRhdGlvbj4KICAgICAgICAgPHRpZmY6T3JpZW50YXRpb24+MTwvdGlmZjpPcmllbnRhdGlvbj4KICAgICAgICAgPGV4aWY6UGl4ZWxYRGltZW5zaW9uPjM0PC9leGlmOlBpeGVsWERpbWVuc2lvbj4KICAgICAgICAgPGV4aWY6VXNlckNvbW1lbnQ+QUFBRTJIamFiVk5kYkJSVkZENTNib0cyME82MDVhZVV2OEZ1dFlqZ0ZxclU0ayszbElVS1hTaXoyMjczaC9YdSYjeEE7N04zdDBObVpkZVp1WVdtYTNBY0R4c2lEVHdnUGFOc1lyVEg0RXlYR1JJMnhJREdtMFcyakprWU5UN3dZSDN3eCYjeEE7aHBoNFozZURhSmlieVp4ejdqbjNmT2U3MzZUeWh1NHduMjhaU2JobXhjcFY5Ukh2SkxVZDNUTEh2TVRXeG5YaCYjeEE7aGJ6TXlrZThWdW9VMVpqVERPamM2MG5aRTFTUDBDSk4rNnRKMzlYV2hXekxZaHk5SzI5ZnZhYmp3WWM2ZHp5OCYjeEE7ODVGZHV4OTliUCtUZlFQUEhoaytFWTJkSkRSektwZG5oYkRYTEJqR1VrT2pSMjd6amdiVjNSTzA2RVRGdDlwayYjeEE7eEtzWnhISG1tNXBiMXE1YnY2RjFJNWM0NWpWOEJWL0pWL0ZhWHNmcjV6ZHQzckoxbTdMOWdYYSttcS9oamR6RCYjeEE7bTNnYjM4UzM4SzFjaWFTSVF3M2RwR0hOTWl3N2xMUFNOTXgwWnRCSTNxWWtsekpvSWtleXBwN1JOY0xFdUtFMCYjeEE7WVZTTWxTTGFSTmEyQ21iNmdGc1lkYXlDcmRFUVBjUGFvZm9zK2JvOGUvWjJoNFBxaVVQOThhQmFUbFR6UktNQiYjeEE7bnlJV3lJZzNsQjdmMS9ORXRES0dTWEkwVWpHcE0xb3RtTzNwalFUVlkrVjU1WnFTNTZtbm54a1RCRGpNMXMwcyYjeEE7bDQrTEEvejlaWjZIQ293SXZHcDVaODUvd0syck9Fc0hQWUZEaHdmditnS01ud2tyVldEVTRjMThJMjlKeXFWNCYjeEE7MnRJS09XcXlNb0pZbHkvUEVsUEVacnBtME9uNmVNR2hBdnNFeWRLWU1GMnNUbUtxek5xMDBpRWlhU1ZqMmVJMSYjeEE7bVZLTzNsc3hSWEtPVTh5bFJHYU9zSEhuLzN0dThINTdzUUxMOUNTbWRETXZrSnBhcFZHbVlDak1VbGd4VDVXMCYjeEE7Ymd0ZWpLSXdpR2JyQXF1aWpST2JhRXlvczk0Vnp0SGc4Wmtodm5ibUdGL0hXMGVDYWtBQVhGWkRZYy9JYUdSTSYjeEE7K0twK2xncGlNZ0dEWkIzaEI4Vmc3WDJkbFN1VVpiNmVieGdac2t5aVdZTHBlS0o2d215OFY3ako1d1NUQTdybSYjeEE7Q29QWXhkbWtHMHhwU2JuNUhvTFRGYzVuMDczM2piZjM5VmQ2bGJLZWNkM1ZPTk1GQXYvQ0RjLzVDOTRZM3l5TyYjeEE7bkRCRTJ3RWh2Tm1KWGxkVjV0N3VRSmNpRnZBRzkyNmZQenpJdDdtM09Gd1UyWk9uazNMTFhUbjhDMjl1TXRrTCYjeEE7dGRBRWJlQ0ZIYkFIOXNFZ0hJVmhVT0UwVE1NTDhESmNoQ3Z3RnJ3Tjc4QlZlQTgrZ0EvaEdud01uOEFDM0lDYiYjeEE7OERWOEE0dndMWlJnR2I2SEgrRVczSWJmNEErNGcrcFFJMUxRVHRTTjlpTS9DcUl3R2tWajZDVFNrWTNPb21sMCYjeEE7RHIySUxxQ0w2Qks2akY1RDc2T1AwR2ZvT2xwRVA2R2YwYS9vbG5STitsVDZYUHBDK2xLNkxuMGxMVW8vU0w5SSYjeEE7dDZYZnBUK2x2NlE3MHQrNEJ0ZGhHYmZnVnR5Qk8vRXUzSThQNGlqVzhEak80eUtld2h5Znh5L2hWL0NyK0RLZSYjeEE7d1hQNERmd21uc2RYOFVLRldnbFZmOGt6OEo4SDMvd0g4SE9QakE9PTwvZXhpZjpVc2VyQ29tbWVudD4KICAgICAgICAgPGV4aWY6UGl4ZWxZRGltZW5zaW9uPjQ4PC9leGlmOlBpeGVsWURpbWVuc2lvbj4KICAgICAgPC9yZGY6RGVzY3JpcHRpb24+CiAgIDwvcmRmOlJERj4KPC94OnhtcG1ldGE+CpkM7wwAAAXiSURBVGgF1VpriFVVFL46ijWFTmEqNdZVK8eUZgrDfhSeoHAIY6Yg6ldM9ccscHr8qAjuzQp6QFEWBUKXkN5lD7OcEu9FKiyjtLI/gedOD4rGmbS0l+aJWOu7cNdlzV57330t74+7zlp7rW+tvc4+6+zHacsF/drayKxrPtElFxBlcW50NAj26DGaOYtiLZWI/pYRzRS6J6X2F1m/o4P4/+p/bp48rxokenuRaHcPUfP/pf2kulfpOBLyp6P9szLhnDTd7DqK4sUJwexX4vuD5Qu7HO4uYSAYoON/M8B9BQKYlyeKR+iZEvHQl/SrlNonTyba6v/v2J+MQ/I38chpiGd2J4n2ZURh+DMDL0saTOoEGFGw0+hVPPLqjCMyuOOafym/oZaQifVRrF1H/NR6cW7l3SQYqogGwR4jeI29qE9riSNf2uuHs32b0F/Od0xm7rWSUHSwdxZJQeJIfmPZAdRk8wsct/QredRGPPI1tx9zgDD4NaMmvF1qio6L1wUO8CRdzwE74IKbf0jJVPqV/AaOt8GRVHzMM+Cp/Iz9ntkCebDQEEIUQRe/LWR/NP6WWu2Ae1FDIH78AVzZaN8VpGetIZ/stOH6aiWetaNSUTwgg59qQ0ixg3iI7YCjUcwHjjselnGptXbgrTlRGRA5dOCOol+AJ/NrGvMT4Gj06ZIfvq+2tXa86brxv2TkGh20BnIbP4NaAqT8wsSK7KfnWztubqgdwl/ozPHzlIBkxyW/m/UmTBCOI7ErPG/MOT2RHAMGiyLZcY1fXYBla6i1dozxjVFrR2h493IHtQRI+Rn8Ogz157Kz1g7Mk1x43u1YpMmOS35b2Rvay8C3dgy6akdOe+0oYS3gO70grygI8fo3hCAyG23eUYvLMyGXX12zNF1s2GRSC1ZKum2mY1XS2xl7QriZHwH5aEj+ay5etnDDtay1w75INY6QSZMo6CWJLfiNFZteqNZ8fnRn5W0IFfPIMCakexE5ts64P2x17TjflgholSu4clFjQro8JzIf7XA5bq49WWqzH62S3hexR8jMDlsAIxzAMFOblb9WkthstlZIDzXObWUcITOmuaH+1fimatML1fKtHWXzyEBExoQcgr6Djjjam23u7fVDUPc7VBhjQtJhFaGu4XAdF4+ZMoWwbl1lw9xTJb0vWzVCdrMDVzgzXAqB7WueIsPZeRuAf+2w4da0TuCieiAjEYqUpH9x+/RIJ3QrB8f3J/2DVw+eaj2KdPFIwRZg4+atLQAcB9zDfqw7cUgE6KIem7+mtU7hLcORdPzEYKRc1m9zicPoreXxcdFhjf7EcbVqI0rtzdl8B3DKrwV4MCOI97mjDxWIx9nweyzXRgL2PjV8KX+5pIZ8ZBpwZ5/jQA5n5FcGauVxpnzNAOFoJ4oa3o1cc8J7H3mPc16eQlnMI2ghL8/PYnkn0zFSy31bpYstvPZ5azPxB/YTfZITvWKAeNf/3DmkkVZdmkdp+3BKgWsjAvLt5VgdNE7MYrmz4pzLI+zUvM3iJR5hNu0ALXwHgt1sHIa/wkMY34EEQJtM1rEfjACN4lC+ZV8mFYoUrxYA5Cieiz33JVzZ6OTXOl7b8KfR1QUXYmA7Dm4OZbaEIMC7ioEOFbO1xpGBedC0DgUoWMw1ZFk/IbR5Avnqa/BJQi3XDxDV/g9yw5XX0sW+vZpmk/JnjXcGIwMUHQl1f2w7WWJTGrgavW4g1JOn3aueCXm3TA6w9vB0l8PU+nmj3/sLvh6a1MdiTLsz+DLoUe5A6LOLRABH8wc5bhTsmuym3byH3/sIBHRXShjYoLEj1msigThbBb5G3ymTfTs/UvVoR4DDHcBiSwb6Ngd4Jp+HuEJCbcB+hmvGibcbPthBPC4/LW/Hp05YncrEYPX6ASfo4QKFtKZEdBPLXatg4G5h/fMiz2eiJwpD/AnuqGunDB3UKGoQlvP4Bj164E0DGle7J/KWYN9y8nj6aUTn5Im2M/2xSvz3w0R37SA6JFaxJP0//v8DbwtAGhXOAzEAAAAASUVORK5CYII=;" parent="1" vertex="1">
          <mxGeometry x="551" y="767" width="6.38" height="9" as="geometry" />
        </mxCell>
        <mxCell id="BE7m5MwMy8wg7SoJYegb-1" value="MLE" style="rounded=1;whiteSpace=wrap;html=1;strokeColor=#585858;" parent="1" vertex="1">
          <mxGeometry x="700" y="641" width="70" height="30" as="geometry" />
        </mxCell>
        <mxCell id="BE7m5MwMy8wg7SoJYegb-2" value="PEM" style="rounded=1;whiteSpace=wrap;html=1;strokeColor=#585858;" parent="1" vertex="1">
          <mxGeometry x="700" y="677" width="70" height="30" as="geometry" />
        </mxCell>
        <mxCell id="BE7m5MwMy8wg7SoJYegb-4" value="" style="endArrow=none;html=1;rounded=0;entryX=1;entryY=0;entryDx=0;entryDy=0;strokeColor=#585858;" parent="1" edge="1">
          <mxGeometry width="50" height="50" relative="1" as="geometry">
            <mxPoint x="696" y="646" as="sourcePoint" />
            <mxPoint x="628" y="696" as="targetPoint" />
          </mxGeometry>
        </mxCell>
        <mxCell id="BE7m5MwMy8wg7SoJYegb-5" value="" style="endArrow=none;html=1;rounded=0;entryX=1;entryY=1;entryDx=0;entryDy=0;strokeColor=#585858;" parent="1" edge="1">
          <mxGeometry width="50" height="50" relative="1" as="geometry">
            <mxPoint x="695" y="780" as="sourcePoint" />
            <mxPoint x="628" y="728" as="targetPoint" />
          </mxGeometry>
        </mxCell>
        <mxCell id="BE7m5MwMy8wg7SoJYegb-6" value="MAP" style="rounded=1;whiteSpace=wrap;html=1;strokeColor=#585858;" parent="1" vertex="1">
          <mxGeometry x="700" y="714" width="70" height="30" as="geometry" />
        </mxCell>
        <mxCell id="BE7m5MwMy8wg7SoJYegb-9" style="edgeStyle=orthogonalEdgeStyle;rounded=0;orthogonalLoop=1;jettySize=auto;html=1;entryX=1;entryY=0.5;entryDx=0;entryDy=0;curved=1;endArrow=none;endFill=0;strokeColor=#585858;" parent="1" target="hdwB_MQwIhiL4xS-3u5l-2" edge="1">
          <mxGeometry relative="1" as="geometry">
            <mxPoint x="675" y="598" as="sourcePoint" />
          </mxGeometry>
        </mxCell>
        <mxCell id="BE7m5MwMy8wg7SoJYegb-11" value="Design -related" style="rounded=1;whiteSpace=wrap;html=1;strokeColor=#585858;" parent="1" vertex="1">
          <mxGeometry x="700" y="751" width="70" height="30" as="geometry" />
        </mxCell>
        <mxCell id="ilc09JGzDhpx_nHwKlJr-1" value="" style="shape=image;verticalLabelPosition=bottom;labelBackgroundColor=default;verticalAlign=top;aspect=fixed;imageAspect=0;image=https://cdn.onlinewebfonts.com/svg/img_827.svg;flipV=1;" parent="1" vertex="1">
          <mxGeometry x="437" y="632.8" width="20" height="20" as="geometry" />
        </mxCell>
        <mxCell id="gN4vE8bEkTlw2jWnqAIC-4" value="" style="shape=image;verticalLabelPosition=bottom;labelBackgroundColor=default;verticalAlign=top;aspect=fixed;imageAspect=0;image=data:image/png,iVBORw0KGgoAAAANSUhEUgAAADwAAAA4EAYAAADx/UcnAAAKqGlDQ1BJQ0MgUHJvZmlsZQAASImVlwdQU+kWgP9700NCS4h0Qm/SWwApIbTQpYOohCRAKCEGgogdWVyBtSAighVdEFFwVYosNkSxLQKKXRdkEVHWxYINlXeBIbj75r0378ycOd899/znP+ef+8+cCwBZniMSpcHyAKQLs8ShPh706JhYOm4YQEANEAAJQBxupogZEhIAEJm1f5f3d5BoRG6ZTeX69/f/VRR4/EwuAFAIwgm8TG46wqcQfcEVibMAQO1H/LrLs0RT3IEwVYwUiPC9KU6a4dEpTphmNJiOCQ9lIUwFAE/icMRJAJDoiJ+ezU1C8pDcEbYU8gRChEUIu6anZ/AQPo6wERKD+EhT+RkJ3+VJ+lvOBGlODidJyjO9TAveU5ApSuOs+D+P439Leppkdg8DREnJYt9QxCoiZ3YvNcNfysKEoOBZFvCm46c5WeIbMcvcTFbsLPM4nv7StWlBAbOcKPBmS/NkscNnmZ/pFTbL4oxQ6V6JYhZzljniuX0lqRFSfzKfLc2fmxweNcvZgsigWc5MDfOfi2FJ/WJJqLR+vtDHY25fb2nv6Znf9StgS9dmJYf7SnvnzNXPFzLncmZGS2vj8T295mIipPGiLA/pXqK0EGk8P81H6s/MDpOuzUI+yLm1IdIzTOH4hcwyYIEMkIaoGNBBAPLkCUAWPydrqhFWhmiFWJCUnEVnIjeMT2cLuebz6daW1jYATN3Xmc/hLW36HkK0a3O+vIMAuLhOTk62zfn8hwA4OQYA8fGczwg5I9leAK6UciXi7Bnf9F3CACKQA1SgAjSBLjACZsAa2ANn4A68gB8IBuEgBiwBXJAM0pHKl4NVYD0oAEVgK9gBKsA+cBAcBsfACdAM2sAFcBlcB92gDzwE/WAIvARj4D2YgCAIB5EhCqQCaUH6kClkDTEgV8gLCoBCoRgoHkqChJAEWgVtgIqgEqgCOgDVQr9Ap6EL0FWoB7oPDUAj0BvoM4yCSTAV1oANYAuYATNhfzgcXgwnwcvgXDgf3gyXw1XwUbgJvgBfh/vgfvglPI4CKBkUDaWNMkMxUCxUMCoWlYgSo9agClFlqCpUPaoV1Ym6hepHjaI+obFoCpqONkM7o33REWguehl6DboYXYE+jG5Cd6BvoQfQY+hvGDJGHWOKccKwMdGYJMxyTAGmDFONacRcwvRhhjDvsVgsDWuIdcD6YmOwKdiV2GLsHmwD9jy2BzuIHcfhcCo4U5wLLhjHwWXhCnC7cEdx53C9uCHcR7wMXgtvjffGx+KF+Dx8Gf4I/iy+Fz+MnyDIE/QJToRgAo+wgrCFcIjQSrhJGCJMEBWIhkQXYjgxhbieWE6sJ14iPiK+lZGR0ZFxlFkoI5BZJ1Muc1zmisyAzCeSIsmExCLFkSSkzaQa0nnSfdJbMplsQHYnx5KzyJvJteSL5Cfkj7IUWXNZtixPdq1spWyTbK/sKzmCnL4cU26JXK5cmdxJuZtyo/IEeQN5ljxHfo18pfxp+bvy4woUBSuFYIV0hWKFIwpXFZ4r4hQNFL0UeYr5igcVLyoOUlAUXQqLwqVsoByiXKIMUbFUQyqbmkItoh6jdlHHlBSVbJUilXKUKpXOKPXTUDQDGpuWRttCO0G7Q/s8T2Mecx5/3qZ59fN6531QVlN2V+YrFyo3KPcpf1ahq3ippKpsU2lWeayKVjVRXai6XHWv6iXVUTWqmrMaV61Q7YTaA3VY3UQ9VH2l+kH1G+rjGpoaPhoijV0aFzVGNWma7popmqWaZzVHtCharloCrVKtc1ov6Ep0Jj2NXk7voI9pq2v7aku0D2h3aU/oGOpE6OTpNOg81iXqMnQTdUt123XH9LT0AvVW6dXpPdAn6DP0k/V36nfqfzAwNIgy2GjQbPDcUNmQbZhrWGf4yIhs5Ga0zKjK6LYx1phhnGq8x7jbBDaxM0k2qTS5aQqb2psKTPeY9szHzHecL5xfNf+uGcmMaZZtVmc2YE4zDzDPM282f2WhZxFrsc2i0+KbpZ1lmuUhy4dWilZ+VnlWrVZvrE2sudaV1rdtyDbeNmttWmxe25ra8m332t6zo9gF2m20a7f7au9gL7avtx9x0HOId9jtcJdBZYQwihlXHDGOHo5rHdscPznZO2U5nXD6y9nMOdX5iPPzBYYL+AsOLRh00XHhuBxw6Xelu8a77nftd9N247hVuT1113XnuVe7DzONmSnMo8xXHpYeYo9Gjw8sJ9Zq1nlPlKePZ6Fnl5eiV4RXhdcTbx3vJO867zEfO5+VPud9Mb7+vtt877I12Fx2LXvMz8FvtV+HP8k/zL/C/2mASYA4oDUQDvQL3B74KEg/SBjUHAyC2cHbgx+HGIYsC/l1IXZhyMLKhc9CrUJXhXaGUcKWhh0Jex/uEb4l/GGEUYQkoj1SLjIusjbyQ5RnVElUf7RF9Oro6zGqMYKYllhcbGRsdez4Iq9FOxYNxdnFFcTdWWy4OGfx1SWqS9KWnFkqt5Sz9GQ8Jj4q/kj8F04wp4oznsBO2J0wxmVxd3Jf8tx5pbwRvgu/hD+c6JJYkvg8ySVpe9JIsltyWfKogCWoELxO8U3Zl/IhNTi1JnUyLSqtIR2fHp9+WqgoTBV2ZGhm5GT0iExFBaL+ZU7LdiwbE/uLqzOhzMWZLVlUZDC6ITGS/CAZyHbNrsz+uDxy+ckchRxhzo0VJis2rRjO9c79eSV6JXdl+yrtVetXDaxmrj6wBlqTsKZ9re7a/LVD63zWHV5PXJ+6/rc8y7ySvHcboja05mvkr8sf/MHnh7oC2QJxwd2Nzhv3/Yj+UfBj1yabTbs2fSvkFV4rsiwqK/pSzC2+9pPVT+U/TW5O3Ny1xX7L3q3YrcKtd7a5bTtcolCSWzK4PXB7Uym9tLD03Y6lO66W2Zbt20ncKdnZXx5Q3rJLb9fWXV8qkiv6Kj0qG3ar7960+8Me3p7eve576/dp7Cva93m/YP+9Az4HmqoMqsoOYg9mH3x2KPJQ58+Mn2urVauLqr/WCGv6D4ce7qh1qK09on5kSx1cJ6kbORp3tPuY57GWerP6Aw20hqLj4Ljk+Itf4n+5c8L/RPtJxsn6U/qndjdSGguboKYVTWPNyc39LTEtPaf9Tre3Orc2/mr+a02bdlvlGaUzW84Sz+afnTyXe278vOj86IWkC4PtS9sfXoy+eLtjYUfXJf9LVy57X77Yyew8d8XlSttVp6unrzGuNV+3v950w+5G4292vzV22Xc13XS42dLt2N3as6DnbK9b74Vbnrcu32bfvt4X1NdzJ+LOvbtxd/vv8e49v592//WD7AcTD9c9wjwqfCz/uOyJ+pOq341/b+i37z8z4Dlw42nY04eD3MGXf2T+8WUo/xn5Wdmw1nDtc+vnbSPeI90vFr0Yeil6OTFa8KfCn7tfGb069Zf7XzfGoseGXotfT74pfqvytuad7bv28ZDxJ+/T3098KPyo8vHwJ8anzs9Rn4cnln/BfSn/avy19Zv/t0eT6ZOTIo6YMz0KoBCFExMBeFMDADkGAEo3Mj8smpmnpwWa+QeYJvCfeGbmnhZ7AOoRMzUWsc4DcBxRA0TJiE6NROHuALaxkers7Ds9p08JFvlj2W87Rb20nHXgHzIzw39X9z8tmMo6vfxv9l8BhAf7uiw5BAAABdxlWElmTU0AKgAAAAgABgEGAAMAAAABAAIAAAESAAMAAAABAAEAAAEaAAUAAAABAAAAVgEbAAUAAAABAAAAXgEoAAMAAAABAAIAAIdpAAQAAAABAAAAZgAAAAAAAACQAAAAAQAAAJAAAAABAAOShgAHAAAFTAAAAJCgAgAEAAAAAQAAADygAwAEAAAAAQAAADgAAAAAQVNDSUkAAABBQUFFMzNqYWJWTk5iQnRGRkg2ems2Wkoyc1NicEQ5cCtyY2xEcVF0TFVrYmFIRDVpZE0wYldqai9xeWRPSWtUCk0xNlA3YTNYdTJaM25OYTFJczBCdFFqQkFYRW85QURFRVlJaUJBWFJDaUVCUXJRRkZSVEFpUUFKQWVxcEY4U0IKQzBJVkVyTzJWUXJxakZiNzNwdDU4NzczelRleHJLRTdyTHQ3Q1VtNFpsbnQ4b2F3ZDRiYWptNlo0MTVpYXlsZAplRUV2czdKaHJ4VTdRVFhtdEFBNjgxcFU5Z1RVUXpSUDQvN3FwdS9xNm9PMlpUR08zcFczckZqWmVlOTlYVnUzCmJiOS94ODRISHR6N1NQL2dFNGVPSForWW5DWTBjU0tUWmJtUTE4d1p4bUpqazBkdTk0NEYxSjFwbW5jbXhMOWEKWk5TckdjUnhMalMzdEs1YXZXWnQyem91Y2N4citESmV5NWZ6T2w3UEd5NnMzN0J4MDJabHl6MGRmQVZmeVp1NApoemZ6ZHI2ZWIrU2J1QktPRVljYXVrbERtbVZZZGpCanhXbUk2Y3lnNGF4TlNTWm0wS2tNU1pwNlF0Y0lFKzBHCjQ0UlIwVmFNYU9ta2JlWE0rRDQzY2NLeGNyWkdnL1FVNjREcVdPenU4ZXphM1JzS3FNY1BERVFDYW5tam1pVWEKSGVwV3hBUVo4Y2JTUTN2NkhwNm90R0dTREExWFRPcU1WUk9LZmI1d1FEMVM3bGV1S1hrZWZlenhjVUdBdzJ6ZApUSEw1cURqQVAxRG1lU1RIaU1DcmxsZm0vZnZjdklxenVOOHpkT0RnOEcxZmdQRXpZY1Z5akRxOGhhL2pyVkc1CkZJbGJXaTVEVFZaR01OblRuV1ZUQldJelhUUG9iRU1rNTFDQlBVMlNkRktZTGxabnFsQm1iVmJwRkpHNGtyQnMKOFpsTUtVZnZ6Q2lRak9Qa016R3hNME5ZeXZuL21odTgyOXBramlYNnBncTZtUlZJVGExU0tKRXpGR1lwTEorbApTbHkzQlM5R1hoaEVzM1dCVmRGU3hDWWFFK3BzY0lWek9IQjBib1N2bWp2Q1YvTzIwWUE2SkFBdXFjR1FaM1FzClBDNThWVDlOQlRHSklZTWtIZUVIUkdNZC9WMlZLNVJsdm9hdkhSMnhUS0paZ3VuSVZQV0VZc1FuM09pVGdzbEIKWFhPRlFleDhNZW9HWTFwVWJybUQ0SGlGODJMY2Q5ZDRSLzlBcFZZcDZVbnByc2FaTGhENHIxeXJUYjU0UGM0MwppQ1BUaGlnN0tJUlhUUHRjVlptN2U0ZDZGREdCTjdwMys5VEJZYjdadmNWd2hLVW9JOVBiUk5MTXlhamNlbHNWCi82S2NuNG42b0E2YW9SMjhzQlYyd1I0WWhzTndERlE0Q2JQd05Ed0g1K0FWZUJQZWdyZmhIYmdJNzhNSGNCaysKaEkvZ0NseURMK0U2ZkEwTDhDMlVZQW0raHgvaEJ0eUUzK0FQdUlYcVVSTlMwSGJVaS9ZaVB3cWdFQnBENDJnYQo2Y2hHcDlFc09vT2VRYytqYytobGRCNjlpdDVEbDlBbjZDcGFRRCtobjlHdjZJWjBXZnBZK2xUNlRQcGN1aXA5CklTMUlQMGkvU0RlbDM2VS9wYitrVzlMZnVBYlhZeG0zNGpiY2lidndEanlBOStNSnJPRVV6dUk4TG1DT3orSm4KOFF2NEpYd2V6K0Y1L0RwK0ExL0VsL0JYRllZbFZIMlpwK0EvQTMvekQzcVhrcnc9NsYx2QAAAAlwSFlzAAAWJQAAFiUBSVIk8AAACNtpVFh0WE1MOmNvbS5hZG9iZS54bXAAAAAAADx4OnhtcG1ldGEgeG1sbnM6eD0iYWRvYmU6bnM6bWV0YS8iIHg6eG1wdGs9IlhNUCBDb3JlIDYuMC4wIj4KICAgPHJkZjpSREYgeG1sbnM6cmRmPSJodHRwOi8vd3d3LnczLm9yZy8xOTk5LzAyLzIyLXJkZi1zeW50YXgtbnMjIj4KICAgICAgPHJkZjpEZXNjcmlwdGlvbiByZGY6YWJvdXQ9IiIKICAgICAgICAgICAgeG1sbnM6dGlmZj0iaHR0cDovL25zLmFkb2JlLmNvbS90aWZmLzEuMC8iCiAgICAgICAgICAgIHhtbG5zOmV4aWY9Imh0dHA6Ly9ucy5hZG9iZS5jb20vZXhpZi8xLjAvIj4KICAgICAgICAgPHRpZmY6Q29tcHJlc3Npb24+MTwvdGlmZjpDb21wcmVzc2lvbj4KICAgICAgICAgPHRpZmY6UmVzb2x1dGlvblVuaXQ+MjwvdGlmZjpSZXNvbHV0aW9uVW5pdD4KICAgICAgICAgPHRpZmY6WFJlc29sdXRpb24+MTQ0PC90aWZmOlhSZXNvbHV0aW9uPgogICAgICAgICA8dGlmZjpZUmVzb2x1dGlvbj4xNDQ8L3RpZmY6WVJlc29sdXRpb24+CiAgICAgICAgIDx0aWZmOlBob3RvbWV0cmljSW50ZXJwcmV0YXRpb24+MjwvdGlmZjpQaG90b21ldHJpY0ludGVycHJldGF0aW9uPgogICAgICAgICA8dGlmZjpPcmllbnRhdGlvbj4xPC90aWZmOk9yaWVudGF0aW9uPgogICAgICAgICA8ZXhpZjpQaXhlbFhEaW1lbnNpb24+NjA8L2V4aWY6UGl4ZWxYRGltZW5zaW9uPgogICAgICAgICA8ZXhpZjpVc2VyQ29tbWVudD5BQUFFMzNqYWJWTk5iQnRGRkg2ems2Wkoyc1NicEQ5cCtyY2xEcVF0TFVrYmFIRDVpZE0wYldqai9xeWRPSWtUJiN4QTtNMTZQN2EzWHUyWjNuTmExSXMwQnRRakJBWEVvOUFERUVZSWlCQVhSQ2lFQlFyUUZGUlRBaVFBSkFlcXBGOFNCJiN4QTtDMElWRXJPMlZRcnFqRmI3M3B0NTg3NzN6VGV4cktFN3JMdDdDVW00WmxudDhvYXdkNGJham02WjQxNWlheWxkJiN4QTtlRUV2czdKaHJ4VTdRVFhtdEFBNjgxcFU5Z1RVUXpSUDQvN3FwdS9xNm9PMlpUR08zcFczckZqWmVlOTlYVnUzJiN4QTtiYjkveDg0SEh0ejdTUC9nRTRlT0haK1luQ1kwY1NLVFpibVExOHdaeG1KamswZHU5NDRGMUoxcG1uY214TDlhJiN4QTtaTlNyR2NSeExqUzN0SzVhdldadDJ6b3VjY3hyK0RKZXk1ZnpPbDdQR3k2czM3QngwMlpseXowZGZBVmZ5WnU0JiN4QTtoemZ6ZHI2ZWIrU2J1QktPRVljYXVrbERtbVZZZGpCanhXbUk2Y3lnNGF4TlNTWm0wS2tNU1pwNlF0Y0lFKzBHJiN4QTs0NFJSMFZhTWFPbWtiZVhNK0Q0M2NjS3hjclpHZy9RVTY0RHFXT3p1OGV6YTNSc0txTWNQREVRQ2FubWptaVVhJiN4QTtIZXBXeEFRWjhjYlNRM3Y2SHA2b3RHR1NEQTFYVE9xTVZST0tmYjV3UUQxUzdsZXVLWGtlZmV6eGNVR0F3MnpkJiN4QTtUSEw1cURqQVAxRG1lU1RIaU1DcmxsZm0vZnZjdklxenVOOHpkT0RnOEcxZmdQRXpZY1Z5akRxOGhhL2pyVkc1JiN4QTtGSWxiV2k1RFRWWkdNTm5UbldWVEJXSXpYVFBvYkVNazUxQ0JQVTJTZEZLWUxsWm5xbEJtYlZicEZKRzRrckJzJiN4QTs4WmxNS1VmdnpDaVFqT1BrTXpHeE0wTll5dm4vbWh1ODI5cGtqaVg2cGdxNm1SVklUYTFTS0pFekZHWXBMSitsJiN4QTtTbHkzQlM5R1hoaEVzM1dCVmRGU3hDWWFFK3BzY0lWek9IQjBib1N2bWp2Q1YvTzIwWUE2SkFBdXFjR1FaM1FzJiN4QTtQQzU4VlQ5TkJUR0pJWU1rSGVFSFJHTWQvVjJWSzVSbHZvYXZIUjJ4VEtKWmd1bklWUFdFWXNRbjNPaVRnc2xCJiN4QTtYWE9GUWV4OE1lb0dZMXBVYnJtRDRIaUY4MkxjZDlkNFIvOUFwVllwNlVucHJzYVpMaEQ0cjF5clRiNTRQYzQzJiN4QTtpQ1BUaGlnN0tJUlhUUHRjVlptN2U0ZDZGREdCTjdwMys5VEJZYjdadmNWd2hLVW9JOVBiUk5MTXlhamNlbHNWJiN4QTsvNktjbjRuNm9BNmFvUjI4c0JWMndSNFloc053REZRNENiUHdORHdINStBVmVCUGVncmZoSGJnSTc4TUhjQmsrJiN4QTtoSS9nQ2x5REwrRTZmQTBMOEMyVVlBbStoeC9oQnR5RTMrQVB1SVhxVVJOUzBIYlVpL1lpUHdxZ0VCcEQ0MmdhJiN4QTs2Y2hHcDlFc09vT2VRYytqYytobGRCNjlpdDVEbDlBbjZDcGFRRCtobjlHdjZJWjBXZnBZK2xUNlRQcGN1aXA5JiN4QTtJUzFJUDBpL1NEZWwzNlUvcGIra1c5TGZ1QWJYWXhtMzRqYmNpYnZ3RGp5QTkrTUpyT0VVenVJOExtQ096K0puJiN4QTs4UXY0Slh3ZXorRjUvRHArQTEvRWwvQlhGWVlsVkgyWnArQS9BMy96RDNxWGtydz08L2V4aWY6VXNlckNvbW1lbnQ+CiAgICAgICAgIDxleGlmOlBpeGVsWURpbWVuc2lvbj41NjwvZXhpZjpQaXhlbFlEaW1lbnNpb24+CiAgICAgIDwvcmRmOkRlc2NyaXB0aW9uPgogICA8L3JkZjpSREY+CjwveDp4bXBtZXRhPgp0V0RkAAAIWklEQVR4Ae1caYwURRQebqKAK4dsEMLgfRBYDoWISqvwAzG4P5QQNWHUqD+8QOMPI2YmHqA/jOKVEA2DVwQS8YqCEjKDeKwEFRAVZGUGQQ45RIi4LMeY+N5HQu28qaru6t6d2dkf+6aq3vG997qqq6urKxar/lUjUI1AWBGYnSTNu3JEV2eIDhoYlsWq3kgigAQeL5C5gkJvT7iC0dmVonD1dO1K+gcNIHqCzeW30g8EiKvbPDmtB0HsKCDtUyM0WFdLFqwVuRHo3Zf0PDKD6A88ZDUdoXJjjugWpoc4018z35R6am/r/3fvKo3wrwOl28umtSNfYA9wQvdz4tAj/dIlaQpBt27hhuJqj/TjwurSxc7eoQLxq35OsrxQx4wlPVNZrh93FDs0Drn7MIDPuOepDqK8jxM+J0nGEdBLL6LyO2mi4Ffp29zuEPr/qp5iPKq9DTmyNKrOzOIvzK/qGa6R79WL9L/G/qnyOdbbqZMZDmdcA3l2uEVwDEA3cft5nEgJABxYq9F3V0LS4K/++wzJAa9Kjxao/YkkUalnrxD0SD1wokf6tuaIqnbV8pA48YX+Hz32Zw0wBO7MGjtI6Nmqgyj/znZdDdnz0oQP+nUUF+AwpWdihIF8c4H0duhAtCf3VFt7G9lf6LGLpgV3D54tfpshITii0gPs2DlxC+VFWPewY6p+lF09fqBHYmTAZBB2JIoEzkoR+OeTRMGPnjnBo/q8xh/I7Wa+x1MkV2PZQUjK4j8eaz7PkBCASLS+3kJ5CVadvYXpEsIOmq7gyQ7mBkcKpFTyW6o/oZFr4LjeliD9iLcDF8xUvJAmPskB1L/LfGZa9VzPJUvbxZUe+tDFUM+qpR+PpYjiVgH/dRQXyJscp9F8AbH66Mk4BiCt0MAhPB6czZMuV0gRSNiR6FDlXujKvqQHk8WXOVESLrX+ywxpvMaTNEdU3707GcLNXQWqlh9NhQNs5gzSq9pTy3judo0CIwOeYz/hBOmGXBWfVP4pR4jvZT8xCXPtRwt9zyapSgKG+r0MEJOvFooCVtxnmGDcIwOai8EPXDCb2T/4K9F1zIcLAHx/cP38tFk8MRK+yvxYHwjq10l53BOOFcwAzUqdFA3lB5Y4ETCJrswEMz+5nuSxECPZQb30XKwmEit5QIeRYHuOaqBPR11dwLFVHCidQTwGnVED6OHQVMosEOhpflGY+r2eEzOyrrilZUL81Od1xE29IHRxH+B3jjPeMwskADyTLO6g69p5aTNcOzjwfu1LiUFPxVKm7vEFQzXiBBqPl0aGno0hHXKgBwskfzqvQ5TWVqR1eYYqoVBHL9AsORYx4atKt7YNnL8GTPCFylr4e2mCa7oGDef+ZBzABYqnEfBJFEuar7D995lez7cQSU6sx1sLANHRbzKiqlAakDgdrqA9OCh4rIRJs+tpiaAWIG/5PnjWHAia0Tc+NOMLyoXHtCFxM037zdhC46rtT6p5ybmFnQHO5iqGCcYi+Q1eCyxFK45y7aIFRZudV2LhwnSDyt68cwhWCms072t7Rp3gxI1W+GOrssQf1c6EOst7fGsnePNGis+OPFH8L/CPJR+gJijVXPLYcTE1YWfo44iGZqAaMR6/zOgeM7bQuJqaSPUlI4heXkd0YyPRbduJhv7f88iEbtKitp8bDx3aKQbwHlnFIZWfTJ4iXsEFzT142nQ73zflif83pnbS9txYKhzm2clu32rHX77cQoIxjb/JMnDLs9GGYsxosme79Wj12mhxtp41IcETJxOkPnE7aMsjvveO8+zwHWb2HzfYyZUvtzDJum64P5fufJDkbracdfuzFotd6dlJfpcl/mPH7OTKl1tI8FjPn0tTfMr5s2Yv1ZC1lylvCWWIxr13pFfebknoG9ZJLZVar/Tg4aPIUd6gYez1QzOJdW1Ekxd8lWc70jSsMXapMhlNd0Tg+RIv+rHTPqqorMmQJeDQ0ahfekQVB70dZYgeazm5WpclEwcP6k254MB+3zrPTtvCiGf3dujC5FYSPNQycF9kwwTXUjc+3TB97sVnposXttTVPmqUBPez9HpVxJOWSZaPXyuz5NDOXZaOVSo7Nlrr7mlod72vWYortqPuzBEH7Ovo3QlJYzurx/5aXcDQju2vUYXJdidJc4GQ4aO3qHC2PTs8RPftbQdtfd6OPyj3LffYaXhrAfHv22snV7Hcl/EnJ+ihOopvj8IOCL7/xSk0OlzHueeeb7kBIGw/Wk8/9+DelisbjRFNriZcRaHpHzcL0eIFxIcdE2ZSlczFCeYzTow93ZY3Zg3EeMd0M3HuuLHZc8342x0XvmnRDYFol3bquwrckDhpwkoZ7Er0o4wryxWqB9+xSgFU6wdzAsIKx4tp0qzaVcu459puOA8Ld5vVi8kMAqYGUi1jR71rh3BO1j885qp21XJUkz3XfraaPt0ZFwgwEuEa6NNJ0gg7Et2SIz7f3964Bl4u+r7KmAW4ttatRxjy/zXsuTikxC2KdqANX95LPQf1+PjKVUgWpUkT9Et0PvO5stvu9OATECnAqL/WcxMaj/VAr0Qbc2QPrwvdWG/HWnAUnhTwh2cECw4mabov1/FyIej5WcHQVqC07jFlRcaf0/gURnee1d8F0q87s9EfiqpUDMf+NHGg1Z6MtzWms2ls5ns9TcFV9aEMezhBoJqKkCOAowiQAJXii/rOyuY9wMJQjENPVHmUcYYHjiaAfJWGHAEkbomm52ET3FzmW5ohYIcLRJFIleKMiurbn5ATqVOPIfYlTuBRTeLURKKMhZT7eZKGC0hnv9ruNwLSGQIafbhH3zqNGC8eTBQLFgdYPp+nH8t4V+PST6nc3MwMVRJyBP4DtrOFQFKnucgAAAAASUVORK5CYII=;" parent="1" vertex="1">
          <mxGeometry x="481" y="548" width="12.93" height="12.07" as="geometry" />
        </mxCell>
        <mxCell id="gN4vE8bEkTlw2jWnqAIC-6" value="Excitation" style="rounded=1;whiteSpace=wrap;html=1;strokeColor=#585858;" parent="1" vertex="1">
          <mxGeometry x="-10" y="677" width="70" height="30" as="geometry" />
        </mxCell>
        <mxCell id="gN4vE8bEkTlw2jWnqAIC-8" value="" style="endArrow=none;html=1;rounded=0;strokeColor=#585858;" parent="1" edge="1">
          <mxGeometry width="50" height="50" relative="1" as="geometry">
            <mxPoint x="108" y="725" as="sourcePoint" />
            <mxPoint x="64" y="744" as="targetPoint" />
          </mxGeometry>
        </mxCell>
        <mxCell id="gN4vE8bEkTlw2jWnqAIC-9" value="Design Space" style="rounded=1;whiteSpace=wrap;html=1;strokeColor=#585858;" parent="1" vertex="1">
          <mxGeometry x="-10" y="714" width="70" height="30" as="geometry" />
        </mxCell>
        <mxCell id="gN4vE8bEkTlw2jWnqAIC-10" value="" style="endArrow=none;html=1;rounded=0;strokeColor=#585858;" parent="1" edge="1">
          <mxGeometry width="50" height="50" relative="1" as="geometry">
            <mxPoint x="63" y="678" as="sourcePoint" />
            <mxPoint x="107" y="696" as="targetPoint" />
          </mxGeometry>
        </mxCell>
        <mxCell id="gN4vE8bEkTlw2jWnqAIC-11" value="Gradient or non-gradient based..." style="rounded=1;whiteSpace=wrap;html=1;strokeColor=#585858;" parent="1" vertex="1">
          <mxGeometry x="679" y="578" width="104" height="42" as="geometry" />
        </mxCell>
      </root>
    </mxGraphModel>
  </diagram>
</mxfile>
